<svg xmlns="http://www.w3.org/2000/svg" xmlns:xlink="http://www.w3.org/1999/xlink" width="1030" height="710" viewBox="0 0 1030 710">
  <defs>
    <clipPath id="clip-path">
      <rect id="Rectángulo_88939" data-name="Rectángulo 88939" width="76.609" height="157.474" fill="#fff"/>
    </clipPath>
  </defs>
  <g id="Grupo_140828" data-name="Grupo 140828" transform="translate(-285 -4534)">
    <g id="Grupo_140813" data-name="Grupo 140813">
      <g id="Rectángulo_88933" data-name="Rectángulo 88933" transform="translate(285 4701)" fill="#ffe4e5" stroke="#fc4b52" stroke-width="3">
        <rect width="505" height="543" stroke="none"/>
        <rect x="1.5" y="1.5" width="502" height="540" fill="none"/>
      </g>
      <g id="Rectángulo_88934" data-name="Rectángulo 88934" transform="translate(810 4701)" fill="#dee4f0" stroke="#00a4b8" stroke-width="3">
        <rect width="505" height="543" stroke="none"/>
        <rect x="1.5" y="1.5" width="502" height="540" fill="none"/>
      </g>
      <g id="Rectángulo_88935" data-name="Rectángulo 88935" transform="translate(475 4592)" fill="#ffe4e5" stroke="#fc4b52" stroke-width="3">
        <rect width="315" height="99" stroke="none"/>
        <rect x="1.5" y="1.5" width="312" height="96" fill="none"/>
      </g>
      <g id="Rectángulo_88936" data-name="Rectángulo 88936" transform="translate(810 4592)" fill="#dee4f0" stroke="#00a4b8" stroke-width="3">
        <rect width="315" height="99" stroke="none"/>
        <rect x="1.5" y="1.5" width="312" height="96" fill="none"/>
      </g>
      <text id="Datos_sobre_la_historia_y_antigüedad_del_lugar_visitado_y_los_primordiales_recursos_turísticos._Datos_sobre_las_demás_compañías_que_pueden_prestar_servicios_relevantes_como_por_ejemplo_parques_hoteles_restaurantes._Datos_sobre_todos_los_recursos_turís" data-name="Datos sobre la historia y antigüedad del lugar visitado y los primordiales recursos turísticos.
Datos sobre las demás compañías que pueden prestar servicios relevantes, como, por ejemplo, parques, hoteles, restaurantes.
Datos sobre todos los recursos turís" transform="translate(339 4730)" fill="#12263f" font-size="16" font-family="Roboto-Regular, Roboto"><tspan x="0" y="17">Datos sobre la historia y antigüedad del lugar visitado y los </tspan><tspan x="0" y="50">primordiales recursos turísticos.</tspan><tspan x="0" y="83">Datos sobre las demás compañías que pueden prestar </tspan><tspan x="0" y="116">servicios relevantes, como, por ejemplo, parques, hoteles, </tspan><tspan x="0" y="149">restaurantes.</tspan><tspan x="0" y="182">Datos sobre todos los recursos turísticos de la región </tspan><tspan x="0" y="215">visitada (playas, islas, lagunas, construcciones, regiones </tspan><tspan x="0" y="248">etnográficas).</tspan><tspan x="0" y="281">Datos sobre opciones de lugares para el ocio, como, por </tspan><tspan x="0" y="314">ejemplo, bares, teatros, cines, discotecas, casinos.</tspan><tspan x="0" y="347">Datos sobre itinerarios y excursiones turísticas a lugares, </tspan><tspan x="0" y="380">bien sean culturales o naturales.</tspan><tspan x="0" y="413">Datos brindados durante la asesoría, relacionados con </tspan><tspan x="0" y="446">servicios públicos (transporte, hospitales, cambio de </tspan><tspan x="0" y="479">divisas).</tspan></text>
      <path id="comprobado" d="M0,69.769l4.482,4.49,8.606-8.6-1.236-1.218L4.482,71.8,1.218,68.542Z" transform="translate(315 4671.241)" fill="#fc4b52"/>
      <path id="comprobado-2" data-name="comprobado" d="M0,69.769l4.482,4.49,8.606-8.6-1.236-1.218L4.482,71.8,1.218,68.542Z" transform="translate(315 4738.241)" fill="#fc4b52"/>
      <path id="comprobado-3" data-name="comprobado" d="M0,69.769l4.482,4.49,8.606-8.6-1.236-1.218L4.482,71.8,1.218,68.542Z" transform="translate(315 4837.648)" fill="#fc4b52"/>
      <path id="comprobado-4" data-name="comprobado" d="M0,69.769l4.482,4.49,8.606-8.6-1.236-1.218L4.482,71.8,1.218,68.542Z" transform="translate(315 4937.055)" fill="#fc4b52"/>
      <path id="comprobado-5" data-name="comprobado" d="M0,69.769l4.482,4.49,8.606-8.6-1.236-1.218L4.482,71.8,1.218,68.542Z" transform="translate(315 5002.648)" fill="#fc4b52"/>
      <path id="comprobado-6" data-name="comprobado" d="M0,69.769l4.482,4.49,8.606-8.6-1.236-1.218L4.482,71.8,1.218,68.542Z" transform="translate(315 5068.241)" fill="#fc4b52"/>
      <text id="Se_refieren_a_las_más_importantes_demandas_informativas_recibidas_por_la_empresa_turística" data-name="Se refieren a las más importantes demandas informativas recibidas por la empresa turística" transform="translate(498 4607)" fill="#12263f" font-size="16" font-family="Roboto-Regular, Roboto"><tspan x="0" y="17">Se refieren a las más importantes </tspan><tspan x="0" y="41">demandas informativas recibidas por </tspan><tspan x="0" y="65">la empresa turística</tspan></text>
      <g id="Rectángulo_88937" data-name="Rectángulo 88937" transform="translate(475 4534)" fill="#feca2e" stroke="#cba124" stroke-width="3">
        <rect width="315" height="48" stroke="none"/>
        <rect x="1.5" y="1.5" width="312" height="45" fill="none"/>
      </g>
      <g id="Rectángulo_88938" data-name="Rectángulo 88938" transform="translate(810 4534)" fill="#feca2e" stroke="#cba124" stroke-width="3">
        <rect width="315" height="48" stroke="none"/>
        <rect x="1.5" y="1.5" width="312" height="45" fill="none"/>
      </g>
      <text id="Solicitudes_genéricas" data-name="Solicitudes genéricas" transform="translate(512 4568)" fill="#fff" font-size="25" font-family="Roboto-Bold, Roboto" font-weight="700"><tspan x="0" y="0">Solicitudes genéricas</tspan></text>
      <text id="Se_refieren_al_contrato_y_reservación_de_los_servicios_turísticos" data-name="Se refieren al contrato y reservación de los servicios turísticos" transform="translate(836 4607)" fill="#12263f" font-size="16" font-family="Roboto-Regular, Roboto"><tspan x="0" y="17">Se refieren al contrato y reservación </tspan><tspan x="0" y="41">de los servicios turísticos</tspan></text>
      <text id="Solicitudes_específicas" data-name="Solicitudes específicas" transform="translate(838 4568)" fill="#fff" font-size="25" font-family="Roboto-Bold, Roboto" font-weight="700"><tspan x="0" y="0">Solicitudes específicas</tspan></text>
      <text id="Como_los_son_el_alojamiento_y_la_manutención_la_reserva_de_entradas_a_eventos_o_espectáculos_guías_turísticos_o_tours_entre_otros._En_este_tema_se_debe_comprender_que_el_informador_estará_presente_brindando_la_información_pero_no_puede_inducir_a_la_tom" data-name="Como los son el alojamiento y la manutención, la reserva de entradas a eventos o espectáculos, guías turísticos o tours entre otros. En este tema, se debe comprender que el informador estará presente brindando la información, pero no puede inducir a la tom" transform="translate(836 4730)" fill="#12263f" font-size="16" font-family="Roboto-Regular, Roboto"><tspan x="0" y="17">Como los son el alojamiento y la manutención, la reserva de </tspan><tspan x="0" y="41">entradas a eventos o espectáculos, guías turísticos o </tspan><tspan y="41" font-family="Roboto-Italic, Roboto" font-style="italic">tours</tspan><tspan y="41" xml:space="preserve"> entre </tspan><tspan x="0" y="65">otros. En este tema, se debe comprender que el informador </tspan><tspan x="0" y="89">estará presente brindando la información, pero no puede inducir </tspan><tspan x="0" y="113">a la toma de decisión por parte del cliente para que elija un </tspan><tspan x="0" y="137">establecimiento. </tspan><tspan x="0" y="161"></tspan><tspan x="0" y="185">Por eso lo que hace es brindar al cliente listados de compañías </tspan><tspan x="0" y="209">y servicios que han sido diseñados con anterioridad. Estas </tspan><tspan x="0" y="233">solicitudes específicas exigen al asesor turístico tener </tspan><tspan x="0" y="257">información actualizada sobre los recursos turísticos que tiene </tspan><tspan x="0" y="281">el lugar visitado y que deben hacer parte de la oferta.</tspan><tspan x="0" y="305"></tspan><tspan x="0" y="329" xml:space="preserve"> Es por esto que se destaca la producción de un catálogo </tspan><tspan x="0" y="353">actualizado promocionando estos recursos con el fin de brindar </tspan><tspan x="0" y="377">un servicio con la mejor calidad. (Urreta Okeranza E. , 2020) </tspan><tspan x="0" y="401">p.45.</tspan></text>
      <g id="Grupo_140789" data-name="Grupo 140789" transform="translate(761 5084.907)">
        <g id="Grupo_140788" data-name="Grupo 140788" clip-path="url(#clip-path)">
          <path id="Trazado_214079" data-name="Trazado 214079" d="M61.146,180.509v1.917q0,12.832,0,25.665c-.008,8.55-5.428,13.959-14.016,13.982q-8.828.024-17.655,0c-8.567-.024-13.99-5.452-14-14q-.011-12.669,0-25.338v-2.228c-1.423,0-2.756,0-4.088,0C4.182,180.5.016,176.341.014,169.156c0-11.988-.037-23.976.012-35.964a18.042,18.042,0,0,1,15.015-18.135,21.553,21.553,0,0,1,3.9-.281q19.371-.029,38.742,0c9.912.025,17.138,6.086,18.727,15.667a21.187,21.187,0,0,1,.184,3.42q.018,17.736,0,35.473c0,6.941-4.243,11.153-11.223,11.175-1.348,0-2.7,0-4.235,0M38.3,121.428c-6.159,0-12.327.224-18.472-.057-7.542-.345-13.493,4.85-13.218,13.3.268,8.22.059,16.457.059,24.686,0,3.488-.038,6.976.016,10.464.039,2.561,1.447,3.92,3.98,3.947,2.343.026,4.686,0,7.03.007,3.379,0,4.532,1.139,4.533,4.489,0,10.137-.01,20.273.008,30.41.007,4.129,2.506,6.627,6.6,6.636q9.237.022,18.474,0c4.75,0,7.078-2.35,7.081-7.152q.007-14.96,0-29.92c0-3.291,1.154-4.459,4.39-4.466,2.235,0,4.469,0,6.7,0,3.161-.01,4.459-1.286,4.461-4.465.011-11.935.037-23.871-.008-35.805-.027-7.219-4.952-12.052-12.188-12.071-6.485-.017-12.971,0-19.456,0" transform="translate(0 -64.611)" fill="#fff"/>
          <path id="Trazado_214080" data-name="Trazado 214080" d="M35.929,22.714A22.773,22.773,0,1,1,58.4,45.641,22.8,22.8,0,0,1,35.929,22.714M58.661,38.887A16.075,16.075,0,1,0,42.579,22.938,16.09,16.09,0,0,0,58.661,38.887" transform="translate(-20.229 0)" fill="#fff"/>
        </g>
      </g>
    </g>
  </g>
</svg>
