<svg xmlns="http://www.w3.org/2000/svg" xmlns:xlink="http://www.w3.org/1999/xlink" width="304.073" height="254.021" viewBox="0 0 304.073 254.021">
  <defs>
    <clipPath id="clip-path">
      <rect id="Rectángulo_88768" data-name="Rectángulo 88768" width="304" height="239" transform="translate(1116 894)" fill="#feca2e"/>
    </clipPath>
    <clipPath id="clip-path-2">
      <rect id="Rectángulo_88767" data-name="Rectángulo 88767" width="277.213" height="317.357" fill="none"/>
    </clipPath>
  </defs>
  <g id="Grupo_140840" data-name="Grupo 140840" transform="translate(-1116 -894)">
    <g id="Grupo_140839" data-name="Grupo 140839">
      <g id="Grupo_138598" data-name="Grupo 138598" transform="translate(936)">
        <g id="Grupo_132121" data-name="Grupo 132121" transform="translate(180 894)">
          <g id="Grupo_132115" data-name="Grupo 132115" transform="translate(0 0)">
            <rect id="Rectángulo_44113" data-name="Rectángulo 44113" width="304" height="33.139" transform="translate(0.072)" fill="#fff"/>
            <g id="Image_Place_Holder" data-name="Image Place Holder" transform="translate(0 32.838)">
              <rect id="Image_Place_Holder-2" data-name="Image Place Holder-2" width="303.554" height="206.345" fill="#e0f6be"/>
            </g>
          </g>
        </g>
        <rect id="Rectángulo_41167" data-name="Rectángulo 41167" width="304.072" height="15" rx="5" transform="translate(180 1133.021)" fill="#a7e446"/>
      </g>
    </g>
    <g id="Enmascarar_grupo_117524" data-name="Enmascarar grupo 117524" clip-path="url(#clip-path)">
      <g id="Grupo_138619" data-name="Grupo 138619" transform="translate(1125 894)">
        <g id="Grupo_138618" data-name="Grupo 138618" clip-path="url(#clip-path-2)">
          <path id="Trazado_213645" data-name="Trazado 213645" d="M140.525,181.527H81.847a3.828,3.828,0,0,1-4.046-3.552V136.2a3.827,3.827,0,0,1,4.046-3.552h58.678a3.828,3.828,0,0,1,4.046,3.552v41.771a3.829,3.829,0,0,1-4.046,3.552M81.847,133.333a3.1,3.1,0,0,0-3.273,2.872v41.771a3.1,3.1,0,0,0,3.273,2.872h58.678a3.1,3.1,0,0,0,3.273-2.872V136.2a3.1,3.1,0,0,0-3.273-2.872Z" transform="translate(63.182 107.728)" fill="#e2209e"/>
          <path id="Trazado_213646" data-name="Trazado 213646" d="M144.184,138.289h-66a.343.343,0,1,1,0-.68h66a.343.343,0,1,1,0,.68" transform="translate(63.181 111.752)" fill="#e2209e"/>
          <path id="Trazado_213647" data-name="Trazado 213647" d="M110.333,138.509a.426.426,0,0,1-.252-.082.313.313,0,0,1-.043-.478l3.515-3.631a.43.43,0,0,1,.547-.038.313.313,0,0,1,.043.478l-3.515,3.631a.406.406,0,0,1-.3.12" transform="translate(89.288 108.983)" fill="#e2209e"/>
          <path id="Trazado_213648" data-name="Trazado 213648" d="M113.85,138.509a.4.4,0,0,1-.3-.12l-3.517-3.631a.314.314,0,0,1,.043-.478.432.432,0,0,1,.549.038l3.514,3.631a.313.313,0,0,1-.042.478.43.43,0,0,1-.252.082" transform="translate(89.288 108.983)" fill="#e2209e"/>
          <path id="Trazado_213649" data-name="Trazado 213649" d="M24.621,114.283,39.85,129.459l15.3-24.088-8.6-8.874Z" transform="translate(19.995 78.366)" fill="#fd8753"/>
          <path id="Trazado_213650" data-name="Trazado 213650" d="M52.682,83.974c-1.558-.542-8.234,6.982-9.042,7.377s1.089,6.324-.7,6.746-5.063-.3-7.685.348c-2.457.6-30.228,24.9-35,30.3a1.086,1.086,0,0,0,.172,1.56,39.567,39.567,0,0,0,5.755,3.945c2.762,1.538,6.045,2.8,9.068,2.593,7.134-.507,17.309-7.058,22.468-7.752s13.375,1.334,14.482-1.361.881-10.441,6.792-14.426,9.5-4.829,9.827-7.373c.219-1.72-6.533-10.909-11.409-16.834-2.33-2.845-4.228-4.945-4.73-5.119" transform="translate(0 68.172)" fill="#a7e446"/>
          <path id="Trazado_213651" data-name="Trazado 213651" d="M52.682,83.974c-1.558-.542-8.234,6.982-9.042,7.377s1.089,6.324-.7,6.746-5.063-.3-7.685.348c-2.457.6-30.228,24.9-35,30.3a1.086,1.086,0,0,0,.172,1.56,39.567,39.567,0,0,0,5.755,3.945L57.411,89.093c-2.33-2.845-4.228-4.945-4.73-5.119" transform="translate(0 68.172)" fill="#fff"/>
          <path id="Trazado_213652" data-name="Trazado 213652" d="M76.05,157.807l-3.177,9.046-18.039,5.779-8.658-3.867,4.614-20.745Z" transform="translate(37.499 120.207)" fill="#fd8753"/>
          <path id="Trazado_213653" data-name="Trazado 213653" d="M49.764,79.191s-3.244,16.229-4.773,30.025-4,32.315-4,32.315-11.326,42.45,15.885,46.2C90.618,192.386,88.9,152.38,88.9,152.38L78.752,68.659Z" transform="translate(31.394 55.758)" fill="#feca2e"/>
          <path id="Trazado_213654" data-name="Trazado 213654" d="M24.344,120.929l27.923-24.09,8.318,11.726,2.252,54.8s-12.15-1.636-38.493-42.438" transform="translate(19.77 78.643)" fill="#feca2e"/>
          <path id="Trazado_213655" data-name="Trazado 213655" d="M99.7,72.374s11.26,44.882,7.7,77.982-19.977,73.689-19.977,73.689l-43.8-8.16,14.635-49.059L68.823,74.567Z" transform="translate(35.418 58.775)" fill="#feca2e"/>
          <path id="Trazado_213656" data-name="Trazado 213656" d="M43.851,188.406c.8,1.446,10.791.323,11.657.569s3.421-5.427,5.036-4.545,3.561,3.613,5.944,4.887c2.225,1.2,39.125,1.723,46.279.9a1.084,1.084,0,0,0,.915-1.274,39.633,39.633,0,0,0-1.636-6.783c-1.022-2.992-2.618-6.127-5-7.995-5.643-4.4-17.588-6.337-21.885-9.274s-9.048-9.941-11.675-8.68-7.64,7.17-14.7,6.176-10.293-2.769-12.237-1.1c-1.314,1.131-2.446,12.478-2.787,20.143-.172,3.673-.167,6.505.089,6.969" transform="translate(35.443 126.74)" fill="#e2209e"/>
          <path id="Trazado_213657" data-name="Trazado 213657" d="M51.4,174.909a19.684,19.684,0,0,1-2.551-.136.451.451,0,0,1-.381-.513.441.441,0,0,1,.513-.382A29.727,29.727,0,0,0,75.3,162.124c14.62-19.288,4.648-74.664,4.547-75.22a.455.455,0,0,1,.41-.535l14.877-1.2a.453.453,0,0,1,.072.9L80.825,87.232c1.047,5.927,9.481,56.594-4.8,75.44A30.62,30.62,0,0,1,51.4,174.909" transform="translate(39.357 69.165)" fill="#e2209e"/>
          <path id="Trazado_213658" data-name="Trazado 213658" d="M50.217,114.862a1.909,1.909,0,0,1-.567-.091c-3.659-1.151-8.106-13.98-8.6-15.439a.454.454,0,0,1,.741-.477c.429.406,10.512,10,10.256,14.143a1.928,1.928,0,0,1-.792,1.509,1.726,1.726,0,0,1-1.037.353m-7.654-13.98c1.691,4.552,5,12.282,7.359,13.025a.822.822,0,0,0,.8-.127,1.044,1.044,0,0,0,.422-.837c.165-2.667-5.261-8.722-8.578-12.061" transform="translate(33.316 80.182)" fill="#e2209e"/>
          <path id="Trazado_213659" data-name="Trazado 213659" d="M46.332,89.7a.453.453,0,0,1-.2-.861c5.8-2.832,9.689-10.188,9.727-10.262a.459.459,0,0,1,.612-.192.453.453,0,0,1,.192.611c-.163.313-4.059,7.694-10.137,10.659a.45.45,0,0,1-.2.045" transform="translate(37.258 63.62)" fill="#e2209e"/>
          <path id="Trazado_213660" data-name="Trazado 213660" d="M43.851,177.035c.8,1.446,10.791.323,11.657.569s3.421-5.427,5.036-4.545,3.561,3.613,5.944,4.887c2.225,1.2,39.125,1.723,46.279.9a1.084,1.084,0,0,0,.915-1.274,39.632,39.632,0,0,0-1.636-6.783l-68.284-.727c-.172,3.673-.167,6.505.089,6.969" transform="translate(35.443 138.111)" fill="#fff"/>
          <path id="Trazado_213661" data-name="Trazado 213661" d="M62.15,44A39.225,39.225,0,0,0,34.943,70.339c-6.823,21.95,20.7,45.089,20.7,45.089l51.978-14.537s-6.23-56.36-12.458-62S62.15,44,62.15,44" transform="translate(27.495 30.258)" fill="#c93c41"/>
          <path id="Trazado_213662" data-name="Trazado 213662" d="M61.04,46.24s2.78-21.031,29.872-26.174,43.309,28.5,43.309,28.5L54.429,63.178Z" transform="translate(44.202 15.862)" fill="#c93c41"/>
          <path id="Trazado_213663" data-name="Trazado 213663" d="M68.041,35.663s8.664-6.005,5.295-11.7-11.764-.709-11.764-.709a6.254,6.254,0,0,0-7.5-1.113c-4.592,2.227-5.52,8.359-5.52,8.359s-4.494-.41-5.125,5.05,4.931,10.74,4.931,10.74Z" transform="translate(35.225 17.24)" fill="#12263f"/>
          <path id="Trazado_213664" data-name="Trazado 213664" d="M48.833,36.888l-.817,10.43s1.647,3.146,7.71,4.121c4.516.725,6.112-2.164,6.112-2.164L61.7,45.929l-.223-5.2L50.651,37.441Z" transform="translate(38.994 29.957)" fill="#fd8753"/>
          <path id="Trazado_213665" data-name="Trazado 213665" d="M49.47,37.194a3.378,3.378,0,0,0,.223,1.029c1.926,5.395,8.218,7.016,10.827,7.459l-.223-5.2Z" transform="translate(40.175 30.205)"/>
          <path id="Trazado_213666" data-name="Trazado 213666" d="M68.41,27.942s4.451,13.507,1.723,20.6-9.26,5.326-13.1,3.544A13.224,13.224,0,0,1,51.575,47.7a5.628,5.628,0,0,1-5.989-2.774c-2.158-3.684-.257-7.5,1.948-8.214s4.581,1.058,4.581,1.058l-1.622-3.956S60.6,15.43,68.41,27.942" transform="translate(36.25 19.149)" fill="#fd8753"/>
          <path id="Trazado_213667" data-name="Trazado 213667" d="M50.517,36.606a.457.457,0,0,1-.292-.107l-4.434-3.747a.453.453,0,0,1,.584-.692l4.434,3.747a.453.453,0,0,1-.292.8" transform="translate(37.055 25.949)"/>
          <path id="Trazado_213668" data-name="Trazado 213668" d="M46.167,34.958a.452.452,0,0,1-.076-.9l3.157-.555a.452.452,0,1,1,.156.89l-3.157.555a.3.3,0,0,1-.08.007" transform="translate(37.125 27.203)"/>
          <path id="Trazado_213669" data-name="Trazado 213669" d="M52.918,29.551a.446.446,0,0,1-.3-.116.455.455,0,0,1-.034-.641,3.273,3.273,0,0,1,4.233-.748.457.457,0,0,1,.134.627.451.451,0,0,1-.625.134,2.374,2.374,0,0,0-3.068.6.46.46,0,0,1-.337.149" transform="translate(42.607 22.395)"/>
          <path id="Trazado_213670" data-name="Trazado 213670" d="M59.756,29.556a.455.455,0,0,1-.315-.127,2.048,2.048,0,0,0-2.24-.408.453.453,0,0,1-.4-.814,2.94,2.94,0,0,1,3.267.569.453.453,0,0,1-.315.779" transform="translate(45.924 22.692)"/>
          <path id="Trazado_213671" data-name="Trazado 213671" d="M57.388,38.144a.427.427,0,0,1-.163-.031.451.451,0,0,1-.259-.585,5.646,5.646,0,0,0-.9-5.985.453.453,0,1,1,.641-.64,6.533,6.533,0,0,1,1.1,6.951.451.451,0,0,1-.422.29" transform="translate(45.427 24.988)"/>
          <path id="Trazado_213674" data-name="Trazado 213674" d="M67.757,32.125a4.418,4.418,0,0,0-3.57-2.406,5.634,5.634,0,0,0-4.262,1.491s.8,4.47-2.923,6.522-6.408,1.185-6.408,1.185L48.1,37.8,46.51,33.9l8.051-7.421,10.006-4.32,4.55,4.829Z" transform="translate(37.771 17.999)" fill="#12263f"/>
          <path id="Trazado_213675" data-name="Trazado 213675" d="M56.977,37.808a3.978,3.978,0,0,1-3.695-2.5.455.455,0,0,1,.265-.583.449.449,0,0,1,.583.265A3.1,3.1,0,0,0,56.982,36.9a.5.5,0,0,1,.458.446.453.453,0,0,1-.444.46Z" transform="translate(43.247 28.176)"/>
          <path id="Trazado_213676" data-name="Trazado 213676" d="M169.618,204.669H78.988a8.573,8.573,0,0,1-8.573-8.573V40.46a8.574,8.574,0,0,1,8.573-8.575h90.63a8.574,8.574,0,0,1,8.573,8.575V196.1a8.573,8.573,0,0,1-8.573,8.573" transform="translate(57.184 25.894)" fill="#fff"/>
          <path id="Trazado_213677" data-name="Trazado 213677" d="M165.689,204.669H75.059a8.573,8.573,0,0,1-8.573-8.573V40.46a8.574,8.574,0,0,1,8.573-8.575h90.63a8.574,8.574,0,0,1,8.573,8.575V196.1a8.573,8.573,0,0,1-8.573,8.573" transform="translate(53.993 25.894)" fill="#64892a"/>
          <path id="Trazado_213678" data-name="Trazado 213678" d="M61.138,60s13.053-6.922,17.007-7.515,10.731,3.756,10.731,3.756l-3.414,1.979s5.34,11.668,4.351,13.448-3.559,0-3.559,0-6.13,6.328-7.91,6.525-11.273-3.559-11.273-3.559Z" transform="translate(49.65 42.576)" fill="#fd8753"/>
          <path id="Trazado_213679" data-name="Trazado 213679" d="M86.59,66.2,58.3,76.284l2.907-34.9S39.524,48,33.789,70.351,36.36,110.5,54.157,112.078,96.081,88.742,96.081,88.742Z" transform="translate(25.98 33.607)" fill="#c93c41"/>
          <path id="Trazado_213680" data-name="Trazado 213680" d="M93.749,28.439s-3.162-5.326-6.08-.868-.42,17.17,1.944,17.755c2.55.632,4.135-4.217,4.135-4.217s.486,4.142,3.158,4.217,3.892-4.217,3.892-4.217,1.33,4.849,3.646,4.217c2.548-.694,3.889-16.887-.973-18.57-2.33-.808-3.648,1.683-3.648,1.683s-.9-3.084-3.577-2.682a2.6,2.6,0,0,0-2.5,2.682" transform="translate(70.125 20.888)" fill="#fd8753"/>
          <rect id="Rectángulo_88764" data-name="Rectángulo 88764" width="79.645" height="7.053" transform="translate(134.545 152.519)" fill="#feca2e"/>
          <rect id="Rectángulo_88765" data-name="Rectángulo 88765" width="79.645" height="7.053" transform="translate(134.545 167.458)" fill="#feca2e"/>
          <rect id="Rectángulo_88766" data-name="Rectángulo 88766" width="79.645" height="7.053" transform="translate(134.545 183.1)" fill="#feca2e"/>
          <path id="Trazado_213681" data-name="Trazado 213681" d="M120.119,86.248h-30.2a4.527,4.527,0,0,1-4.527-4.527v-30.2A4.526,4.526,0,0,1,89.921,47h30.2a4.525,4.525,0,0,1,4.527,4.525v30.2a4.526,4.526,0,0,1-4.527,4.527" transform="translate(69.349 38.167)" fill="#a7e446"/>
          <path id="Trazado_213682" data-name="Trazado 213682" d="M119.745,68.855a16.637,16.637,0,0,0-.043-7.446l-2.334-.025-1.388-3.322,1.662-1.58a16.594,16.594,0,0,0-5.177-5.208L110.648,53l-3.3-1.41.1-2.43a16.628,16.628,0,0,0-7.312-.072v2.633L96.844,53.14l-1.9-1.962a16.55,16.55,0,0,0-5.2,5.106l1.854,1.765-1.388,3.323-2.651.029a16.639,16.639,0,0,0-.043,7.462l2.695.027,1.388,3.323-1.932,1.839a16.566,16.566,0,0,0,5.161,5.155l2.021-2.086,3.294,1.424v2.83a16.625,16.625,0,0,0,7.319-.074l-.109-2.628,3.3-1.408,1.939,1.841a16.577,16.577,0,0,0,5.13-5.255L115.979,72.2l1.388-3.322Zm-16.117,4.4a8.019,8.019,0,1,1,8.019-8.02,8.019,8.019,0,0,1-8.019,8.02" transform="translate(70.741 39.56)" fill="#fff"/>
          <path id="Trazado_213683" data-name="Trazado 213683" d="M75.851,57.794a.451.451,0,0,1-.368-.188L73.06,54.223A.453.453,0,1,1,73.8,53.7l2.423,3.381a.452.452,0,0,1-.1.632.447.447,0,0,1-.265.085" transform="translate(59.263 43.451)"/>
          <path id="Trazado_213684" data-name="Trazado 213684" d="M75.819,64.564a.459.459,0,0,1-.37-.188l-1.377-1.932a.453.453,0,0,1,.738-.527l1.379,1.93a.454.454,0,0,1-.37.718" transform="translate(60.085 50.129)"/>
          <path id="Trazado_213685" data-name="Trazado 213685" d="M90.635,39.982a.453.453,0,0,1-.453-.453v-12.1a.453.453,0,1,1,.906,0v12.1a.453.453,0,0,1-.453.453" transform="translate(73.237 21.903)"/>
          <path id="Trazado_213686" data-name="Trazado 213686" d="M94.961,40.548a.451.451,0,0,1-.449-.419l-.973-12.672a.452.452,0,0,1,.417-.486.465.465,0,0,1,.486.417l.971,12.672a.45.45,0,0,1-.415.486l-.036,0" transform="translate(75.962 21.903)"/>
          <path id="Trazado_213687" data-name="Trazado 213687" d="M57.1,47.444c-4.65,0-9.006-4.092-9.191-4.269a.452.452,0,1,1,.623-.656,18.773,18.773,0,0,0,4.71,3.106c3.452,1.528,6.306,1.147,8.472-1.133a.452.452,0,0,1,.658.622A7.057,7.057,0,0,1,57.3,47.442l-.2,0" transform="translate(38.791 34.429)" fill="#fff"/>
          <path id="Trazado_213688" data-name="Trazado 213688" d="M42.927,65.565a.453.453,0,0,1-.178-.87c12.081-5.117,29.374-8.914,29.548-8.95a.447.447,0,0,1,.538.344.453.453,0,0,1-.344.54c-.174.038-17.385,3.816-29.387,8.9a.439.439,0,0,1-.178.036" transform="translate(34.493 45.261)" fill="#fff"/>
          <path id="Trazado_213689" data-name="Trazado 213689" d="M49.736,60.6c-3.651,0-7.6-.265-8.028-1.379-.107-.279-.109-.714.493-1.205,3.1-2.535,12.052,1.424,12.431,1.6a.452.452,0,0,1-.163.864c-1.2.06-2.928.123-4.733.123m-4.5-2.532a3.9,3.9,0,0,0-2.461.649c-.188.154-.216.236-.216.236.419.6,5.043.826,9.744.7a23.191,23.191,0,0,0-7.067-1.584" transform="translate(33.827 46.426)" fill="#fff"/>
          <path id="Trazado_213690" data-name="Trazado 213690" d="M73.665,35.845a.452.452,0,0,1-.429-.31c-.183-.544-1.752-5.38-.676-7.207a1.479,1.479,0,0,1,1.022-.736,1.111,1.111,0,0,1,1.091.341c1.2,1.337-.266,6.556-.573,7.589a.456.456,0,0,1-.428.323Zm.178-7.372a.654.654,0,0,0-.094.009.576.576,0,0,0-.408.3c-.538.913-.132,3.213.306,4.92.516-2.165.861-4.6.352-5.166a.175.175,0,0,0-.156-.067" transform="translate(58.622 22.387)" fill="#fff"/>
          <path id="Trazado_213691" data-name="Trazado 213691" d="M54.931,84.667a.453.453,0,0,1-.2-.857c.127-.063,12.679-6.473,19.634-14.722A.457.457,0,0,1,75,69.034a.452.452,0,0,1,.054.638c-7.074,8.39-19.79,14.883-19.917,14.946a.459.459,0,0,1-.2.049" transform="translate(44.242 55.977)" fill="#fff"/>
          <path id="Trazado_213692" data-name="Trazado 213692" d="M178.856,48.874H120.178a3.828,3.828,0,0,1-4.046-3.552V3.552A3.827,3.827,0,0,1,120.178,0h58.678A3.828,3.828,0,0,1,182.9,3.552V45.322a3.829,3.829,0,0,1-4.046,3.552M120.178.68a3.1,3.1,0,0,0-3.273,2.872V45.322a3.1,3.1,0,0,0,3.273,2.872h58.678a3.1,3.1,0,0,0,3.273-2.872V3.552A3.1,3.1,0,0,0,178.856.68Z" transform="translate(94.311)" fill="#64892a"/>
          <path id="Trazado_213693" data-name="Trazado 213693" d="M182.517,5.636h-66a.343.343,0,1,1,0-.68h66a.343.343,0,1,1,0,.68" transform="translate(94.311 4.025)" fill="#64892a"/>
          <path id="Trazado_213694" data-name="Trazado 213694" d="M148.665,5.856a.426.426,0,0,1-.252-.082.313.313,0,0,1-.043-.478l3.515-3.631a.43.43,0,0,1,.547-.038.313.313,0,0,1,.043.478l-3.515,3.631a.406.406,0,0,1-.3.12" transform="translate(120.417 1.255)" fill="#64892a"/>
          <path id="Trazado_213695" data-name="Trazado 213695" d="M152.181,5.856a.406.406,0,0,1-.3-.12L148.37,2.1a.313.313,0,0,1,.043-.478.429.429,0,0,1,.547.038L152.476,5.3a.313.313,0,0,1-.043.478.426.426,0,0,1-.252.082" transform="translate(120.417 1.255)" fill="#64892a"/>
          <ellipse id="Elipse_5080" data-name="Elipse 5080" cx="1" cy="1.5" rx="1" ry="1.5" transform="translate(98 53)"/>
          <ellipse id="Elipse_5081" data-name="Elipse 5081" cx="1" cy="1.5" rx="1" ry="1.5" transform="translate(103 53)"/>
        </g>
      </g>
    </g>
  </g>
</svg>
