<svg xmlns="http://www.w3.org/2000/svg" xmlns:xlink="http://www.w3.org/1999/xlink" width="304.072" height="254.183" viewBox="0 0 304.072 254.183">
  <defs>
    <clipPath id="clip-path">
      <rect id="Rectángulo_88733" data-name="Rectángulo 88733" width="304" height="239" transform="translate(492 894)" fill="#feca2e"/>
    </clipPath>
    <clipPath id="clip-path-2">
      <rect id="Rectángulo_88732" data-name="Rectángulo 88732" width="291.379" height="343.955" fill="none"/>
    </clipPath>
  </defs>
  <g id="Grupo_140837" data-name="Grupo 140837" transform="translate(-492 -894)">
    <g id="Grupo_138608" data-name="Grupo 138608" transform="translate(312)">
      <g id="Grupo_132121" data-name="Grupo 132121" transform="translate(180 894)">
        <g id="Grupo_132115" data-name="Grupo 132115" transform="translate(0 0)">
          <rect id="Rectángulo_44113" data-name="Rectángulo 44113" width="304" height="33.139" transform="translate(0.072)" fill="#fff"/>
          <g id="Image_Place_Holder" data-name="Image Place Holder" transform="translate(0 32.838)">
            <rect id="Image_Place_Holder-2" data-name="Image Place Holder-2" width="303.554" height="206.345" fill="#e0f6be"/>
          </g>
        </g>
      </g>
      <rect id="Rectángulo_41167" data-name="Rectángulo 41167" width="304.072" height="15" rx="5" transform="translate(180 1133.183)" fill="#a7e446"/>
    </g>
    <g id="Enmascarar_grupo_117521" data-name="Enmascarar grupo 117521" clip-path="url(#clip-path)">
      <g id="Grupo_138610" data-name="Grupo 138610" transform="translate(498.622 894)">
        <g id="Grupo_138609" data-name="Grupo 138609" clip-path="url(#clip-path-2)">
          <path id="Trazado_213468" data-name="Trazado 213468" d="M158.121,47.961H86.211a3.413,3.413,0,0,1-3.41-3.41V9.411A3.415,3.415,0,0,1,86.211,6h71.91a3.416,3.416,0,0,1,3.41,3.412v35.14a3.414,3.414,0,0,1-3.41,3.41M86.211,7.009a2.4,2.4,0,0,0-2.4,2.4v35.14a2.4,2.4,0,0,0,2.4,2.4h71.91a2.4,2.4,0,0,0,2.4-2.4V9.411a2.4,2.4,0,0,0-2.4-2.4Z" transform="translate(84.458 6.119)" fill="#64892a"/>
          <path id="Trazado_213469" data-name="Trazado 213469" d="M161.027,10.452H83.305a.505.505,0,1,1,0-1.01h77.722a.505.505,0,1,1,0,1.01" transform="translate(84.457 9.631)" fill="#64892a"/>
          <path id="Trazado_213470" data-name="Trazado 213470" d="M117.756,10.572a.373.373,0,0,1-.327-.248.6.6,0,0,1,.134-.691l3.114-2.444c.178-.147.412-.065.52.178a.605.605,0,0,1-.134.691L117.95,10.5a.3.3,0,0,1-.193.071" transform="translate(119.725 7.257)" fill="#64892a"/>
          <path id="Trazado_213471" data-name="Trazado 213471" d="M120.87,10.572a.3.3,0,0,1-.193-.071l-3.114-2.444a.605.605,0,0,1-.134-.691.329.329,0,0,1,.52-.178l3.114,2.444a.6.6,0,0,1,.134.691.373.373,0,0,1-.327.248" transform="translate(119.725 7.257)" fill="#64892a"/>
          <path id="Trazado_213472" data-name="Trazado 213472" d="M171.2,18.745V105.5a4.8,4.8,0,0,1-4.808,4.787H13.541A4.8,4.8,0,0,1,8.752,105.5V18.745a4.8,4.8,0,0,1,4.789-4.789H166.388a4.8,4.8,0,0,1,4.808,4.789" transform="translate(8.927 14.235)" fill="#a7e446" stroke="#64892a" stroke-width="1"/>
          <path id="Trazado_213473" data-name="Trazado 213473" d="M171.2,18.745v5.076H8.752V18.745a4.8,4.8,0,0,1,4.789-4.789H166.388a4.8,4.8,0,0,1,4.808,4.789" transform="translate(8.927 14.235)" fill="#fff" stroke="#64892a" stroke-width="1"/>
          <path id="Trazado_213474" data-name="Trazado 213474" d="M88.518,17.681a2.538,2.538,0,1,1-2.539-2.539,2.54,2.54,0,0,1,2.539,2.539" transform="translate(85.112 15.445)" fill="#a7e446"/>
          <path id="Trazado_213475" data-name="Trazado 213475" d="M84.492,17.681a2.538,2.538,0,1,1-2.539-2.539,2.54,2.54,0,0,1,2.539,2.539" transform="translate(81.005 15.445)" fill="#fc4b52"/>
          <path id="Trazado_213476" data-name="Trazado 213476" d="M80.467,17.681a2.538,2.538,0,1,1-2.537-2.539,2.539,2.539,0,0,1,2.537,2.539" transform="translate(76.9 15.445)" fill="#feca2e"/>
          <path id="Trazado_213477" data-name="Trazado 213477" d="M0,0H128.836V7.521H0Z" transform="translate(34.482 53.575)" fill="#64892a"/>
          <path id="Trazado_213478" data-name="Trazado 213478" d="M62.882,38.561H28.071c-.184,0-.333-.226-.333-.505s.149-.505.333-.505H62.882c.184,0,.333.228.333.505s-.149.505-.333.505" transform="translate(28.293 38.302)" fill="#64892a"/>
          <path id="Trazado_213479" data-name="Trazado 213479" d="M62.882,42.732H28.071c-.184,0-.333-.226-.333-.505s.149-.505.333-.505H62.882c.184,0,.333.226.333.505s-.149.505-.333.505" transform="translate(28.293 42.557)" fill="#64892a"/>
          <path id="Trazado_213480" data-name="Trazado 213480" d="M62.882,46.9H28.071c-.184,0-.333-.226-.333-.505s.149-.505.333-.505H62.882c.184,0,.333.226.333.505s-.149.505-.333.505" transform="translate(28.293 46.811)" fill="#64892a"/>
          <path id="Trazado_213481" data-name="Trazado 213481" d="M105.768,38.561H53.124a.505.505,0,1,1,0-1.01h52.644a.505.505,0,1,1,0,1.01" transform="translate(53.672 38.302)" fill="#64892a"/>
          <path id="Trazado_213482" data-name="Trazado 213482" d="M105.768,42.732H53.124a.505.505,0,1,1,0-1.01h52.644a.505.505,0,1,1,0,1.01" transform="translate(53.672 42.557)" fill="#64892a"/>
          <path id="Trazado_213483" data-name="Trazado 213483" d="M105.768,46.9H53.124a.505.505,0,0,1,0-1.01h52.644a.505.505,0,0,1,0,1.01" transform="translate(53.672 46.811)" fill="#64892a"/>
          <path id="Trazado_213484" data-name="Trazado 213484" d="M120.211,46.306s7.636-12.843,19.832-6.591S150.905,58.9,160.165,61.868,177,72.82,171.625,83.118c-4.5,8.615-16.693,5.876-16.693,5.876s-7.579,12.91-20.98,8.494-19.509-11.375-18.109-22.481,4.369-28.7,4.369-28.7" transform="translate(117.96 38.759)" fill="#12263f"/>
          <path id="Trazado_213485" data-name="Trazado 213485" d="M108.023,62.383s-7.242-10.579,7.419-18.913,25.345,3.093,25.466,9.238-3.373,8.989-3.373,8.989,1.365,13.31-11.423,12.395-18.089-11.708-18.089-11.708" transform="translate(108.361 41.343)" fill="#12263f"/>
          <path id="Trazado_213486" data-name="Trazado 213486" d="M123.862,56.087l.271,10.753s-1.862,3.139-8.141,3.81c-4.676.5-6.349-.521-6.349-.521l.517-5.462.511-5.327,11.3-2.784Z" transform="translate(111.837 57.209)" fill="#fd8753"/>
          <path id="Trazado_213487" data-name="Trazado 213487" d="M123.568,55.834a3.554,3.554,0,0,1-.287,1.046c-2.27,5.43-10.684,7.735-13.383,8.046l.511-5.327Z" transform="translate(112.098 56.951)"/>
          <path id="Trazado_213488" data-name="Trazado 213488" d="M110.438,47.688s-5.3,13.623-2.893,21.059S116.761,74.72,120.8,73.1a13.57,13.57,0,0,0,5.84-4.212,5.786,5.786,0,0,0,6.3-2.523c2.416-3.664.673-7.69-1.551-8.539s-4.761.836-4.761.836l1.881-3.973s-9.377-19.42-18.073-7" transform="translate(109.056 44.41)" fill="#fd8753"/>
          <path id="Trazado_213489" data-name="Trazado 213489" d="M108.584,58.191a.507.507,0,0,1-.5-.422c-.751-4.569,1.038-6.993,1.115-7.1a.505.505,0,0,1,.806.61c-.016.022-1.6,2.212-.923,6.321a.5.5,0,0,1-.416.582.572.572,0,0,1-.083.006" transform="translate(110.06 51.485)"/>
          <path id="Trazado_213490" data-name="Trazado 213490" d="M117.078,55.674a.505.505,0,0,1-.236-.951l5.238-2.786a.505.505,0,0,1,.473.893l-5.238,2.786a.518.518,0,0,1-.236.059" transform="translate(118.906 52.918)"/>
          <path id="Trazado_213491" data-name="Trazado 213491" d="M120.768,55.847a.5.5,0,0,1-.331-.125l-2.523-2.2a.5.5,0,0,1,.663-.762l2.523,2.2a.5.5,0,0,1-.331.885" transform="translate(120.096 53.69)"/>
          <path id="Trazado_213492" data-name="Trazado 213492" d="M107.638,55.811a11.5,11.5,0,0,1,2.784-6.159c2.7-3.022,4.977-2.523,4.977-2.523s-3.979,8.716,2.721,11.787c4.765,2.186,7.817,1.123,7.817,1.123l6.82-6.771L119.188,42.249s-12.371-1.735-11.55,13.562" transform="translate(109.752 43.034)" fill="#12263f"/>
          <path id="Trazado_213493" data-name="Trazado 213493" d="M110.158,57.256a.505.505,0,0,1-.166-.982,4.663,4.663,0,0,0,2.2-1.927.494.494,0,0,1,.691-.178.5.5,0,0,1,.178.691,5.591,5.591,0,0,1-2.737,2.367.465.465,0,0,1-.164.028" transform="translate(111.849 55.178)"/>
          <path id="Trazado_213494" data-name="Trazado 213494" d="M108.089,49.045a.5.5,0,0,1-.105-1l1.487-.315a.489.489,0,0,1,.6.388.5.5,0,0,1-.388.6l-1.485.315a.479.479,0,0,1-.105.012" transform="translate(109.737 48.673)"/>
          <path id="Trazado_213495" data-name="Trazado 213495" d="M107.733,77.487l-24.2,14.845L56.414,56.03l24.2-14.843Z" transform="translate(57.543 42.011)" fill="#feca2e"/>
          <path id="Trazado_213496" data-name="Trazado 213496" d="M109.283,76.63l-24.2,14.845-27.121-36.3,24.2-14.843Z" transform="translate(59.122 41.138)" fill="#fff"/>
          <path id="Trazado_213497" data-name="Trazado 213497" d="M61.582,55.152a.505.505,0,0,1-.265-.935L79.079,43.322a.5.5,0,1,1,.529.859l-17.762,10.9a.506.506,0,0,1-.265.075" transform="translate(62.299 44.112)" fill="#a7e446"/>
          <path id="Trazado_213498" data-name="Trazado 213498" d="M63.007,57.009a.505.505,0,0,1-.265-.935L80.5,45.178a.505.505,0,0,1,.529.861l-17.762,10.9a.506.506,0,0,1-.265.075" transform="translate(63.753 46.006)" fill="#a7e446"/>
          <path id="Trazado_213499" data-name="Trazado 213499" d="M64.4,58.885a.505.505,0,0,1-.265-.935L81.9,47.055a.5.5,0,1,1,.529.859L64.663,58.81a.506.506,0,0,1-.265.075" transform="translate(65.173 47.919)" fill="#a7e446"/>
          <path id="Trazado_213500" data-name="Trazado 213500" d="M65.794,60.76a.505.505,0,0,1-.265-.935l17.762-10.9a.5.5,0,1,1,.529.859l-17.762,10.9a.505.505,0,0,1-.265.075" transform="translate(66.596 49.83)" fill="#a7e446"/>
          <path id="Trazado_213501" data-name="Trazado 213501" d="M103.865,49.824,130.1,84.773l-25.192,14.72L88.6,56.3Z" transform="translate(90.373 50.821)" fill="#fd8753"/>
          <path id="Trazado_213502" data-name="Trazado 213502" d="M113.449,49.732a.476.476,0,0,1-.166-.028l-3.117-1.085a.5.5,0,0,1,.331-.953l3.117,1.087a.5.5,0,0,1-.166.98" transform="translate(112.025 48.594)"/>
          <path id="Trazado_213503" data-name="Trazado 213503" d="M93.15,77.873s-.564-9.965-3.571-13.912-8.274-7.015-9.4-4.731,2.444,5.591,1.879,6.947-4.323.675-9.963-1.335-9.4-8.537-9.4-8.537a10.318,10.318,0,0,0-.753,4.937,11,11,0,0,0,1.129,3.6s-1.2-2.709-1.2,2.248a6.092,6.092,0,0,0,2.143,4.228s-1.691,2.042,1.881,6.555S79.426,86.52,79.426,86.52s11.092,27.074,29.329,34.219a37.073,37.073,0,0,0,32.526-2.444l-5.64-29.706S116.087,95.546,93.15,77.873" transform="translate(63.1 57.432)" fill="#fd8753"/>
          <path id="Trazado_213504" data-name="Trazado 213504" d="M71.835,66.913a.593.593,0,0,1-.1-.01c-4.474-.937-9.385-6.01-9.593-6.226a.5.5,0,0,1,.016-.715.512.512,0,0,1,.715.016c.046.05,4.9,5.062,9.068,5.935a.505.505,0,0,1-.1,1" transform="translate(63.239 61.022)"/>
          <path id="Trazado_213505" data-name="Trazado 213505" d="M70.3,68.09c-5.23-.877-7.432-3.672-7.525-3.792a.505.505,0,0,1,.8-.618c.022.026,2.079,2.608,6.809,3.408a.5.5,0,0,1-.085,1" transform="translate(63.928 64.756)"/>
          <path id="Trazado_213506" data-name="Trazado 213506" d="M144.153,102.69S119.913,135.36,100,171.635s-30.979,81.653-30.979,81.653l50.989,3.153L157.087,166.8l-10.9,88.444,49.31-1.725s10.672-82.109,4.983-120.839S188.117,85.8,188.117,85.8Z" transform="translate(70.402 87.514)" fill="#feca2e"/>
          <path id="Trazado_213507" data-name="Trazado 213507" d="M122.521,62.422a.5.5,0,0,1-.313-.111.5.5,0,0,1-.081-.707c7.979-10.046-2.491-18.816-2.939-19.184a.5.5,0,1,1,.638-.782c.119.1,11.692,9.765,3.089,20.592a.5.5,0,0,1-.394.192" transform="translate(121.383 42.354)" fill="#fff"/>
          <path id="Trazado_213508" data-name="Trazado 213508" d="M92.382,84.211S111.79,62.5,135.224,61.086s31.328,9.87,32.458,15.229,3.1,43.713,1.691,46.25-11.025,7.052-26.664,8.179-23.816-.846-24.945-1.693-2.537-12.69-2.537-12.69l-13.255,3.384Z" transform="translate(94.231 62.185)" fill="#fc4b52"/>
          <path id="Trazado_213509" data-name="Trazado 213509" d="M118.123,56.088s-6.6,14.847.269,20.733S135.473,78.9,135.473,78.9s3.446,2.208,10.033-.022a19.077,19.077,0,0,0,9.807-8.337Z" transform="translate(117.576 57.21)" fill="#12263f"/>
          <path id="Trazado_213510" data-name="Trazado 213510" d="M113.177,60.249s-6.589-10.338-9.9-12.611-21.774-9.532-23.6-7.759,8.969,9.177,8.969,9.177a3.27,3.27,0,0,0-2.309,1.9,3.428,3.428,0,0,0,.362,2.711s-2.3-.077-2.949,1.483a4.046,4.046,0,0,0,.418,3.274s4.242,7.745,6.652,7.91,2.095-4.117,2.095-4.117.879,3.907,2.982,6.058,6.416,2.378,10.878.026,6.4-8.05,6.4-8.05" transform="translate(81.062 40.396)" fill="#fd8753"/>
          <path id="Trazado_213511" data-name="Trazado 213511" d="M100.531,60.925c-5.06-.531-6.751-5.793-7.167-7.482-1.685.335-5.317.885-6.288-.36a1.433,1.433,0,0,1-.026-1.618c1.489-2.967,7.751-5.725,8.017-5.84a.505.505,0,0,1,.4.927c-.061.026-6.189,2.721-7.516,5.367-.089.18-.176.418-.079.543.477.61,3.365.418,5.769-.109a.506.506,0,0,1,.606.4c.01.065,1.248,6.622,6.335,7.159a.505.505,0,0,1-.053,1.008" transform="translate(88.558 46.497)"/>
          <path id="Trazado_213512" data-name="Trazado 213512" d="M91.193,52.928a.486.486,0,0,1-.158-.026c-3.274-1.073-7.048-7.832-7.207-8.118a.5.5,0,1,1,.883-.489c.038.067,3.739,6.7,6.64,7.65a.5.5,0,0,1-.158.984" transform="translate(85.441 44.915)"/>
          <path id="Trazado_213513" data-name="Trazado 213513" d="M90.963,56.255c-3.141,0-7.6-8.252-8.1-9.2a.505.505,0,1,1,.893-.473c1.784,3.371,5.3,8.664,7.2,8.664a1.9,1.9,0,0,0,1.513-.636,2.69,2.69,0,0,0,.309-1.919.506.506,0,0,1,.988-.22,3.682,3.682,0,0,1-.491,2.747,2.811,2.811,0,0,1-2.214,1.036l-.091,0" transform="translate(84.457 47.242)"/>
          <path id="Trazado_213514" data-name="Trazado 213514" d="M104.012,94.436a.52.52,0,0,1-.5-.473c-.149-2.311-.5-9.926,1.151-10.88a1.029,1.029,0,0,1,1.135.087c2.479,1.652-.665,9.419-1.319,10.959a.506.506,0,0,1-.467.307m1.226-10.425c-.612.24-.923,3.521-.826,7.484,1.113-3.2,1.881-6.779.826-7.484" transform="translate(105.443 84.614)" fill="#fff"/>
          <path id="Trazado_213515" data-name="Trazado 213515" d="M121.186,104.188a91.5,91.5,0,0,1-13.6-.976.505.505,0,0,1,.162-1c.313.051,31.617,4.977,45.693-8.741a.5.5,0,0,1,.7.723c-8.444,8.23-22.487,9.991-32.954,9.991" transform="translate(109.301 95.199)" fill="#fff"/>
          <path id="Trazado_213516" data-name="Trazado 213516" d="M112.761,136.379a.5.5,0,0,1-.436-.76c.071-.121,7.331-12.328,26.1-19.465a.5.5,0,0,1,.36.943c-18.41,7-25.515,18.909-25.585,19.031a.506.506,0,0,1-.436.25" transform="translate(114.503 118.442)" fill="#fff"/>
          <path id="Trazado_213517" data-name="Trazado 213517" d="M141.218,123.6a13.627,13.627,0,0,1-9.765-3.549c-5.008-4.767-4.935-12.53-4.929-12.857a.5.5,0,0,1,.317-.463l12.439-4.943a.506.506,0,0,1,.376.939l-12.116,4.816c.044,1.515.489,7.858,4.614,11.781,2.549,2.424,6.05,3.5,10.419,3.22a.467.467,0,0,1,.537.471.5.5,0,0,1-.471.537c-.483.032-.96.048-1.422.048" transform="translate(129.056 103.788)" fill="#fff"/>
          <path id="Trazado_213518" data-name="Trazado 213518" d="M112.426,126.8a10.676,10.676,0,0,1-1.7-.141,7.07,7.07,0,0,1-5.315-3.543c-3.656-6.466,1.345-19.105,1.557-19.639a.519.519,0,0,1,.62-.3l18.827,5.834a.508.508,0,0,1,.345.586c-.038.18-3.668,17.2-14.332,17.2m-4.686-22.513c-.844,2.279-4.509,12.926-1.452,18.332a6.112,6.112,0,0,0,4.6,3.042c10.076,1.626,14.106-13.049,14.778-15.821Z" transform="translate(106.158 105.222)" fill="#fff"/>
          <path id="Trazado_213519" data-name="Trazado 213519" d="M83.445,104.221H33.058a3.948,3.948,0,0,1-3.949-3.949V77.335a3.948,3.948,0,0,1,3.949-3.947H83.445a3.948,3.948,0,0,1,3.947,3.947v22.937a3.948,3.948,0,0,1-3.947,3.949" transform="translate(29.692 74.857)" fill="#98791b"/>
          <path id="Trazado_213520" data-name="Trazado 213520" d="M45.119,81.15,63.543,67.99,59.033,81.15Z" transform="translate(46.022 69.351)" fill="#98791b"/>
          <rect id="Rectángulo_88729" data-name="Rectángulo 88729" width="6.393" height="18.802" transform="translate(69.377 154.26)" fill="#fff"/>
          <rect id="Rectángulo_88730" data-name="Rectángulo 88730" width="6.393" height="15.417" transform="translate(79.623 157.646)" fill="#fff"/>
          <rect id="Rectángulo_88731" data-name="Rectángulo 88731" width="6.393" height="9.401" transform="translate(89.87 163.661)" fill="#fff"/>
          <path id="Trazado_213521" data-name="Trazado 213521" d="M124.581,18.213l-4.533.945a1.508,1.508,0,0,0-.545-.97,1.623,1.623,0,0,0-1.054-.364,1.572,1.572,0,0,0-1.115.461,1.509,1.509,0,0,0-.485,1.139.973.973,0,0,0,.267.679,1.366,1.366,0,0,0,.533.351c.226.089.711.24,1.454.448q.1.024.691.194t.739.218l.654.218a4.149,4.149,0,0,1,.715.291q.206.121.618.339a2.684,2.684,0,0,1,.642.448q.23.23.521.545a4.135,4.135,0,0,1,.509.679,6.219,6.219,0,0,1,1.067,3.612,6.068,6.068,0,0,1-1.539,4.084,6.919,6.919,0,0,1-3.818,2.291V35.69H116.97V33.824a6.788,6.788,0,0,1-3.5-2.012,6.155,6.155,0,0,1-1.709-3.563l4.678-.8a1.821,1.821,0,0,0,.521,1.345,2.017,2.017,0,0,0,1.491.521,2.239,2.239,0,0,0,1.515-.533,1.689,1.689,0,0,0,.618-1.333,1.443,1.443,0,0,0-.412-1.067,5.125,5.125,0,0,0-2.4-1.067q-.776-.194-1.273-.364t-1.164-.473a4.746,4.746,0,0,1-1.188-.764,4.8,4.8,0,0,1-.909-1.091,5.734,5.734,0,0,1-1.067-3.2,6.12,6.12,0,0,1,1.357-3.915,6.031,6.031,0,0,1,3.442-2.194V11.45H119.9v1.866a6.019,6.019,0,0,1,3.091,1.745,5.935,5.935,0,0,1,1.588,3.151" transform="translate(113.994 11.679)" fill="#85b638"/>
          <path id="Trazado_213522" data-name="Trazado 213522" d="M59.593,81.807l-3.646.762a1.214,1.214,0,0,0-.44-.78,1.3,1.3,0,0,0-.848-.293,1.26,1.26,0,0,0-.895.37,1.214,1.214,0,0,0-.392.917.78.78,0,0,0,.216.545,1.08,1.08,0,0,0,.428.283c.182.073.572.192,1.17.362.053.012.238.065.556.156s.517.149.6.176l.525.176a3.288,3.288,0,0,1,.576.232c.111.067.277.158.5.275a2.144,2.144,0,0,1,.517.36c.123.125.265.271.42.44a3.379,3.379,0,0,1,.41.545,5,5,0,0,1,.856,2.9A4.878,4.878,0,0,1,58.9,92.523a5.557,5.557,0,0,1-3.07,1.842v1.5H53.471v-1.5a5.449,5.449,0,0,1-2.818-1.618,4.954,4.954,0,0,1-1.376-2.866l3.765-.644a1.458,1.458,0,0,0,.418,1.083,1.622,1.622,0,0,0,1.2.418,1.8,1.8,0,0,0,1.22-.428,1.358,1.358,0,0,0,.5-1.073,1.158,1.158,0,0,0-.331-.858,4.13,4.13,0,0,0-1.931-.856c-.416-.105-.755-.2-1.022-.293s-.58-.218-.937-.38a3.8,3.8,0,0,1-.955-.616,3.881,3.881,0,0,1-.731-.877,4.62,4.62,0,0,1-.859-2.573A4.924,4.924,0,0,1,50.7,79.633a4.848,4.848,0,0,1,2.769-1.765v-1.5H55.83v1.5a4.849,4.849,0,0,1,2.487,1.4,4.782,4.782,0,0,1,1.277,2.535" transform="translate(50.263 77.895)" fill="#fff"/>
          <path id="Trazado_213523" data-name="Trazado 213523" d="M29.5,42.848l-3.755.784a1.249,1.249,0,0,0-.452-.8,1.351,1.351,0,0,0-.873-.3,1.3,1.3,0,0,0-.925.382,1.255,1.255,0,0,0-.4.943.8.8,0,0,0,.222.562,1.116,1.116,0,0,0,.442.293c.188.073.588.2,1.2.372.055.012.244.067.572.16s.533.154.614.182l.541.18a3.48,3.48,0,0,1,.592.24c.115.069.285.162.513.283a2.128,2.128,0,0,1,.531.372c.127.127.273.277.432.45a3.447,3.447,0,0,1,.422.564,5.145,5.145,0,0,1,.883,2.992,5.023,5.023,0,0,1-1.275,3.384,5.747,5.747,0,0,1-3.163,1.9v1.545H23.2V55.783a5.619,5.619,0,0,1-2.9-1.669,5.093,5.093,0,0,1-1.416-2.951l3.876-.663a1.515,1.515,0,0,0,.43,1.115,1.68,1.68,0,0,0,1.236.43,1.851,1.851,0,0,0,1.254-.44,1.4,1.4,0,0,0,.513-1.1,1.2,1.2,0,0,0-.341-.885,4.272,4.272,0,0,0-1.99-.883q-.642-.161-1.054-.3t-.964-.392a3.87,3.87,0,0,1-.984-.632,3.984,3.984,0,0,1-.753-.9,4.742,4.742,0,0,1-.883-2.65,5.067,5.067,0,0,1,1.123-3.242A5,5,0,0,1,23.2,38.792V37.247h2.43v1.545a4.989,4.989,0,0,1,2.561,1.446,4.908,4.908,0,0,1,1.315,2.61" transform="translate(19.259 37.992)" fill="#85b638"/>
          <path id="Trazado_213524" data-name="Trazado 213524" d="M111.637,50.632c-.139.7-.594,1.2-1.018,1.121s-.654-.721-.515-1.424.594-1.2,1.018-1.121.654.721.515,1.424" transform="translate(112.265 50.183)"/>
          <path id="Trazado_213525" data-name="Trazado 213525" d="M109.121,50.569c-.139.7-.594,1.2-1.018,1.121s-.654-.721-.515-1.424.594-1.2,1.018-1.121.654.721.515,1.424" transform="translate(109.699 50.119)"/>
          <path id="Trazado_213526" data-name="Trazado 213526" d="M137.8,33.213,134.045,34a1.249,1.249,0,0,0-.452-.8,1.351,1.351,0,0,0-.873-.3,1.3,1.3,0,0,0-.925.382,1.255,1.255,0,0,0-.4.943.8.8,0,0,0,.222.562,1.138,1.138,0,0,0,.442.293c.188.073.588.2,1.2.372.055.012.244.067.572.16s.533.154.614.182l.541.18a3.478,3.478,0,0,1,.592.24c.115.069.285.162.513.283a2.128,2.128,0,0,1,.531.372c.127.127.273.277.432.45a3.447,3.447,0,0,1,.422.564,5.145,5.145,0,0,1,.883,2.992,5.022,5.022,0,0,1-1.275,3.384,5.747,5.747,0,0,1-3.163,1.9v1.545h-2.43V46.147a5.619,5.619,0,0,1-2.9-1.669,5.093,5.093,0,0,1-1.416-2.951l3.876-.663a1.515,1.515,0,0,0,.43,1.115,1.68,1.68,0,0,0,1.236.43,1.851,1.851,0,0,0,1.254-.44,1.4,1.4,0,0,0,.513-1.1,1.2,1.2,0,0,0-.341-.885,4.272,4.272,0,0,0-1.99-.883q-.642-.161-1.054-.3c-.275-.093-.594-.224-.964-.392a3.926,3.926,0,0,1-.984-.632,3.984,3.984,0,0,1-.753-.9,4.742,4.742,0,0,1-.883-2.65,5.067,5.067,0,0,1,1.123-3.242,5,5,0,0,1,2.852-1.818V27.609h2.43v1.547a4.989,4.989,0,0,1,2.561,1.446,4.908,4.908,0,0,1,1.315,2.61" transform="translate(129.722 28.161)" fill="#85b638"/>
          <path id="Trazado_213527" data-name="Trazado 213527" d="M110.142,42.848l-3.755.784a1.249,1.249,0,0,0-.452-.8,1.351,1.351,0,0,0-.873-.3,1.3,1.3,0,0,0-.925.382,1.255,1.255,0,0,0-.4.943.8.8,0,0,0,.222.562,1.116,1.116,0,0,0,.442.293c.188.073.588.2,1.2.372.053.012.244.067.572.16s.533.154.614.182l.541.18a3.48,3.48,0,0,1,.592.24c.115.069.285.162.513.283a2.128,2.128,0,0,1,.531.372c.127.127.273.277.432.45a3.449,3.449,0,0,1,.422.564A5.145,5.145,0,0,1,110.7,50.5a5.023,5.023,0,0,1-1.275,3.384,5.747,5.747,0,0,1-3.163,1.9v1.545h-2.43V55.783a5.619,5.619,0,0,1-2.9-1.669,5.093,5.093,0,0,1-1.416-2.951L103.4,50.5a1.515,1.515,0,0,0,.43,1.115,1.68,1.68,0,0,0,1.236.43,1.851,1.851,0,0,0,1.254-.44,1.4,1.4,0,0,0,.513-1.1,1.2,1.2,0,0,0-.341-.885,4.272,4.272,0,0,0-1.99-.883q-.642-.161-1.054-.3c-.275-.093-.594-.224-.964-.392a3.87,3.87,0,0,1-.984-.632,3.984,3.984,0,0,1-.753-.9,4.742,4.742,0,0,1-.883-2.65,5.067,5.067,0,0,1,1.123-3.242,5,5,0,0,1,2.852-1.818V37.247h2.43v1.545a4.989,4.989,0,0,1,2.561,1.446,4.908,4.908,0,0,1,1.315,2.61" transform="translate(101.51 37.992)" fill="#85b638"/>
          <path id="Trazado_213528" data-name="Trazado 213528" d="M81.041,5.6l-3.755.784a1.249,1.249,0,0,0-.452-.8,1.351,1.351,0,0,0-.873-.3,1.3,1.3,0,0,0-.925.382,1.255,1.255,0,0,0-.4.943.8.8,0,0,0,.222.562,1.116,1.116,0,0,0,.442.293c.188.073.588.2,1.2.372.055.012.244.067.572.16s.533.154.614.182l.541.18a3.481,3.481,0,0,1,.592.24c.115.069.285.162.513.283a2.128,2.128,0,0,1,.531.372c.127.127.273.277.432.45a3.446,3.446,0,0,1,.422.564,5.145,5.145,0,0,1,.883,2.992,5.023,5.023,0,0,1-1.275,3.384,5.747,5.747,0,0,1-3.163,1.9v1.545h-2.43V18.537a5.619,5.619,0,0,1-2.9-1.669,5.093,5.093,0,0,1-1.416-2.951l3.876-.663a1.515,1.515,0,0,0,.43,1.115,1.68,1.68,0,0,0,1.236.43,1.851,1.851,0,0,0,1.254-.44,1.4,1.4,0,0,0,.513-1.1,1.2,1.2,0,0,0-.341-.885,4.272,4.272,0,0,0-1.99-.883q-.642-.161-1.054-.3c-.275-.093-.594-.224-.964-.392a3.87,3.87,0,0,1-.984-.632,3.983,3.983,0,0,1-.753-.9,4.742,4.742,0,0,1-.883-2.65,5.067,5.067,0,0,1,1.123-3.242,5,5,0,0,1,2.852-1.818V0h2.43V1.546a4.989,4.989,0,0,1,2.561,1.446A4.908,4.908,0,0,1,81.041,5.6" transform="translate(71.827 0.001)" fill="#85b638"/>
          <path id="Trazado_213529" data-name="Trazado 213529" d="M10.623,22.107l-3.755.784a1.249,1.249,0,0,0-.452-.8,1.351,1.351,0,0,0-.873-.3,1.3,1.3,0,0,0-.925.382,1.255,1.255,0,0,0-.4.943.8.8,0,0,0,.222.562,1.116,1.116,0,0,0,.442.293c.188.073.588.2,1.2.372.053.012.244.067.572.16s.533.154.614.182l.541.18a3.48,3.48,0,0,1,.592.24c.115.069.285.162.513.283a2.128,2.128,0,0,1,.531.372c.127.127.273.277.432.45a3.447,3.447,0,0,1,.422.564,5.145,5.145,0,0,1,.883,2.992A5.023,5.023,0,0,1,9.91,33.143a5.747,5.747,0,0,1-3.163,1.9v1.545H4.317V35.042a5.619,5.619,0,0,1-2.9-1.669A5.093,5.093,0,0,1,0,30.422l3.876-.663a1.515,1.515,0,0,0,.43,1.115,1.68,1.68,0,0,0,1.236.43,1.851,1.851,0,0,0,1.254-.44,1.4,1.4,0,0,0,.513-1.1,1.2,1.2,0,0,0-.341-.885,4.272,4.272,0,0,0-1.99-.883q-.642-.161-1.054-.3c-.275-.093-.594-.224-.964-.392a3.87,3.87,0,0,1-.984-.632,3.984,3.984,0,0,1-.753-.9,4.742,4.742,0,0,1-.883-2.65,5.067,5.067,0,0,1,1.123-3.242,5,5,0,0,1,2.852-1.818V16.506h2.43v1.545A4.989,4.989,0,0,1,9.308,19.5a4.908,4.908,0,0,1,1.315,2.61" transform="translate(0 16.836)" fill="#85b638"/>
          <path id="Trazado_213530" data-name="Trazado 213530" d="M147.786,80.107l-3.757.784a1.241,1.241,0,0,0-.452-.8,1.351,1.351,0,0,0-.873-.3,1.3,1.3,0,0,0-.925.382,1.255,1.255,0,0,0-.4.943.8.8,0,0,0,.222.562,1.116,1.116,0,0,0,.442.293c.19.073.588.2,1.2.372.053.012.244.067.572.16s.533.154.614.182l.541.18a3.476,3.476,0,0,1,.592.24c.115.069.285.162.515.283a2.207,2.207,0,0,1,.531.372c.125.127.271.277.43.45a3.445,3.445,0,0,1,.422.564,5.146,5.146,0,0,1,.885,2.992,5.025,5.025,0,0,1-1.277,3.384,5.747,5.747,0,0,1-3.163,1.9v1.545h-2.43V93.042a5.619,5.619,0,0,1-2.9-1.669,5.093,5.093,0,0,1-1.416-2.951l3.876-.663a1.515,1.515,0,0,0,.43,1.115,1.68,1.68,0,0,0,1.236.43,1.851,1.851,0,0,0,1.254-.44,1.4,1.4,0,0,0,.513-1.1,1.2,1.2,0,0,0-.341-.885,4.272,4.272,0,0,0-1.99-.883q-.642-.161-1.054-.3c-.275-.093-.592-.224-.964-.392a3.84,3.84,0,0,1-1.735-1.537,4.729,4.729,0,0,1-.885-2.65,5.067,5.067,0,0,1,1.123-3.242,5.008,5.008,0,0,1,2.852-1.818V74.506h2.43v1.545a5,5,0,0,1,2.563,1.446,4.936,4.936,0,0,1,1.315,2.61" transform="translate(139.906 75.997)" fill="#85b638"/>
          <path id="Trazado_213531" data-name="Trazado 213531" d="M93.4,99.629l-5.494,1.147a1.82,1.82,0,0,0-.661-1.176,1.961,1.961,0,0,0-1.279-.442,1.909,1.909,0,0,0-1.351.56,1.826,1.826,0,0,0-.588,1.38,1.176,1.176,0,0,0,.325.822,1.653,1.653,0,0,0,.644.428c.275.107.863.289,1.763.541q.118.03.836.236c.481.137.78.224.9.265l.794.265a5.165,5.165,0,0,1,.867.351c.166.1.416.236.749.412a3.226,3.226,0,0,1,.778.543q.279.279.632.661a5.047,5.047,0,0,1,.616.822,7.536,7.536,0,0,1,1.293,4.379,7.359,7.359,0,0,1-1.864,4.949,8.38,8.38,0,0,1-4.628,2.775v2.264H84.176v-2.264a8.213,8.213,0,0,1-4.244-2.438,7.453,7.453,0,0,1-2.073-4.317l5.672-.97a2.2,2.2,0,0,0,.63,1.63,2.447,2.447,0,0,0,1.806.63,2.7,2.7,0,0,0,1.836-.646,2.04,2.04,0,0,0,.749-1.614,1.749,1.749,0,0,0-.5-1.295,6.237,6.237,0,0,0-2.909-1.291c-.626-.158-1.141-.305-1.541-.442s-.873-.327-1.412-.572a5.643,5.643,0,0,1-2.539-2.248,6.933,6.933,0,0,1-1.295-3.878A7.422,7.422,0,0,1,80,96.353a7.314,7.314,0,0,1,4.171-2.658v-2.26h3.555v2.26a7.314,7.314,0,0,1,3.745,2.115,7.188,7.188,0,0,1,1.925,3.82" transform="translate(79.417 93.264)" fill="#85b638"/>
        </g>
      </g>
    </g>
  </g>
</svg>
