<svg xmlns="http://www.w3.org/2000/svg" xmlns:xlink="http://www.w3.org/1999/xlink" width="304.073" height="254.021" viewBox="0 0 304.073 254.021">
  <defs>
    <clipPath id="clip-path">
      <rect id="Rectángulo_88748" data-name="Rectángulo 88748" width="304" height="239" transform="translate(800 894)" fill="#feca2e"/>
    </clipPath>
    <clipPath id="clip-path-2">
      <rect id="Rectángulo_88747" data-name="Rectángulo 88747" width="266.407" height="238.503" fill="none"/>
    </clipPath>
  </defs>
  <g id="Grupo_140838" data-name="Grupo 140838" transform="translate(-804 -894)">
    <g id="Grupo_138597" data-name="Grupo 138597" transform="translate(624)">
      <g id="Grupo_132121" data-name="Grupo 132121" transform="translate(180 894)">
        <g id="Grupo_132115" data-name="Grupo 132115" transform="translate(0 0)">
          <rect id="Rectángulo_44113" data-name="Rectángulo 44113" width="304" height="33.139" transform="translate(0.072)" fill="#fff"/>
          <g id="Image_Place_Holder" data-name="Image Place Holder" transform="translate(0 32.838)">
            <rect id="Image_Place_Holder-2" data-name="Image Place Holder-2" width="303.554" height="206.345" fill="#e0f6be"/>
          </g>
        </g>
      </g>
      <rect id="Rectángulo_41167" data-name="Rectángulo 41167" width="304.072" height="15" rx="5" transform="translate(180 1133.021)" fill="#a7e446"/>
    </g>
    <g id="Enmascarar_grupo_117522" data-name="Enmascarar grupo 117522" transform="translate(4)" clip-path="url(#clip-path)">
      <g id="Grupo_138612" data-name="Grupo 138612" transform="translate(822 894.497)">
        <g id="Grupo_138611" data-name="Grupo 138611" clip-path="url(#clip-path-2)">
          <path id="Trazado_213532" data-name="Trazado 213532" d="M98.644,71.3v53.539a3.187,3.187,0,0,0,3.377,2.955H209.457a3.184,3.184,0,0,0,3.366-2.955V71.3a3.184,3.184,0,0,0-3.366-2.955H102.021A3.187,3.187,0,0,0,98.644,71.3" transform="translate(53.584 37.124)" fill="#972d31"/>
          <path id="Trazado_213533" data-name="Trazado 213533" d="M98.644,72.3v4.2H212.823V72.3c0-2.182-1.509-3.958-3.366-3.958H102.021A3.7,3.7,0,0,0,98.644,72.3" transform="translate(53.584 37.124)" fill="#fff"/>
          <path id="Trazado_213534" data-name="Trazado 213534" d="M159.235,71.667a1.939,1.939,0,1,0,1.94-1.94,1.939,1.939,0,0,0-1.94,1.94" transform="translate(86.498 37.876)" fill="#feca2e"/>
          <path id="Trazado_213535" data-name="Trazado 213535" d="M163.261,71.667a1.939,1.939,0,1,0,1.94-1.94,1.939,1.939,0,0,0-1.94,1.94" transform="translate(88.685 37.876)" fill="#fc4b52"/>
          <path id="Trazado_213536" data-name="Trazado 213536" d="M167.286,71.667a1.939,1.939,0,1,0,1.94-1.94,1.939,1.939,0,0,0-1.94,1.94" transform="translate(90.871 37.876)" fill="#a7e446"/>
          <path id="Trazado_213537" data-name="Trazado 213537" d="M87.051,15.636V56.454a2.431,2.431,0,0,1-2.576,2.253H2.566A2.428,2.428,0,0,1,0,56.454V15.636a2.428,2.428,0,0,1,2.566-2.253H84.475a2.431,2.431,0,0,1,2.576,2.253" transform="translate(0 7.27)" fill="#64892a"/>
          <path id="Trazado_213538" data-name="Trazado 213538" d="M87.051,16.4v3.2H0V16.4a2.824,2.824,0,0,1,2.566-3.019H84.475A2.825,2.825,0,0,1,87.051,16.4" transform="translate(0 7.27)" fill="#fff"/>
          <path id="Trazado_213539" data-name="Trazado 213539" d="M11.255,15.918A1.478,1.478,0,1,1,9.776,14.44a1.479,1.479,0,0,1,1.478,1.478" transform="translate(4.508 7.844)" fill="#a7e446"/>
          <path id="Trazado_213540" data-name="Trazado 213540" d="M8.186,15.918A1.478,1.478,0,1,1,6.707,14.44a1.479,1.479,0,0,1,1.478,1.478" transform="translate(2.84 7.844)" fill="#fc4b52"/>
          <path id="Trazado_213541" data-name="Trazado 213541" d="M5.117,15.918A1.478,1.478,0,1,1,3.638,14.44a1.479,1.479,0,0,1,1.478,1.478" transform="translate(1.173 7.844)" fill="#feca2e"/>
          <rect id="Rectángulo_88734" data-name="Rectángulo 88734" width="30.948" height="24.816" transform="translate(173.909 121.995)" fill="#fc4b52"/>
          <rect id="Rectángulo_88735" data-name="Rectángulo 88735" width="30.948" height="24.816" transform="translate(197.702 132.341)" fill="#c93c41"/>
          <rect id="Rectángulo_88736" data-name="Rectángulo 88736" width="46.906" height="2.795" transform="translate(8.069 35.338)" fill="#a7e446"/>
          <rect id="Rectángulo_88737" data-name="Rectángulo 88737" width="46.906" height="2.795" transform="translate(8.069 42.765)" fill="#a7e446"/>
          <rect id="Rectángulo_88738" data-name="Rectángulo 88738" width="46.906" height="2.795" transform="translate(8.069 50.193)" fill="#a7e446"/>
          <rect id="Rectángulo_88739" data-name="Rectángulo 88739" width="19.676" height="17.526" transform="translate(60.123 35.461)" fill="#a7e446"/>
          <path id="Trazado_213542" data-name="Trazado 213542" d="M193.32,4.291V82.024c0,2.366-1.637,4.292-3.661,4.292H73.209c-2.011,0-3.648-1.926-3.648-4.292V4.291C69.561,1.925,71.2,0,73.209,0H189.66c2.023,0,3.661,1.924,3.661,4.29" transform="translate(37.786 0.001)" fill="#feca2e"/>
          <path id="Trazado_213543" data-name="Trazado 213543" d="M193.32,4.291V8.839H69.561V4.291C69.561,1.925,71.2,0,73.209,0H189.66c2.023,0,3.661,1.924,3.661,4.29" transform="translate(37.786 0.001)" fill="#fff"/>
          <path id="Trazado_213544" data-name="Trazado 213544" d="M85.562,3.6a2.1,2.1,0,1,1-2.1-2.1,2.1,2.1,0,0,1,2.1,2.1" transform="translate(44.194 0.816)" fill="#a7e446"/>
          <path id="Trazado_213545" data-name="Trazado 213545" d="M81.2,3.6a2.1,2.1,0,1,1-2.1-2.1,2.1,2.1,0,0,1,2.1,2.1" transform="translate(41.824 0.816)" fill="#fc4b52"/>
          <path id="Trazado_213546" data-name="Trazado 213546" d="M76.836,3.6a2.1,2.1,0,1,1-2.1-2.1,2.1,2.1,0,0,1,2.1,2.1" transform="translate(39.454 0.816)" fill="#feca2e"/>
          <rect id="Rectángulo_88740" data-name="Rectángulo 88740" width="60.85" height="5.032" transform="translate(156.404 35.852)" fill="#cba124"/>
          <rect id="Rectángulo_88741" data-name="Rectángulo 88741" width="60.85" height="5.032" transform="translate(156.404 25.224)" fill="#cba124"/>
          <rect id="Rectángulo_88742" data-name="Rectángulo 88742" width="60.85" height="5.032" transform="translate(156.404 46.154)" fill="#cba124"/>
          <rect id="Rectángulo_88743" data-name="Rectángulo 88743" width="27.955" height="27.955" transform="translate(122.464 24.392)" fill="#98791b"/>
          <path id="Trazado_213547" data-name="Trazado 213547" d="M81.329,135.363s1.417,17.21.91,17.818-41.4,12.755-41.4,12.755l5.468-24.9,9.111-16.806Z" transform="translate(22.182 67.481)" fill="#85b638"/>
          <path id="Trazado_213548" data-name="Trazado 213548" d="M65.413,78.191s-15.448.267-18.244,0,0-2.264,0-2.264-5.326-.532-3.461-2S63.183,72.143,67.144,72.7s9.721,1.36,9.721,1.36Z" transform="translate(23.527 39.352)" fill="#fd8753"/>
          <path id="Trazado_213549" data-name="Trazado 213549" d="M120.554,69.374s-9.318.364-11.715,1.164-19.309,9.909-22.372,9.909S70.755,72.4,70.755,72.4L52.111,83.055s11.585,23.7,30.1,25.835,25.7-5.46,25.7-5.46Z" transform="translate(28.307 37.685)" fill="#64892a"/>
          <path id="Trazado_213550" data-name="Trazado 213550" d="M45.947,76.258a.392.392,0,0,0,.137-.025A37.561,37.561,0,0,1,54.9,74.127a.385.385,0,0,0,.077-.756l-2.931-.81a.38.38,0,0,0-.474.269.385.385,0,0,0,.269.474l1.039.289a42.062,42.062,0,0,0-7.066,1.92.386.386,0,0,0,.137.747" transform="translate(24.749 39.407)"/>
          <path id="Trazado_213551" data-name="Trazado 213551" d="M72.957,83.79c-.9-1.326,1.465-6.293,1.949-7.275a.386.386,0,0,1,.73.131c.054.551.5,5.418-.823,7a1.4,1.4,0,0,1-.977.534c-.034,0-.068,0-.1,0a.9.9,0,0,1-.779-.394m.639-.434c.015.023.04.059.179.054a.636.636,0,0,0,.446-.259c.7-.835.793-3.187.741-4.921-1,2.281-1.722,4.6-1.366,5.127" transform="translate(39.521 41.446)" fill="#fff"/>
          <path id="Trazado_213552" data-name="Trazado 213552" d="M145.418,167.762H82.61a6.177,6.177,0,0,1-6.177-6.177V136.4a6.177,6.177,0,0,1,6.177-6.176h62.807A6.178,6.178,0,0,1,151.6,136.4v25.182a6.178,6.178,0,0,1-6.177,6.177" transform="translate(41.519 70.74)" fill="#64892a"/>
          <path id="Trazado_213553" data-name="Trazado 213553" d="M107.471,69.914S98.284,68.048,91.8,73.582s-10.122,47.782-10.122,47.782,21.707,11.744,40.21,11.744,16.873-.843,16.873-.843l4.312-17.144Z" transform="translate(44.37 37.813)" fill="#64892a"/>
          <path id="Trazado_213554" data-name="Trazado 213554" d="M141.747,167.762H78.939a6.177,6.177,0,0,1-6.177-6.177V136.4a6.177,6.177,0,0,1,6.177-6.176h62.807a6.177,6.177,0,0,1,6.177,6.176v25.182a6.177,6.177,0,0,1-6.177,6.177" transform="translate(39.525 70.74)" fill="#85b638"/>
          <path id="Trazado_213555" data-name="Trazado 213555" d="M46.79,134.74S16.869,150.8,13.035,152.993s-6.137,9.139-4.62,10.418,50.869.731,54.707,0,6.58-18.644,6.58-18.644Z" transform="translate(4.315 73.192)" fill="#a7e446"/>
          <path id="Trazado_213556" data-name="Trazado 213556" d="M30.388,146.116a.392.392,0,0,1-.137-.025c-.435-.165-10.657-4.1-9.83-10.159.13-.943.5-1.494,1.108-1.639,1.492-.353,4.006,2.289,5.949,4.687-1.335-2.975-2.736-6.864-1.924-8.656a1.7,1.7,0,0,1,1.221-.992,1.914,1.914,0,0,1,1.573.36c2.94,2.123,4.062,12.708,4.11,13.157a.385.385,0,0,1-.346.423.372.372,0,0,1-.423-.343c-.307-2.968-1.585-11.017-3.793-12.611a1.136,1.136,0,0,0-.954-.232.92.92,0,0,0-.685.557c-.991,2.185,2.392,9.23,3.778,11.759a.385.385,0,0,1-.134.514.39.39,0,0,1-.52-.11c-2.361-3.42-6.27-8.066-7.671-7.764-.33.079-.466.585-.522.994-.745,5.449,9.238,9.293,9.34,9.332a.386.386,0,0,1-.137.747" transform="translate(11.067 70.23)" fill="#ffb700"/>
          <path id="Trazado_213557" data-name="Trazado 213557" d="M113.867,105.14S84.175,78.507,67.124,82.759s-18.346,22.056-21.381,42.1-3.989,34.7-3.989,34.7l40.8.81,2.424-35.026,43.6-13.566Z" transform="translate(22.681 44.706)" fill="#feca2e"/>
          <path id="Trazado_213558" data-name="Trazado 213558" d="M167.118,121.52s-2.634,21.813-11.66,28.292-24.556,4.458-39.636-3.772c-14.84-8.1-19.215-11.1-20.907-11.1s-31.1,40.736-31.1,40.736L29.487,157.747S55.649,94.539,77.326,89.861C98.3,85.337,145.408,115,145.408,115Z" transform="translate(16.018 48.558)" fill="#feca2e"/>
          <path id="Trazado_213559" data-name="Trazado 213559" d="M108.275,53.737s12.3-3.3,16.756,5.031.613,42.14.613,42.14l-18.89-12.42.4-16.761Z" transform="translate(57.989 28.84)" fill="#12263f"/>
          <path id="Trazado_213560" data-name="Trazado 213560" d="M96.721,88.229l-14.4,12.795s20.471,32.153,49.625,27.023,16.329-32.13,11.474-39.414C135.864,77.3,126.606,70.819,118.3,70.242S96.721,88.229,96.721,88.229" transform="translate(44.719 38.149)" fill="#64892a"/>
          <path id="Trazado_213561" data-name="Trazado 213561" d="M109.951,65.984l-.225,8.957s-1.679,2.534-6.929,2.829c-3.912.219-5.1-1.816-5.1-1.816l1.142-7.815,9.514-1.843Z" transform="translate(53.071 35.843)" fill="#fd8753"/>
          <path id="Trazado_213562" data-name="Trazado 213562" d="M108.18,66.185a2.97,2.97,0,0,1-.282.858c-2.116,4.423-7.619,5.25-9.878,5.4l.647-4.409Z" transform="translate(53.245 35.952)"/>
          <path id="Trazado_213563" data-name="Trazado 213563" d="M98.758,55.242s-4.983,11.113-3.285,17.4,7.417,5.355,10.846,4.176a11.322,11.322,0,0,0,5.035-3.261,4.819,4.819,0,0,0,5.346-1.835c2.164-2.948.881-6.369-.934-7.167s-4,.5-4,.5l1.73-3.227s-6.989-16.548-14.742-6.58" transform="translate(51.67 28.273)" fill="#fd8753"/>
          <path id="Trazado_213564" data-name="Trazado 213564" d="M103.009,58.677a.387.387,0,0,1-.336-.2,1.767,1.767,0,0,0-1.068-.924,2.2,2.2,0,0,0-1.481.262.386.386,0,0,1-.409-.654,2.943,2.943,0,0,1,2.074-.356,2.5,2.5,0,0,1,1.557,1.295.385.385,0,0,1-.336.574" transform="translate(54.068 30.821)"/>
          <path id="Trazado_213565" data-name="Trazado 213565" d="M96.587,57.739a.4.4,0,0,1-.16-.034.387.387,0,0,1-.191-.512,1.094,1.094,0,0,1,.713-.628,2.533,2.533,0,0,1,1.784.471.386.386,0,0,1-.438.636,1.808,1.808,0,0,0-1.14-.363.32.32,0,0,0-.216.205.382.382,0,0,1-.35.225" transform="translate(52.257 30.702)"/>
          <path id="Trazado_213568" data-name="Trazado 213568" d="M97.842,64.83a.387.387,0,0,1-.384-.352,11.2,11.2,0,0,1,1.11-5,.382.382,0,0,1,.515-.177.385.385,0,0,1,.177.515,10.617,10.617,0,0,0-1.034,4.6.386.386,0,0,1-.35.418l-.034,0" transform="translate(52.928 32.19)"/>
          <path id="Trazado_213569" data-name="Trazado 213569" d="M99.6,65.986a.386.386,0,0,1-.086-.762,3.976,3.976,0,0,0,2.571-1.894.394.394,0,0,1,.5-.216.387.387,0,0,1,.215.5c-.718,1.8-3.019,2.34-3.116,2.361a.412.412,0,0,1-.086.009" transform="translate(53.897 34.27)"/>
          <path id="Trazado_213570" data-name="Trazado 213570" d="M106.265,64.894a.378.378,0,0,1-.3-.142.385.385,0,0,1,.054-.543l3.608-2.938a.386.386,0,0,1,.488.6l-3.608,2.938a.384.384,0,0,1-.244.086" transform="translate(57.515 33.236)"/>
          <path id="Trazado_213571" data-name="Trazado 213571" d="M109.394,64.25a.371.371,0,0,1-.17-.04L106.977,63.1a.385.385,0,1,1,.34-.691l2.247,1.108a.385.385,0,0,1-.17.731" transform="translate(57.993 33.88)"/>
          <path id="Trazado_213572" data-name="Trazado 213572" d="M110.973,65.845a10.065,10.065,0,0,1-6.361-3.67,26.428,26.428,0,0,1-3.577-6.551A4.877,4.877,0,0,0,98.3,57.2c-.787.963-1.716,2.364-1.716,2.364s-.051-4.519,2.242-6.716,4.236-1.412,4.236-1.412a8.837,8.837,0,0,1,10.051,1.747c5.036,4.54,2.583,12.665,2.583,12.665a6.525,6.525,0,0,0-4.727,0" transform="translate(52.467 27.477)" fill="#12263f"/>
          <path id="Trazado_213573" data-name="Trazado 213573" d="M97.382,70.422s.14-3.8-1.076-5.1-2.15.657-2.15.657-1.082-3.705-2.295-2.576S90.234,67.1,90.234,67.1s-2.15-1.6-2.965,1.579S86.32,76.5,83.224,79.438s-5.807,9.79-3.512,15.537,6.608,5.965,6.608,5.965l8.1-8.54s-1.554-5.443.873-7.4,5.1-3.225,5.571-7.721c.184-1.7-3.486-6.858-3.486-6.858M95.906,79.3l.779-4.046c2.427,3.231-.779,4.046-.779,4.046" transform="translate(42.834 34.324)" fill="#fd8753"/>
          <path id="Trazado_213574" data-name="Trazado 213574" d="M90.039,77.281a.372.372,0,0,1-.128-.022.387.387,0,0,1-.236-.492,38.955,38.955,0,0,0,1.455-8.773.381.381,0,0,1,.4-.366.385.385,0,0,1,.367.4,39.048,39.048,0,0,1-1.5,8.991.384.384,0,0,1-.364.258" transform="translate(48.7 36.734)"/>
          <path id="Trazado_213575" data-name="Trazado 213575" d="M87.547,78.214a.374.374,0,0,1-.188-.049.386.386,0,0,1-.148-.525c2.242-4,1.477-12.667,1.469-12.753a.386.386,0,0,1,.35-.42.391.391,0,0,1,.418.349c.034.366.795,8.994-1.565,13.2a.386.386,0,0,1-.336.2" transform="translate(47.347 35.019)"/>
          <path id="Trazado_213576" data-name="Trazado 213576" d="M85.119,77.669a.384.384,0,0,1-.273-.113.388.388,0,0,1,0-.546c1.65-1.648,1.863-8.6,1.807-11.145a.386.386,0,1,1,.772-.017c.009.386.184,9.491-2.032,11.708a.384.384,0,0,1-.273.113" transform="translate(46.028 35.564)"/>
          <path id="Trazado_213577" data-name="Trazado 213577" d="M45.367,112.273a.381.381,0,0,1-.2-.054.388.388,0,0,1-.134-.529c.083-.139,8.387-13.932,19.816-20.585,12.59-7.327,42.327,7.617,43.586,8.258a.386.386,0,0,1-.349.688c-.307-.154-30.631-15.394-42.849-8.279C53.984,98.324,45.78,111.948,45.7,112.085a.385.385,0,0,1-.332.188" transform="translate(24.434 48.393)" fill="#fff"/>
          <path id="Trazado_213578" data-name="Trazado 213578" d="M72.469,122.58a.369.369,0,0,1-.1-.014.387.387,0,0,1-.262-.245c-.267-.769-2.551-7.557-.349-9.221a.889.889,0,0,1,1.341.116c1.145,1.438.63,8.429-.381,9.275a.386.386,0,0,1-.247.089m-.074-8.955a.349.349,0,0,0-.174.09c-1.179.892-.514,4.691.309,7.417.463-1.869.77-6.44-.039-7.44-.032-.039-.056-.066-.1-.066" transform="translate(38.463 61.301)" fill="#fff"/>
          <path id="Trazado_213580" data-name="Trazado 213580" d="M103.284,75.283A10.461,10.461,0,0,1,97,73.036a.386.386,0,1,1,.509-.58c.239.21,5.966,5.077,12.414-.818a.386.386,0,0,1,.522.569,10.464,10.464,0,0,1-7.156,3.076" transform="translate(52.617 38.86)" fill="#fff"/>
          <path id="Trazado_213581" data-name="Trazado 213581" d="M118.313,91.293a.371.371,0,0,1-.12-.02c-7.772-2.551-24.894-8.8-25.065-8.864a.386.386,0,1,1,.265-.725c.171.062,17.279,6.31,25.04,8.858a.386.386,0,0,1-.12.752" transform="translate(50.45 44.358)" fill="#fff"/>
          <path id="Trazado_213582" data-name="Trazado 213582" d="M117.08,90.53c-2.8,0-7.981-2.378-8.64-2.687a.386.386,0,0,1,.156-.736c1.489-.028,9-.1,10.174,1.576a.987.987,0,0,1,.113.957,1.267,1.267,0,0,1-.75.725,2.85,2.85,0,0,1-1.052.165m-6.637-2.653c2.461,1.017,6.113,2.29,7.4,1.772a.5.5,0,0,0,.318-.287.217.217,0,0,0-.025-.235c-.6-.861-4.5-1.2-7.694-1.25" transform="translate(58.784 47.312)" fill="#fff"/>
          <path id="Trazado_213583" data-name="Trazado 213583" d="M116.568,117.972c-6.98-.136-9.043-6.9-9.065-6.971a.386.386,0,0,1,.741-.218c.076.256,1.931,6.292,8.332,6.417a.386.386,0,0,1-.008.772" transform="translate(58.389 60.028)" fill="#fff"/>
          <path id="Trazado_213584" data-name="Trazado 213584" d="M43.695,72.837h62.855l-13.063-4.8H30.63Z" transform="translate(16.638 36.959)" fill="#636363"/>
          <rect id="Rectángulo_88744" data-name="Rectángulo 88744" width="63.12" height="2.634" transform="translate(60.068 109.795)" fill="#e8e8e8"/>
          <path id="Trazado_213585" data-name="Trazado 213585" d="M30.63,68.039v2.915l12.8,4.517V72.837Z" transform="translate(16.639 36.959)" fill="#464545"/>
          <path id="Trazado_213586" data-name="Trazado 213586" d="M96.872,79.9,85.014,46.883a1.036,1.036,0,0,0-.975-.685H25.432a1.036,1.036,0,0,0-.994,1.33L34.017,79.9Z" transform="translate(13.252 25.095)" fill="#afafaf"/>
          <path id="Trazado_213587" data-name="Trazado 213587" d="M86.892,73.17,78.084,48.644a.826.826,0,0,0-.778-.548H30.485a.828.828,0,0,0-.795,1.062l7.36,24.873a1.384,1.384,0,0,0,1.327.992H85.59a1.385,1.385,0,0,0,1.3-1.853" transform="translate(16.109 26.126)" fill="#dff7f9"/>
          <rect id="Rectángulo_88745" data-name="Rectángulo 88745" width="27.699" height="1.602" transform="translate(63.131 78.213)" fill="#fc4b52"/>
          <rect id="Rectángulo_88746" data-name="Rectángulo 88746" width="27.699" height="1.602" transform="translate(64.728 82.542)" fill="#fc4b52"/>
          <path id="Trazado_213588" data-name="Trazado 213588" d="M.5,0C.776,0,1,.448,1,1S.776,2,.5,2,0,1.552,0,1,.224,0,.5,0Z" transform="translate(149 89.503)"/>
          <path id="Trazado_213589" data-name="Trazado 213589" d="M.5,0C.776,0,1,.448,1,1S.776,2,.5,2,0,1.552,0,1,.224,0,.5,0Z" transform="translate(154 89.503)"/>
        </g>
      </g>
    </g>
  </g>
</svg>
