<svg xmlns="http://www.w3.org/2000/svg" xmlns:xlink="http://www.w3.org/1999/xlink" width="304.072" height="254.183" viewBox="0 0 304.072 254.183">
  <defs>
    <clipPath id="clip-path">
      <rect id="Rectángulo_88711" data-name="Rectángulo 88711" width="304" height="239" transform="translate(180 894)" fill="#fc4b52"/>
    </clipPath>
    <clipPath id="clip-path-2">
      <rect id="Rectángulo_88710" data-name="Rectángulo 88710" width="295.965" height="238.887" fill="none"/>
    </clipPath>
  </defs>
  <g id="Grupo_140836" data-name="Grupo 140836" transform="translate(-180 -894)">
    <rect id="Rectángulo_44113" data-name="Rectángulo 44113" width="304" height="33.139" transform="translate(180.072 894)" fill="#fff"/>
    <g id="Grupo_140835" data-name="Grupo 140835">
      <g id="Image_Place_Holder" data-name="Image Place Holder" transform="translate(180 926.838)">
        <rect id="Image_Place_Holder-2" data-name="Image Place Holder-2" width="303.554" height="206.345" fill="#e0f6be"/>
      </g>
      <g id="Grupo_140834" data-name="Grupo 140834">
        <g id="Enmascarar_grupo_117518" data-name="Enmascarar grupo 117518" clip-path="url(#clip-path)">
          <g id="Grupo_138600" data-name="Grupo 138600" transform="translate(184.373 894)">
            <g id="Grupo_138600-2" data-name="Grupo 138600" clip-path="url(#clip-path-2)">
              <path id="Trazado_213284" data-name="Trazado 213284" d="M190.112,112.982H128.254a3.59,3.59,0,0,1-3.317-3.8V76.784a3.589,3.589,0,0,1,3.317-3.8h61.858a3.589,3.589,0,0,1,3.317,3.8v32.394a3.59,3.59,0,0,1-3.317,3.8m-61.858-39.09a2.731,2.731,0,0,0-2.523,2.893v32.394a2.731,2.731,0,0,0,2.523,2.893h61.858a2.731,2.731,0,0,0,2.523-2.893V76.784a2.731,2.731,0,0,0-2.523-2.893Z" transform="translate(102.535 59.895)" fill="#64892a"/>
              <path id="Trazado_213285" data-name="Trazado 213285" d="M193.034,77.892h-67.7a.459.459,0,0,1,0-.91h67.7a.459.459,0,0,1,0,.91" transform="translate(102.535 63.179)" fill="#64892a"/>
              <path id="Trazado_213286" data-name="Trazado 213286" d="M158.064,78.084a.293.293,0,0,1-.25-.191.609.609,0,0,1,.073-.634l2.785-2.945c.139-.149.331-.1.428.1a.608.608,0,0,1-.072.635L158.241,78a.24.24,0,0,1-.177.086" transform="translate(129.471 60.918)" fill="#64892a"/>
              <path id="Trazado_213287" data-name="Trazado 213287" d="M160.85,78.085a.245.245,0,0,1-.179-.086l-2.785-2.946a.608.608,0,0,1-.072-.635c.1-.206.29-.253.428-.1l2.785,2.946a.609.609,0,0,1,.073.634.293.293,0,0,1-.25.191" transform="translate(129.471 60.918)" fill="#64892a"/>
              <path id="Trazado_213288" data-name="Trazado 213288" d="M72.9,72.319s11.762-2.356,14.378-6.012-4.668-13.439-4.668-13.439l-8.5,1.884-6.07,12.889Z" transform="translate(55.847 43.389)" fill="#fd8753"/>
              <path id="Trazado_213289" data-name="Trazado 213289" d="M73.841,30.781v84.613c0,2.574,1.782,4.67,3.986,4.67H204.582c2.188,0,3.971-2.1,3.971-4.67V30.781c0-2.574-1.782-4.67-3.971-4.67H77.827c-2.2,0-3.986,2.1-3.986,4.67" transform="translate(60.601 21.429)" fill="#a7e446"/>
              <path id="Trazado_213290" data-name="Trazado 213290" d="M73.841,30.781v4.95H208.553v-4.95c0-2.574-1.782-4.67-3.971-4.67H77.827c-2.2,0-3.986,2.1-3.986,4.67" transform="translate(60.601 21.429)" fill="#fff"/>
              <path id="Trazado_213291" data-name="Trazado 213291" d="M134.433,29.785a2.288,2.288,0,1,0,2.289-2.289,2.288,2.288,0,0,0-2.289,2.289" transform="translate(110.329 22.566)" fill="#ffb700"/>
              <path id="Trazado_213292" data-name="Trazado 213292" d="M138.459,29.785a2.288,2.288,0,1,0,2.289-2.289,2.289,2.289,0,0,0-2.289,2.289" transform="translate(113.633 22.566)" fill="#fc4b52"/>
              <path id="Trazado_213293" data-name="Trazado 213293" d="M142.484,29.785a2.288,2.288,0,1,0,2.289-2.289,2.289,2.289,0,0,0-2.289,2.289" transform="translate(116.936 22.566)" fill="#a7e446"/>
              <path id="Trazado_213294" data-name="Trazado 213294" d="M65.831,61.582s6.879-7.467,10.114-9.3,12.949-.355,13.353,1.741-7.891,2.493-7.891,2.493-3.033,12.75-10.316,10.728-5.26-5.664-5.26-5.664" transform="translate(53.816 42.23)" fill="#fd8753"/>
              <path id="Trazado_213295" data-name="Trazado 213295" d="M112.181,91.569a17.507,17.507,0,0,0-6.877-3.731L104.1,89.974l-3.76-.4-.614-2.331a17.434,17.434,0,0,0-7.418,2.128l.666,2.544-2.97,2.325L87.82,92.912a17.439,17.439,0,0,0-3.771,6.693l2.423,1.333-.359,3.754-2.769.756a17.432,17.432,0,0,0,2.065,7.377l2.565-.812,2.354,2.96-1.315,2.454a17.495,17.495,0,0,0,6.848,3.822l1.389-2.467,3.762.406.716,2.709a17.408,17.408,0,0,0,7.361-2.139l-.9-2.917,2.979-2.312,2.605,1.435a17.451,17.451,0,0,0,3.64-6.777l-2.474-1.229.375-3.752,2.678-.852a17.413,17.413,0,0,0-2.239-7.385l-2.4.763L111,93.772Zm-4.117,17.065a8.427,8.427,0,1,1-3.321-11.445,8.427,8.427,0,0,1,3.321,11.445" transform="translate(68.401 71.597)" fill="#feca2e"/>
              <path id="Trazado_213296" data-name="Trazado 213296" d="M120.616,96.856a10.3,10.3,0,0,0-3.27-3.252l-1.036,1.007-2.059-.852.038-1.42a10.28,10.28,0,0,0-4.548-.029l-.046,1.549-2.065.823-1.016-1.112a10.325,10.325,0,0,0-3.246,3.159l1.151,1.156-.827,2.065L102,99.916a10.242,10.242,0,0,0-.058,4.515l1.586-.033.839,2.065-1.151,1.171a10.314,10.314,0,0,0,3.237,3.3l1.2-1.165,2.061.854-.046,1.653a10.285,10.285,0,0,0,4.519.011l-.024-1.8,2.07-.812,1.234,1.244a10.266,10.266,0,0,0,3.184-3.228l-1.2-1.107.838-2.057,1.655-.038a10.254,10.254,0,0,0-.04-4.548l-1.484.031-.841-2.065Zm-5.163,8.969a4.968,4.968,0,1,1,.022-7.024,4.967,4.967,0,0,1-.022,7.024" transform="translate(83.481 75.561)" fill="#fc4b52"/>
              <path id="Trazado_213297" data-name="Trazado 213297" d="M64.953,84.795s28.86,28.816,40.368,73.962,10.742,78.377,10.742,78.377H72.552s-1.143-27.589-5.926-50.162A241.328,241.328,0,0,0,54.87,147.785l-4.686,89.349H6.756s7.971-129.679,15.7-149.044c6.289-15.753,42.5-3.3,42.5-3.3" transform="translate(5.545 65.753)" fill="#64892a"/>
              <path id="Trazado_213298" data-name="Trazado 213298" d="M33.388,133.845a.457.457,0,0,1-.455-.461l.377-30.9a.458.458,0,0,1,.293-.419l11.352-4.371a.455.455,0,0,1,.328.848l-11.066,4.262-.373,30.59a.455.455,0,0,1-.455.45" transform="translate(27.028 80.151)" fill="#fff"/>
              <path id="Trazado_213299" data-name="Trazado 213299" d="M16.826,98.071c-.31,0-.625-.016-.947-.046a.457.457,0,0,1-.408-.5.464.464,0,0,1,.5-.408c5.815.6,9.744-5.071,9.783-5.127a.455.455,0,0,1,.754.512c-.162.239-3.845,5.568-9.679,5.568" transform="translate(12.695 75.334)" fill="#fff"/>
              <path id="Trazado_213300" data-name="Trazado 213300" d="M107.946,55.347l14.586,19.214s-9.5,17.653-23.576,22.733-29.708,0-29.708,0v22.759H13.741s2.471-62.585,4.3-63.2c13.111-4.406,31.108-6.085,39.48-4.137,3.427.8,24.237,11.662,27.363,12.037s23.063-9.406,23.063-9.406" transform="translate(11.277 42.605)" fill="#972d31"/>
              <path id="Trazado_213301" data-name="Trazado 213301" d="M24.914,48.782,24.686,58.2s1.693,2.738,7.385,3.292c4.24.41,5.755-.49,5.755-.49l-.477-4.781-.472-4.661L26.632,49.183Z" transform="translate(20.26 40.035)" fill="#fd8753"/>
              <path id="Trazado_213302" data-name="Trazado 213302" d="M25.755,49a2.991,2.991,0,0,0,.262.914c2.066,4.745,8.006,5.868,10.454,6.125L36,51.38Z" transform="translate(21.137 40.216)"/>
              <path id="Trazado_213303" data-name="Trazado 213303" d="M42.522,40.162s4.83,11.9,2.655,18.425-8.344,5.28-12.009,3.884a12.182,12.182,0,0,1-5.3-3.658,5.336,5.336,0,0,1-5.715-2.174c-2.2-3.2-.623-6.731,1.393-7.487s4.317.706,4.317.706L26.15,46.39s8.47-17.058,16.372-6.229" transform="translate(17.306 30.006)" fill="#fd8753"/>
              <path id="Trazado_213304" data-name="Trazado 213304" d="M26.7,48.52a.456.456,0,0,1-.268-.087L22.112,45.3a.455.455,0,0,1,.535-.736L26.966,47.7a.455.455,0,0,1-.268.823" transform="translate(17.994 36.503)"/>
              <path id="Trazado_213305" data-name="Trazado 213305" d="M28.122,42.763a.456.456,0,0,1-.35-.746A3.521,3.521,0,0,1,31.6,40.722a.456.456,0,0,1-.308.858,2.64,2.64,0,0,0-2.818,1.02.45.45,0,0,1-.35.164" transform="translate(22.706 33.302)"/>
              <path id="Trazado_213306" data-name="Trazado 213306" d="M34.885,41.739a.442.442,0,0,1-.291-.106,1.928,1.928,0,0,0-2.081-.239.462.462,0,0,1-.615-.188.456.456,0,0,1,.184-.615,2.838,2.838,0,0,1,3.1.342.456.456,0,0,1,.058.641.448.448,0,0,1-.35.164" transform="translate(26.134 33.057)"/>
              <path id="Trazado_213309" data-name="Trazado 213309" d="M31.82,49.942a1.79,1.79,0,0,1-.362-.038c-.9-.2-1.633-1.123-2.161-2.749a.455.455,0,0,1,.659-.535l3.321,1.9a.457.457,0,0,1,.109.7,2.376,2.376,0,0,1-1.566.723m-1.151-1.868a1.728,1.728,0,0,0,.983.941.93.93,0,0,0,.55-.066Z" transform="translate(24.025 38.211)"/>
              <path id="Trazado_213310" data-name="Trazado 213310" d="M22.564,47.836a.455.455,0,0,1-.239-.843L24.6,45.587a.455.455,0,0,1,.479.774L22.8,47.768a.456.456,0,0,1-.239.067" transform="translate(18.145 37.357)"/>
              <path id="Trazado_213311" data-name="Trazado 213311" d="M32.664,48.7a.441.441,0,0,1-.144-.024.454.454,0,0,1-.288-.575c1.074-3.21-.96-4.45-1.045-4.5a.454.454,0,0,1,.453-.787c.027.015,2.773,1.639,1.455,5.577a.454.454,0,0,1-.432.311" transform="translate(25.409 35.085)"/>
              <path id="Trazado_213312" data-name="Trazado 213312" d="M29.317,54.626S-3.958,65.051.392,92.362c3.381,21.233,49.643,18.691,49.643,18.691v-26.9L32.152,82.914Z" transform="translate(0 44.831)" fill="#972d31"/>
              <path id="Trazado_213313" data-name="Trazado 213313" d="M37.339,72.488a.468.468,0,0,1-.1-.011,97.593,97.593,0,0,0-21.3-2.15.444.444,0,0,1-.468-.444.453.453,0,0,1,.442-.466,102.792,102.792,0,0,1,21.528,2.172.455.455,0,0,1-.1.9" transform="translate(12.695 56.955)" fill="#fff"/>
              <path id="Trazado_213314" data-name="Trazado 213314" d="M15.863,72.051c-1.93,0-3.814-.242-4.767-1.041a1.834,1.834,0,0,1-.69-1.438,1.457,1.457,0,0,1,.67-1.289c2.221-1.429,9.948,1.961,10.822,2.352a.456.456,0,0,1-.107.865,38,38,0,0,1-5.928.552M12.64,68.823a2.018,2.018,0,0,0-1.069.224.553.553,0,0,0-.255.524.911.911,0,0,0,.366.739c1.338,1.127,5.62.868,8.361.528-2.491-1-5.631-2.016-7.4-2.016" transform="translate(8.54 55.752)" fill="#fff"/>
              <path id="Trazado_213315" data-name="Trazado 213315" d="M33.539,58.086a12.549,12.549,0,0,1-9.251-3.661.455.455,0,1,1,.654-.632c5.165,5.316,12.949,2.789,13.027,2.764a.456.456,0,0,1,.289.865,16.608,16.608,0,0,1-4.719.665" transform="translate(19.828 44.034)" fill="#fff"/>
              <path id="Trazado_213316" data-name="Trazado 213316" d="M52.4,66.97a.871.871,0,0,1-.721-.348c-.918-1.218,1.173-6.152,1.835-7.636a.441.441,0,0,1,.493-.262.453.453,0,0,1,.375.411c.137,1.755.408,7.5-1.815,7.822a1.087,1.087,0,0,1-.168.013m1.147-5.693c-.925,2.4-1.435,4.452-1.142,4.8.8-.126,1.129-2.462,1.142-4.8" transform="translate(42.227 48.187)" fill="#fff"/>
              <path id="Trazado_213317" data-name="Trazado 213317" d="M37.416,80.121s10.822-1.417,11.935.4.1,3.035-1.112,3.237-10.822-3.641-10.822-3.641" transform="translate(30.707 65.324)" fill="#fd8753"/>
              <path id="Trazado_213318" data-name="Trazado 213318" d="M28.082,78.943s4.452-5.058,7.081-5.362,9.1.406,8.9,1.821S38.5,78.033,38.5,78.033s7.789,6.372,8.8,6.979a73.137,73.137,0,0,0,8.9,3.237c1.921.506,3.135,1.214,1.213,2.833S45.278,92.6,41.637,92.5s-13.555-2.123-13.555-2.123Z" transform="translate(23.047 60.331)" fill="#fd8753"/>
              <path id="Trazado_213319" data-name="Trazado 213319" d="M47.743,83.726c-3.909-.122-8.927-3.175-9.14-3.3a.455.455,0,0,1,.477-.776c.051.029,5.025,3.053,8.677,3.17a.455.455,0,0,1-.015.91" transform="translate(31.504 65.309)"/>
              <path id="Trazado_213320" data-name="Trazado 213320" d="M71.754,65.843a.455.455,0,0,1-.284-.81c.042-.035,4.155-3.4,4.787-10.627a.441.441,0,0,1,.493-.415.455.455,0,0,1,.413.493C76.5,62.122,72.219,65.6,72.037,65.743a.45.45,0,0,1-.282.1" transform="translate(58.515 44.307)"/>
              <path id="Trazado_213321" data-name="Trazado 213321" d="M28.3,52.546s1.26,3.064,2.2,2.56-1.1-4.384-1.1-4.384a12.345,12.345,0,0,0,6.458-3.235,17.8,17.8,0,0,0,3.976-5.733l3.6,1.353s2.165-6.915-.566-9.142-4.552,0-4.552,0-6.575-.2-10.824,3.845a17.866,17.866,0,0,0-5.058,9.2,2.713,2.713,0,0,0-2.427,2.631C19.7,52.171,22,55.16,22,55.16s.934-4.439,6.3-2.615" transform="translate(16.396 27.062)" fill="#190f02"/>
              <rect id="Rectángulo_88704" data-name="Rectángulo 88704" width="34.393" height="38.763" transform="translate(151.746 73.951)" fill="#fff"/>
              <path id="Trazado_213322" data-name="Trazado 213322" d="M117.738,54.559V68.542H83.345V63.281c2.64-2.695,7.811-6.409,17.206-8.393a41.675,41.675,0,0,1,17.187-.328" transform="translate(68.401 44.172)" fill="#cba124"/>
              <rect id="Rectángulo_88705" data-name="Rectángulo 88705" width="60.551" height="3.991" transform="translate(193.828 76.118)" fill="#64892a"/>
              <rect id="Rectángulo_88706" data-name="Rectángulo 88706" width="60.551" height="3.991" transform="translate(193.828 85.555)" fill="#64892a"/>
              <rect id="Rectángulo_88707" data-name="Rectángulo 88707" width="60.551" height="3.991" transform="translate(193.828 94.991)" fill="#64892a"/>
              <rect id="Rectángulo_88708" data-name="Rectángulo 88708" width="60.551" height="3.991" transform="translate(193.828 104.428)" fill="#64892a"/>
              <path id="Trazado_213323" data-name="Trazado 213323" d="M186.183,70,83.548,69.543a.455.455,0,0,1,0-.91l102.634.455a.455.455,0,0,1,0,.91" transform="translate(68.196 56.327)" fill="#64892a"/>
              <path id="Trazado_213324" data-name="Trazado 213324" d="M146.577,82.725H63.234c-.251,0-.455-.14-.455-.311V10.834c0-.171.2-.311.455-.311s.455.14.455.311V82.1h82.432V26.891c0-.171.2-.311.455-.311s.455.14.455.311V82.413c0,.171-.2.311-.455.311" transform="translate(51.523 8.636)" fill="#feca2e"/>
              <path id="Trazado_213325" data-name="Trazado 213325" d="M75.647,25.013H59.26a1.622,1.622,0,0,1-1.622-1.622V7A1.623,1.623,0,0,1,59.26,5.38H75.647A1.623,1.623,0,0,1,77.269,7V23.39a1.622,1.622,0,0,1-1.622,1.622" transform="translate(47.303 4.415)" fill="#85b638"/>
              <path id="Trazado_213326" data-name="Trazado 213326" d="M75.647,38.789H59.26a1.622,1.622,0,0,1-1.622-1.622V20.78a1.623,1.623,0,0,1,1.622-1.624H75.647a1.623,1.623,0,0,1,1.622,1.624V37.166a1.622,1.622,0,0,1-1.622,1.622" transform="translate(47.303 15.721)" fill="#85b638"/>
              <path id="Trazado_213327" data-name="Trazado 213327" d="M75.647,52.564H59.26a1.622,1.622,0,0,1-1.622-1.622V34.555a1.623,1.623,0,0,1,1.622-1.624H75.647a1.623,1.623,0,0,1,1.622,1.624V50.941a1.622,1.622,0,0,1-1.622,1.622" transform="translate(47.303 27.026)" fill="#85b638"/>
              <path id="Trazado_213328" data-name="Trazado 213328" d="M66.311,34.5,58.77,28.092l2.358-2.773,4.6,3.907,5.919-7.864,2.908,2.19Z" transform="translate(48.232 17.532)" fill="#fff"/>
              <path id="Trazado_213329" data-name="Trazado 213329" d="M66.311,21.062,58.77,14.651l2.358-2.773,4.6,3.907,5.919-7.864,2.908,2.19Z" transform="translate(48.232 6.501)" fill="#fff"/>
              <path id="Trazado_213330" data-name="Trazado 213330" d="M66.311,48.278,58.77,41.869l2.358-2.775L65.725,43l5.919-7.864,2.908,2.19Z" transform="translate(48.232 28.838)" fill="#fff"/>
              <path id="Trazado_213331" data-name="Trazado 213331" d="M121.1,97.937h48.088a3.57,3.57,0,0,1,3.57,3.57V128a3.57,3.57,0,0,1-3.57,3.569H121.1a3.57,3.57,0,0,1-3.57-3.569V101.507a3.57,3.57,0,0,1,3.57-3.57" transform="translate(96.455 80.377)" fill="#fc4b52"/>
              <path id="Trazado_213332" data-name="Trazado 213332" d="M144.478,3.747V38.24a3.745,3.745,0,0,1-3.74,3.747h-53.9A3.746,3.746,0,0,1,83.1,38.24V3.747A3.746,3.746,0,0,1,86.842,0h53.9a3.745,3.745,0,0,1,3.74,3.747" transform="translate(68.196)" fill="#a7e446"/>
              <rect id="Rectángulo_88709" data-name="Rectángulo 88709" width="11.354" height="11.354" transform="translate(247.269 191.364)" fill="#feca2e"/>
              <path id="Trazado_213333" data-name="Trazado 213333" d="M130.731,119.091,127.2,112.97l-3.534-6.121H137.8l-3.534,6.121Z" transform="translate(101.49 87.691)" fill="#a7e446"/>
              <path id="Trazado_213334" data-name="Trazado 213334" d="M128.6,108.66a7.886,7.886,0,1,1,7.885,7.887,7.886,7.886,0,0,1-7.885-7.887" transform="translate(105.543 82.704)" fill="#fff"/>
              <path id="Trazado_213335" data-name="Trazado 213335" d="M131.366,92.384a2.421,2.421,0,1,1,2.422,2.422,2.422,2.422,0,0,1-2.422-2.422" transform="translate(107.812 73.832)" fill="#fc4b52"/>
              <path id="Trazado_213336" data-name="Trazado 213336" d="M131.366,79.527a2.421,2.421,0,1,1,2.422,2.422,2.422,2.422,0,0,1-2.422-2.422" transform="translate(107.812 63.28)" fill="#fc4b52"/>
              <path id="Trazado_213337" data-name="Trazado 213337" d="M66.54,47.8a2.421,2.421,0,1,1-2.422-2.422A2.422,2.422,0,0,1,66.54,47.8" transform="translate(50.636 37.242)" fill="#feca2e"/>
              <path id="Trazado_213338" data-name="Trazado 213338" d="M144.478,3.747v.992H83.1V3.747A3.746,3.746,0,0,1,86.842,0h53.9a3.745,3.745,0,0,1,3.74,3.747" transform="translate(68.196)" fill="#85b638"/>
              <path id="Trazado_213339" data-name="Trazado 213339" d="M113.584,3.228a.217.217,0,0,1-.142-.055.21.21,0,0,1-.015-.295L115.375.72a.209.209,0,0,1,.311.28l-1.948,2.158a.213.213,0,0,1-.155.069" transform="translate(93.045 0.536)" fill="#fff"/>
              <path id="Trazado_213340" data-name="Trazado 213340" d="M115.53,3.228a.21.21,0,0,1-.155-.069L113.427,1a.211.211,0,0,1,.015-.295.208.208,0,0,1,.295.015l1.948,2.158a.209.209,0,0,1-.155.35" transform="translate(93.046 0.535)" fill="#fff"/>
              <path id="Trazado_213341" data-name="Trazado 213341" d="M100.934,19.387H87.3a.211.211,0,0,1-.209-.209V5.547a.209.209,0,0,1,.209-.208h13.632a.207.207,0,0,1,.208.208V19.178a.209.209,0,0,1-.208.209m-13.422-.417h13.215V5.756H87.512Z" transform="translate(71.477 4.382)" fill="#fff"/>
              <path id="Trazado_213342" data-name="Trazado 213342" d="M117.1,22.909H91.046a.211.211,0,0,1-.209-.209V9.068a.211.211,0,0,1,.209-.209H117.1a.211.211,0,0,1,.209.209V22.7a.211.211,0,0,1-.209.209m-25.841-.417h25.632V9.278H91.254Z" transform="translate(74.55 7.271)" fill="#fff"/>
              <circle id="Elipse_5076" data-name="Elipse 5076" cx="1" cy="1" r="1" transform="translate(52.627 76)" fill="#190f02"/>
              <circle id="Elipse_5077" data-name="Elipse 5077" cx="1" cy="1" r="1" transform="translate(58.627 76)" fill="#190f02"/>
              <path id="Trazado_213343" data-name="Trazado 213343" d="M112.181,91.569a17.507,17.507,0,0,0-6.877-3.731L104.1,89.974l-3.76-.4-.614-2.331a17.434,17.434,0,0,0-7.418,2.128l.666,2.544-2.97,2.325L87.82,92.912a17.439,17.439,0,0,0-3.771,6.693l2.423,1.333-.359,3.754-2.769.756a17.432,17.432,0,0,0,2.065,7.377l2.565-.812,2.354,2.96-1.315,2.454a17.495,17.495,0,0,0,6.848,3.822l1.389-2.467,3.762.406.716,2.709a17.408,17.408,0,0,0,7.361-2.139l-.9-2.917,2.979-2.312,2.605,1.435a17.451,17.451,0,0,0,3.64-6.777l-2.474-1.229.375-3.752,2.678-.852a17.413,17.413,0,0,0-2.239-7.385l-2.4.763L111,93.772Zm-4.117,17.065a8.427,8.427,0,1,1-3.321-11.445,8.427,8.427,0,0,1,3.321,11.445" transform="translate(176.588 134.78) rotate(180)" fill="#feca2e"/>
              <path id="Trazado_213344" data-name="Trazado 213344" d="M120.616,96.856a10.3,10.3,0,0,0-3.27-3.252l-1.036,1.007-2.059-.852.038-1.42a10.28,10.28,0,0,0-4.548-.029l-.046,1.549-2.065.823-1.016-1.112a10.325,10.325,0,0,0-3.246,3.159l1.151,1.156-.827,2.065L102,99.916a10.242,10.242,0,0,0-.058,4.515l1.586-.033.839,2.065-1.151,1.171a10.314,10.314,0,0,0,3.237,3.3l1.2-1.165,2.061.854-.046,1.653a10.285,10.285,0,0,0,4.519.011l-.024-1.8,2.07-.812,1.234,1.244a10.266,10.266,0,0,0,3.184-3.228l-1.2-1.107.838-2.057,1.655-.038a10.254,10.254,0,0,0-.04-4.548l-1.484.031-.841-2.065Zm-5.163,8.969a4.968,4.968,0,1,1,.022-7.024,4.967,4.967,0,0,1-.022,7.024" transform="translate(161.51 130.816) rotate(180)" fill="#fc4b52"/>
            </g>
          </g>
        </g>
        <rect id="Rectángulo_88986" data-name="Rectángulo 88986" width="304" height="15" rx="5" transform="translate(180 1133.183)" fill="#a7e446"/>
      </g>
    </g>
  </g>
</svg>
