<svg xmlns="http://www.w3.org/2000/svg" xmlns:xlink="http://www.w3.org/1999/xlink" width="55" height="39.347" viewBox="0 0 55 39.347">
  <defs>
    <clipPath id="clip-path">
      <rect id="Rectángulo_88912" data-name="Rectángulo 88912" width="55" height="39.347" fill="none"/>
    </clipPath>
  </defs>
  <g id="Grupo_140834" data-name="Grupo 140834" transform="translate(-308 -1417.139)">
    <g id="Grupo_140750" data-name="Grupo 140750" transform="translate(308 1417.139)">
      <g id="Grupo_140748" data-name="Grupo 140748" clip-path="url(#clip-path)">
        <path id="Trazado_213844" data-name="Trazado 213844" d="M361.88,164.729a3.057,3.057,0,0,1,2.885,2.455v1.074a3.519,3.519,0,0,1-1.506,1.922c-.26.006-.248-.219-.291-.371-.414-1.469-.8-2.945-1.184-4.422-.056-.214-.221-.483.1-.659" transform="translate(-309.765 -141.08)" fill="#fc4b52"/>
        <path id="Trazado_213845" data-name="Trazado 213845" d="M50.863,1.275c.185-.163.41-.1.617-.1,1.9-.005,3.793-.009,5.689,0,.363,0,.612-.008.587-.5-.023-.444.281-.669.726-.68.125,0,.25,0,.376,0h23.4c.888,0,.913.005,1.041.9.055.384.318.272.522.273,1.914.007,3.828,0,5.743.008.207,0,.433-.067.618.1-.228.242-.529.182-.808.183-1.716.008-3.432,0-5.148.005-.716,0-.742.035-.749.765-.006.59.014,1.18-.011,1.769.03.3.016.608.016.911q0,9.949,0,19.9a1.7,1.7,0,0,1-.14.992,1.158,1.158,0,0,1-.773.156q-12.886.005-25.771,0a1.322,1.322,0,0,1-.731-.12.137.137,0,0,1-.038-.185,1.571,1.571,0,0,1,.987-.147c.383,0,.56-.162.549-.546-.006-.2,0-.393,0-.589q0-9.864,0-19.728c0-.214-.007-.429.014-.643-.025-.589-.006-1.179-.011-1.769-.007-.731-.032-.763-.749-.765-1.716,0-3.432,0-5.148-.005-.278,0-.58.058-.808-.183" transform="translate(-43.561 0.001)" fill="#e8e8e8"/>
        <path id="Trazado_213846" data-name="Trazado 213846" d="M12.47,149.578a.14.14,0,0,0-.006.1.982.982,0,0,1,.168.661q.006,2.09,0,4.179a.927.927,0,0,1-.171.658c-.008.464-.007.929-.028,1.393-.024.523-.249.751-.77.752q-5.446.008-10.891,0c-.526,0-.765-.231-.766-.749Q0,151.126,0,145.68c0-.558.245-.775.853-.779,1.377-.007,2.754,0,4.131,0,.2,0,.392-.019.588-.028a.808.808,0,0,1,.6-.179c.695,0,1.39-.019,2.084.009q1.53-.036,3.06,0c.94.02,1.294.387,1.306,1.319.013.966.006,1.933,0,2.9a.923.923,0,0,1-.157.662" transform="translate(0 -123.91)" fill="#fc4b52"/>
        <path id="Trazado_213847" data-name="Trazado 213847" d="M86.791,184.434q0-2.749,0-5.5l26.1.034c.392,0,.785-.008,1.177-.012a.427.427,0,0,1,.405-.1,1.012,1.012,0,0,1,.47.191c-.015.279-.262.26-.431.313-.733.227-1.476.423-2.221.611-.868.219-.888.249-.833,1.156a.383.383,0,0,1-.047.206,3.557,3.557,0,0,1-1.158.387c-.545.181-.657.35-.535.914.087.4.189.8.3,1.194.058.2.147.413-.033.605l-3.64,0a1,1,0,0,1-.183.107,1.889,1.889,0,0,1-.638.06q-4.242,0-8.483,0a1.923,1.923,0,0,1-.638-.059.928.928,0,0,1-.182-.108h-9.44" transform="translate(-74.331 -153.17)" fill="#636363"/>
        <path id="Trazado_213848" data-name="Trazado 213848" d="M280.15,45.112l-.509-.09c.02-.031.042-.072.072-.075,1.225-.088,2.071-.952,3.059-1.514.833-.473,1.647-.985,2.444-1.52.569-.373,1.139-.745,1.735-1.068a1.3,1.3,0,0,0,.727-1.3q-.029-8.095-.007-16.19c0-.31-.088-.651.182-.913.154.189.086.412.086.62q.006,8.307,0,16.614v.647a4.847,4.847,0,0,0,1.4-.781c.726-.547,1.3-.252,1.425.6a17.2,17.2,0,0,0,.547,2.115.97.97,0,0,0,.3.611c-.025.063-.084.136-.069.188.486,1.754.88,3.533,1.448,5.264.177,1.019.5,2,.766,3,.179.661-.046.978-.737.991-1.929.037-3.855-.1-5.782-.144-1.193-.028-2.389-.042-3.583-.07-.468-.011-.936-.282-1.4-.007-.105.028-.159-.038-.206-.115-.555-1.976-1.091-3.957-1.6-5.947a5.067,5.067,0,0,0-.3-.915" transform="translate(-239.494 -19.221)" fill="#e5e5e5"/>
        <path id="Trazado_213849" data-name="Trazado 213849" d="M285.287,10.722q-.008,3.54-.016,7.081c0,3.487-.006,6.975.008,10.462a.743.743,0,0,1-.429.76c-.764.422-1.5.888-2.254,1.336-.272-.283-.183-.64-.183-.969q-.009-8.231,0-16.463c0-1.279,0-1.279-1.28-1.28-1.233,0-2.467,0-3.7,0-.263,0-.545.038-.746-.2-.009-.714,0-1.43-.035-2.143-.022-.409.084-.547.522-.542,2.127.026,4.254.015,6.38.018a2.19,2.19,0,0,1,1.738,1.947" transform="translate(-236.928 -7.501)" fill="#636363"/>
        <path id="Trazado_213850" data-name="Trazado 213850" d="M41.526,28.461H38.841q0-8.655,0-17.309a2.171,2.171,0,0,1,1.725-2.375c2.129,0,4.258.008,6.386-.018.439-.006.544.135.522.543-.038.713-.029,1.429-.04,2.144-.2.238-.485.2-.748.2-1.305.007-2.61,0-3.915,0-.977,0-1.063.086-1.063,1.083q0,7.374,0,14.748a1.375,1.375,0,0,1-.178.978" transform="translate(-33.264 -7.501)" fill="#636363"/>
        <path id="Trazado_213851" data-name="Trazado 213851" d="M260.838,180.321c.19-.024.231.091.272.249q.854,3.265,1.719,6.527a.323.323,0,0,1-.009.106.334.334,0,0,1-.221.219,18.77,18.77,0,0,1-3.113.756c-.748.094-.876-.472-1.053-.987a1.171,1.171,0,0,1-.281-.622c-.3-1.133-.609-2.262-.911-3.393a.828.828,0,0,1-.029-.622c-.027-.121-.054-.243-.08-.364-.129-.6.024-.838.63-1.005,1.026-.283,2.072-.495,3.075-.863" transform="translate(-220.182 -154.431)" fill="#fd3745"/>
        <path id="Trazado_213852" data-name="Trazado 213852" d="M124.988,217.755l.123,0a1.151,1.151,0,0,1,.167.82c0,1.68,0,3.359,0,5.039,0,.7.035.732.721.733q4.047,0,8.095,0c.684,0,.718-.036.719-.734,0-1.68,0-3.359,0-5.039a1.15,1.15,0,0,1,.169-.819l.123,0c-.006,2.146-.006,4.293-.023,6.439,0,.3.115.349.377.347,1.163-.011,2.326,0,3.489-.005.373,0,.68.1.771.512.1.46-.2.766-.763.77q-2.415.015-4.83.018-6.44,0-12.881-.016c-.072,0-.143,0-.215,0a.594.594,0,0,1-.667-.61.6.6,0,0,1,.672-.667c.894-.016,1.789-.006,2.684-.006,1.283,0,1.285,0,1.282-1.309q-.006-2.736-.019-5.473" transform="translate(-103.088 -186.49)" fill="#636363"/>
        <path id="Trazado_213853" data-name="Trazado 213853" d="M273.775,229.25c.867-.348,1.787-.507,2.679-.766.22-.064.437-.139.655-.208l.115.1q1.232,2.349,2.463,4.7c.376.719.239,1.02-.553,1.242-.585.163-1.171.322-1.757.48a.706.706,0,0,1-.907-.362l-2.7-5.179" transform="translate(-234.471 -195.503)" fill="#972d31"/>
        <path id="Trazado_213854" data-name="Trazado 213854" d="M246.906,195.887c.422,1.542.881,3.074,1.22,4.637-.447.119-.893.241-1.342.354a.6.6,0,0,1-.792-.427c-.16-.472-.3-.949-.453-1.424a13.648,13.648,0,0,0-.434-1.815c-.133-.593-.009-.832.56-1,.411-.119.827-.22,1.241-.329" transform="translate(-209.874 -167.765)" fill="#e5e5e5"/>
        <path id="Trazado_213855" data-name="Trazado 213855" d="M276.843,27.458h4.826c.986,0,1.085.1,1.085,1.064q0,8.928,0,17.855c-1.506.948-3.01,1.9-4.522,2.841-.3.189-.671,0-1,.1l-.4-.011q0-10.547,0-21.1c0-.25.006-.5.01-.751" transform="translate(-237.09 -23.516)" fill="#dff7f9"/>
        <path id="Trazado_213856" data-name="Trazado 213856" d="M57.546,44.478q0-8.025,0-16.05c0-.82.146-.967.969-.968q2.47,0,4.939,0,0,10.621.016,21.242c0,.37-.1.516-.483.489-.409-.029-.822-.007-1.234-.007-.011-1.193-.026-2.386-.033-3.579-.006-.942-.154-1.094-1.076-1.1-1.033-.007-2.066-.019-3.1-.029" transform="translate(-49.284 -23.518)" fill="#dff7f9"/>
        <path id="Trazado_213857" data-name="Trazado 213857" d="M121.726,59.207c0,.447.008.894,0,1.341-.013.531-.223.762-.742.771q-1.341.023-2.682,0c-.536-.009-.777-.265-.783-.807q-.014-1.287,0-2.574c.005-.589.22-.838.793-.852.893-.023,1.788-.017,2.682,0a.671.671,0,0,1,.738.782c-.014.446,0,.894,0,1.341" transform="translate(-100.64 -48.878)" fill="#a7e446"/>
        <path id="Trazado_213858" data-name="Trazado 213858" d="M121.733,23.863c0,.465-.011.93,0,1.394a.655.655,0,0,1-.7.762q-1.393.032-2.788,0c-.493-.013-.728-.319-.726-.813,0-.876-.007-1.752,0-2.628a.7.7,0,0,1,.8-.789q1.314-.02,2.628,0c.555.007.765.23.776.79.009.429,0,.858,0,1.287" transform="translate(-100.649 -18.65)" fill="#feca2e"/>
        <path id="Trazado_213859" data-name="Trazado 213859" d="M121.674,94.788c0,.482,0,.965,0,1.447a.609.609,0,0,1-.665.671c-.929.01-1.858.007-2.787,0a.667.667,0,0,1-.741-.729c-.01-.911-.015-1.822,0-2.733.009-.519.245-.728.775-.732.893-.006,1.787-.008,2.68,0,.577.005.73.163.738.734.007.446,0,.893,0,1.34" transform="translate(-100.605 -79.399)" fill="#fc4b52"/>
        <path id="Trazado_213860" data-name="Trazado 213860" d="M119.669,127.935c.447,0,.894,0,1.341,0a.629.629,0,0,1,.709.688q.012,1.421,0,2.842a.6.6,0,0,1-.665.67c-.947.005-1.895,0-2.842,0a.636.636,0,0,1-.7-.707q-.021-1.394,0-2.788a.661.661,0,0,1,.758-.707c.465,0,.93,0,1.394,0" transform="translate(-100.636 -109.567)" fill="#fc4b52"/>
        <path id="Trazado_213861" data-name="Trazado 213861" d="M196.92,68.632c-1.288,0-2.576,0-3.863,0-.563,0-.786-.193-.762-.657s.312-.633.754-.632c2.611,0,5.223,0,7.834,0,.558,0,.9.258.851.665-.055.486-.395.627-.843.625-1.324-.007-2.647,0-3.971,0" transform="translate(-164.687 -57.673)" fill="#c5c5f6"/>
        <path id="Trazado_213862" data-name="Trazado 213862" d="M196.96,32.18c1.287,0,2.574,0,3.86,0,.572,0,.882.227.89.632s-.3.654-.867.655q-3.86,0-7.72,0a1.108,1.108,0,0,1-.267-.01c-.357-.091-.628-.257-.594-.693s.277-.587.677-.586q2.01,0,4.021,0" transform="translate(-164.657 -27.559)" fill="#c5c5f6"/>
        <path id="Trazado_213863" data-name="Trazado 213863" d="M197,103.8c-1.3,0-2.609,0-3.914,0-.406,0-.819,0-.811-.589.006-.457.258-.695.813-.7,2.574-.006,5.147,0,7.721-.006a.971.971,0,0,1,.86.451c.143.212.018.411-.093.6-.14.233-.366.248-.609.247-1.323,0-2.645,0-3.968,0" transform="translate(-164.668 -87.789)" fill="#c5c5f6"/>
        <path id="Trazado_213864" data-name="Trazado 213864" d="M196.991,138.4q1.931,0,3.862,0c.549,0,.91.252.848.645a.773.773,0,0,1-.861.639c-1.126.012-2.253,0-3.379,0-1.413,0-2.825,0-4.238,0-.675,0-.941-.2-.963-.664s.208-.631.653-.627c1.359.012,2.718,0,4.077,0" transform="translate(-164.658 -118.527)" fill="#c5c5f6"/>
        <path id="Trazado_213865" data-name="Trazado 213865" d="M160.358,68.632h-1.074a.611.611,0,0,1-.684-.595.559.559,0,0,1,.55-.665,21.676,21.676,0,0,1,2.466.008.551.551,0,0,1,.524.682.6.6,0,0,1-.653.57c-.376,0-.752,0-1.128,0" transform="translate(-135.826 -57.674)" fill="#c5c5f6"/>
        <path id="Trazado_213866" data-name="Trazado 213866" d="M160.425,32.183c.34,0,.68,0,1.02,0a.612.612,0,0,1,.687.592.557.557,0,0,1-.546.667,21.669,21.669,0,0,1-2.466-.006.553.553,0,0,1-.527-.68.6.6,0,0,1,.65-.573c.394,0,.788,0,1.182,0" transform="translate(-135.818 -27.562)" fill="#c5c5f6"/>
        <path id="Trazado_213867" data-name="Trazado 213867" d="M160.416,103.684c-.376,0-.751,0-1.127,0a.573.573,0,0,1-.622-.538.552.552,0,0,1,.467-.671,9.96,9.96,0,0,1,2.559-.035.561.561,0,0,1,.507.7.573.573,0,0,1-.658.55c-.375,0-.751,0-1.127,0" transform="translate(-135.884 -87.676)" fill="#c5c5f6"/>
        <path id="Trazado_213868" data-name="Trazado 213868" d="M160.425,138.424c.393,0,.786-.005,1.179,0a.528.528,0,0,1,.582.506c.028.324-.063.625-.439.69a7.715,7.715,0,0,1-2.651,0c-.376-.066-.464-.369-.435-.692a.529.529,0,0,1,.585-.5c.393-.006.786,0,1.179,0" transform="translate(-135.878 -118.55)" fill="#c5c5f6"/>
        <path id="Trazado_213869" data-name="Trazado 213869" d="M27.013,169.655c0-.8,0-1.607,0-2.41a.829.829,0,0,1,.388-.822c.328-.186.577-.008.83.17.934.656,1.882,1.293,2.8,1.969a1.285,1.285,0,0,1-.015,2.234c-.938.681-1.9,1.333-2.848,2a.711.711,0,0,1-.8.1.732.732,0,0,1-.357-.725q0-1.259,0-2.517" transform="translate(-23.134 -142.464)" fill="#ffe4e5"/>
        <path id="Trazado_213870" data-name="Trazado 213870" d="M163.213,217.751c0,2.055-.011,4.109.011,6.163,0,.449-.083.62-.582.616q-4.368-.037-8.737,0c-.5,0-.587-.165-.582-.615.022-2.054.01-4.109.011-6.163h9.879" transform="translate(-131.311 -186.49)" fill="#afafaf"/>
        <path id="Trazado_213871" data-name="Trazado 213871" d="M172.989,190.6c-.59,0-1.18-.007-1.769,0-.385.006-.665-.076-.692-.539-.028-.481.237-.677.656-.748a1.615,1.615,0,0,1,.268,0c1.036,0,2.073,0,3.109,0a1.078,1.078,0,0,1,.667.149.622.622,0,0,1,.265.7.518.518,0,0,1-.573.445c-.643-.005-1.287,0-1.93,0" transform="translate(-146.044 -162.133)" fill="#dff7f9"/>
        <path id="Trazado_213872" data-name="Trazado 213872" d="M311.935,169.094a.583.583,0,0,1,.624.43.645.645,0,0,1-.326.772c-1.022.646-2.038,1.3-3.057,1.954-.315.2-.619.422-.946.6s-.714.243-.946-.132a.635.635,0,0,1,.268-.949q1.985-1.253,3.957-2.527a.65.65,0,0,1,.426-.148" transform="translate(-263.067 -144.816)" fill="#fefefe"/>
        <path id="Trazado_213873" data-name="Trazado 213873" d="M170.376,226.888c0,.571,0,1.143,0,1.714,0,.424-.186.7-.622.705-.463.011-.67-.26-.669-.712,0-1.107-.005-2.213,0-3.32,0-.525.246-.8.653-.8s.629.272.633.806,0,1.071,0,1.606" transform="translate(-144.811 -192.249)" fill="#e8e8e8"/>
      </g>
    </g>
  </g>
</svg>
