<svg xmlns="http://www.w3.org/2000/svg" xmlns:xlink="http://www.w3.org/1999/xlink" width="50.799" height="50.787" viewBox="0 0 50.799 50.787">
  <defs>
    <clipPath id="clip-path">
      <rect id="Rectángulo_88918" data-name="Rectángulo 88918" width="50.799" height="50.787" fill="none"/>
    </clipPath>
  </defs>
  <g id="Grupo_140838" data-name="Grupo 140838" transform="translate(-991.101 10279.787)">
    <g id="Grupo_140772" data-name="Grupo 140772" transform="translate(991.101 -10279.787)">
      <g id="Grupo_140771" data-name="Grupo 140771" clip-path="url(#clip-path)">
        <path id="Trazado_213968" data-name="Trazado 213968" d="M9.783,12.678c0-3.708.012-7.416-.013-11.124A1.559,1.559,0,0,1,10.567,0H38.838a1.326,1.326,0,0,1,.9,1.447c-.03,1.4-.009,2.8-.009,4.193a1.983,1.983,0,0,1-1.594.051,1.024,1.024,0,0,1-.145-.711c-.007-.876.005-1.751-.006-2.627-.007-.54-.066-.6-.6-.607-2.181-.009-4.362,0-6.543-.01a.58.58,0,0,0-.666.551,1.3,1.3,0,0,1-1.505,1.237q-3.916.011-7.832,0c-.929,0-1.3-.305-1.495-1.242a.581.581,0,0,0-.671-.546c-2.181.012-4.362,0-6.543.008a.672.672,0,0,0-.513.13c-.169.2-.115.441-.115.666q0,4.621,0,9.242c0,1.05-.058,1.1-1.128,1.07a1.428,1.428,0,0,1-.439-.056.32.32,0,0,1-.15-.12" transform="translate(-8.474 -0.001)" fill="#636363"/>
        <path id="Trazado_213969" data-name="Trazado 213969" d="M298.068,284.992a9.393,9.393,0,0,1-1.767-.4,8.133,8.133,0,0,1-2.548-1.719c-.288-.258-.49-.613-.865-.773a5.435,5.435,0,0,1-2.547.121,2.907,2.907,0,0,1-1.228-.613.984.984,0,0,1-.086-1.49,3.883,3.883,0,0,1,1.338-1,2.632,2.632,0,0,1-.439.115.73.73,0,0,1-.764-.5.643.643,0,0,1,.512-.738,3.59,3.59,0,0,1,3,.4c.125.08.236.181.365.256a12.124,12.124,0,0,0,3.774,1.674,7.519,7.519,0,0,1-.688-1.759c-.192-.625-.107-.731.535-.747a8.525,8.525,0,0,0,1.134-.038,4.217,4.217,0,0,0,1.864-.738c.178-.129.334-.331.6-.294a17.811,17.811,0,0,1,.895,3.615c.018.1,0,.2.1.261v.5a3.833,3.833,0,0,0,0,1.389v.4a1.873,1.873,0,0,0-.289.708,1.959,1.959,0,0,1-1.6,1.375,3.746,3.746,0,0,1-1.293,0" transform="translate(-250.45 -240.055)" fill="#febfb2"/>
        <path id="Trazado_213970" data-name="Trazado 213970" d="M382.392,311.15a2.068,2.068,0,0,1,0-1.389Z" transform="translate(-331.594 -268.695)" fill="#f2b6b6"/>
        <path id="Trazado_213971" data-name="Trazado 213971" d="M96.12,41.573h1.635c2.445.006,4.89.021,7.335.007.408,0,.532.1.52.514-.03,1.106-.027,2.214,0,3.32.009.376-.1.468-.471.465-2.263-.017-4.527-.009-6.79-.007-.2,0-.4.016-.593.024-.516.212-1.066.034-1.592.139a.992.992,0,0,1-.189,0c-.38-.024-.76-.019-1.14-.019q-8.553,0-17.105,0a1.58,1.58,0,0,1-.918-.128.822.822,0,0,1-.142-.559q-.012-1.6,0-3.193a.886.886,0,0,1,.131-.564,1.1,1.1,0,0,1,.715-.14q8.948,0,17.9,0a.989.989,0,0,1,.71.146" transform="translate(-66.499 -35.933)" fill="#fec21a"/>
        <path id="Trazado_213972" data-name="Trazado 213972" d="M267.141,161.3a1.684,1.684,0,0,1-.446,2.516c-.112.075-.231.13-.229.291a3.8,3.8,0,0,1-1.221,2.569,3,3,0,0,1-2.318.9,3.4,3.4,0,0,1-2.391-.747l-.033-.074a4.09,4.09,0,0,1-1.381-2.69c-.016-.18-.158-.228-.275-.315a1.849,1.849,0,0,1-.651-1.976c.084-.208.155-.447.44-.478.235-.1.358.018.456.17a3.922,3.922,0,0,1,.034-.766,3.754,3.754,0,0,1,.363-1.428c.28-.472.454-.53.9-.209a2.8,2.8,0,0,0,1.3.568c.264.033.419-.029.4-.334-.027-.388.162-.466.49-.318a4.593,4.593,0,0,0,3.1.236c.488-.124.6-.028.718.478a3.811,3.811,0,0,1,.152.927c-.009.441.155.66.591.677" transform="translate(-223.891 -137.801)" fill="#febfb2"/>
        <path id="Trazado_213973" data-name="Trazado 213973" d="M297.04,227.459a4.672,4.672,0,0,1-3.695,1.189c-.416-.037-.477.1-.363.456a6.9,6.9,0,0,0,.86,2.052,10.054,10.054,0,0,1-4.041-1.67.937.937,0,0,1-.154-.609c0-.427,0-.855,0-1.282,0-.737-.03-.763-.787-.765-.97,0-1.939,0-2.909,0a4.131,4.131,0,0,1-.591-.019.414.414,0,0,1-.336-.156c.138-.292.414-.228.647-.232.923-.014,1.847,0,2.771-.007.675,0,.7-.028.705-.689,0-1.682,0-3.365,0-5.047a1.051,1.051,0,0,1,.146-.757,16.944,16.944,0,0,1,4,1.38,6.085,6.085,0,0,1,2.3,2.331,17.375,17.375,0,0,1,1.438,3.826" transform="translate(-247.237 -190.766)" fill="#a7e446"/>
        <path id="Trazado_213974" data-name="Trazado 213974" d="M227.374,220.162a.2.2,0,0,1,.2-.077.581.581,0,0,1,.16.454c0,2.87.043,5.741-.02,8.611a.828.828,0,0,1-.406.536,11.407,11.407,0,0,1-3.583,1.647c-.189.054-.415.12-.563-.046-.163-.182,0-.378.082-.545a5.7,5.7,0,0,0,.518-1.388c.068-.305-.018-.439-.336-.424a5.581,5.581,0,0,1-1.766-.186,1.532,1.532,0,0,1-.625-.285.349.349,0,0,1-.079-.132,8.369,8.369,0,0,1,.592-2.182c.175-.515.366-1.026.576-1.528a6.633,6.633,0,0,1,3.9-3.778,9.132,9.132,0,0,1,.942-.3c.2-.053.371-.143.412-.374" transform="translate(-191.661 -190.905)" fill="#a7e446"/>
        <path id="Trazado_213976" data-name="Trazado 213976" d="M222.669,74.974a7.976,7.976,0,0,1,1.632-.022q0,10.5.008,20.99c.036.211-.11.336-.233.464a13.3,13.3,0,0,0-1,1.09c-.083.109-.178.278-.347.2-.153-.067-.138-.25-.14-.4-.012-.939,0-1.878-.007-2.817,0-.082,0-.165-.012-.248-.016-4.891-.029-9.782.005-14.672.009-1.305,0-2.61,0-3.916a1.347,1.347,0,0,1,.094-.679" transform="translate(-193.045 -64.988)" fill="#636363"/>
        <path id="Trazado_213977" data-name="Trazado 213977" d="M270.882,227.715q0-4.607,0-9.214l.7-.225,0,.025a.662.662,0,0,1,.13.512,3.675,3.675,0,0,0,.11.831,2.081,2.081,0,0,0,2.37,1.678,2.128,2.128,0,0,0,1.91-2c.018-.246-.008-.495.021-.74.016-.142.017-.309.224-.326a2.119,2.119,0,0,1,.681.221c0,2.059-.009,4.118.01,6.176,0,.394-.114.507-.5.5-1.12-.024-2.24-.009-3.36-.009-.129,0-.264-.043-.382.046a3.246,3.246,0,0,0-.176,1.4,1.509,1.509,0,0,1-.065.583c-.045.093-.113.187-.21.2-.5.048-.935.4-1.462.343" transform="translate(-234.97 -189.321)" fill="#feca2e"/>
        <path id="Trazado_213978" data-name="Trazado 213978" d="M272.672,136.8a.708.708,0,0,0-.584.222c-.109-.679-.215-1.31-.31-1.942-.04-.262-.124-.348-.419-.266a4.4,4.4,0,0,1-3.581-.375.361.361,0,0,0-.03.427c.192.437-.1.435-.374.422a2.32,2.32,0,0,1-1.564-.656c-.3-.3-.454-.182-.634.1a4.177,4.177,0,0,0-.417,1.508,3.511,3.511,0,0,1,.791-3.905c.051-.042-.019-.017.04-.026.823-.133,1.321-.833,2.035-1.16a4.475,4.475,0,0,1,3.173-.386.355.355,0,0,0,.2.006,3.8,3.8,0,0,1,2.143,4.469,9.461,9.461,0,0,1-.465,1.56" transform="translate(-229.422 -113.304)" fill="#333"/>
        <path id="Trazado_213980" data-name="Trazado 213980" d="M213.7,220.794v3.268c.5-.639,1.107-1.117,1.617-1.682a13.721,13.721,0,0,1,4.45-1.7c.3.374-.056.417-.267.472a8.009,8.009,0,0,0-2.015.774,6.3,6.3,0,0,0-2.784,3.088,22.206,22.206,0,0,0-1.285,3.824,1.375,1.375,0,0,1-1.233-.9,19.662,19.662,0,0,1,1.061-3.087,3.108,3.108,0,0,0,.244-1.249c-.013-.727-.005-1.454,0-2.18a1.28,1.28,0,0,1,.075-.584.1.1,0,0,1,.14-.047" transform="translate(-184.052 -191.426)" fill="#85b638"/>
        <path id="Trazado_213981" data-name="Trazado 213981" d="M264.249,127.811c-.12.133-.27.093-.415.068a4.525,4.525,0,0,0-4.026,1.242c-.139.129-.235.28-.5.2-.284-.082-.474.167-.652.363a3.609,3.609,0,0,0-.727,3.011c.021.2.055.389.083.583v.83c-.249-.062-.362-.3-.592-.273a4.931,4.931,0,0,1-.615-3.364,3.067,3.067,0,0,1,.914-1.546c.156-.147.308-.31.557-.153.194.122.254-.078.346-.173a4.659,4.659,0,0,1,5.623-.793" transform="translate(-222.677 -110.345)" fill="#212121"/>
        <path id="Trazado_213982" data-name="Trazado 213982" d="M280.952,217.84c-.2.3-.089.64-.1.959a2.318,2.318,0,0,1-1.962,2.246,2.258,2.258,0,0,1-2.622-1.886,9.217,9.217,0,0,1-.083-1.275,8.94,8.94,0,0,0,1.588.6,3.792,3.792,0,0,0,2.891-.582,2.017,2.017,0,0,1,.26-.122.1.1,0,0,1,.025.064" transform="translate(-239.573 -188.906)" fill="#f8a294"/>
        <path id="Trazado_213983" data-name="Trazado 213983" d="M39.687,159.945q0,2.3,0,4.609c0,.93-.428,1.351-1.368,1.351q-13.606,0-27.212,0c-.955,0-1.368-.425-1.368-1.4q0-15.34,0-30.68c0-.214-.01-.429-.016-.643-.02-.252.151-.348.348-.413a1.512,1.512,0,0,1,.442-.049c.84-.02.945.078.945.916q0,14.825,0,29.65c0,.257-.072.535.137.756a.9.9,0,0,0,.619.119q12.512,0,25.024,0a.955.955,0,0,0,.574-.1c.175-.149.146-.353.146-.548,0-.868,0-1.735,0-2.6,0-.8,0-.8.776-.942.315-.02.628-.222.947-.016" transform="translate(-8.433 -115.119)" fill="#636363"/>
        <path id="Trazado_213984" data-name="Trazado 213984" d="M270.549,325c-1.43.011-2.86.036-4.29.03-1.364-.006-2.729.052-4.092-.033-.032-.2.1-.343.207-.486a4.266,4.266,0,0,0,.8-2.608c.01-1.652,0-3.3,0-4.956a1.2,1.2,0,0,1,.114-.722,2.858,2.858,0,0,1,1.661.194,1.331,1.331,0,0,1,.109.724c.011.879.033.9.933.9.925,0,1.851,0,2.776,0a1.349,1.349,0,0,1,.679.1c.209.194.165.454.167.7.007,1.12.019,2.24,0,3.36a3.683,3.683,0,0,0,.677,2.228c.119.172.279.333.256.572" transform="translate(-227.406 -274.259)" fill="#feca2e"/>
        <path id="Trazado_213985" data-name="Trazado 213985" d="M223.506,287.463a7.5,7.5,0,0,1-1.593-.158,1.427,1.427,0,0,0-.91.515,8.255,8.255,0,0,1-2.314,1.823,1.2,1.2,0,0,1-.548.2,2.57,2.57,0,0,0-.875.3l-.872.125a1.718,1.718,0,0,1-1.6-1.251,5,5,0,0,1-.331-2.376,17.458,17.458,0,0,1,.6-3.4c.048-.176.053-.408.319-.434a5.693,5.693,0,0,0,2.611.392c.327-.026.382.064.307.39a9.1,9.1,0,0,1-.869,2.193,11.261,11.261,0,0,0,4.494-2.074,5.191,5.191,0,0,1,1.58-.486.643.643,0,0,1,.169.544q.014,1.575,0,3.15a.645.645,0,0,1-.169.544" transform="translate(-186.013 -245.317)" fill="#febfb2"/>
        <path id="Trazado_213986" data-name="Trazado 213986" d="M242.348,318.675a11.2,11.2,0,0,0,3.187-2.516c.2-.232.389-.045.585-.027,0,1.979.022,3.958,0,5.937a4.021,4.021,0,0,1-1.142,2.813c-.725.006-1.452,0-2.176.026-.349.014-.445-.1-.442-.445.016-1.748.008-3.5.007-5.245,0-.181-.013-.362-.019-.543" transform="translate(-210.219 -274.145)" fill="#a7e446"/>
        <path id="Trazado_213987" data-name="Trazado 213987" d="M318.26,324.868a4.173,4.173,0,0,1-1.092-3.027c.047-1.251.007-2.506.005-3.759.225-.182.45-.364.367-.707.043-.452-.132-.925.141-1.352a10.807,10.807,0,0,0,3.16,2.5c.054.025.085.1.127.147-.005,1.9-.023,3.8-.007,5.7,0,.408-.1.552-.522.531-.725-.036-1.452-.019-2.179-.024" transform="translate(-275.117 -274.127)" fill="#a7e446"/>
        <path id="Trazado_213988" data-name="Trazado 213988" d="M2.964,131.6c-.117-.165-.057-.353-.058-.528Q2.9,116.1,2.892,101.123c0-.874,0-.865-.9-.875-.3,0-.56.027-.7.333L.01,101.949v-.493c0-1.932.012-3.864-.009-5.8,0-.411.108-.569.522-.515a4.5,4.5,0,0,1,.787.055l.012,0a.655.655,0,0,1,.117.416A7.188,7.188,0,0,0,1.623,97.2a1.083,1.083,0,0,0,.247,1.09.8.8,0,0,0,.628.224,1.346,1.346,0,0,1,.536,0,6.783,6.783,0,0,0,2.727.315c1.53-.009,3.061,0,4.591,0,1.127,0,1.247.147,1.046,1.28a.3.3,0,0,1-.129.137,1.87,1.87,0,0,1-.734.065c-2.227,0-4.454,0-6.682,0-.223,0-.47-.064-.64.161a1.834,1.834,0,0,0-.068.734q0,5.04,0,10.079c0,.2,0,.4-.013.593.026.3.014.594.014.891q0,8.966,0,17.932c0,.3.084.635-.18.89" transform="translate(0 -82.522)" fill="#85b638"/>
        <path id="Trazado_213989" data-name="Trazado 213989" d="M359.187,338.946l1.293,0a1.812,1.812,0,0,1-1.293,0" transform="translate(-311.569 -294.009)" fill="#e3b5c5"/>
        <path id="Trazado_213990" data-name="Trazado 213990" d="M29.514,20.5l15.161.011c1.206,0,2.411,0,3.617,0,.156,0,.332-.068.468.076a4.446,4.446,0,0,1,.04,1.083c.009,1.024-.019,2.049.014,3.073.014.431-.165.566-.544.564-.1,0-.2,0-.3,0q-8.3,0-16.606,0a1.318,1.318,0,0,1-.771-.123c-.242-.342-.136-.735-.151-1.107-.024-.6-.052-.65-.655-.652-2.248-.006-4.5,0-6.744,0-.923,0-.923,0-.923-.929q0-4.834,0-9.669a1.828,1.828,0,0,1,.027-.542c.131-.154.309-.083.464-.083,2.346-.005,4.692.005,7.038-.013.354,0,.48.091.527.444.147,1.1.431,1.326,1.552,1.326q3.791,0,7.583,0c.977,0,1.31-.271,1.43-1.239.049-.395.158-.54.6-.534q3.469.042,6.938,0c.456-.005.547.131.536.554-.029,1.156-.011,2.312-.011,3.469-.412.006-.824.016-1.236.016H30.1c-.2,0-.4.009-.593.014a1.069,1.069,0,0,1-.713.138c-1.221,0-2.442,0-3.663,0-.582,0-.62.041-.623.617-.005.874,0,1.749,0,2.623,0,.687.021.705.736.707,1.188,0,2.376,0,3.564,0a.944.944,0,0,1,.7.164" transform="translate(-19.185 -10.576)" fill="#fefefe"/>
        <path id="Trazado_213991" data-name="Trazado 213991" d="M11.37,12.948c.008,1.766.019,3.531.023,5.3,0,1.717.013,3.434-.008,5.151-.005.4.1.528.516.525,2.46-.02,4.92,0,7.38-.019.416,0,.55.115.522.527-.031.459,0,.923.01,1.385a.589.589,0,0,1,.156.4c.019.752.024,1.5,0,2.255-.006.165.01.378-.241.418C19.712,27.7,19.712,27.7,18.5,27.7q-2.741,0-5.483,0a3.558,3.558,0,0,1-1.751-.413c-.016-.187.136-.287.218-.423a.736.736,0,0,0-.128-1.052.769.769,0,0,0-1.1-.013c-.106.084-.16.263-.35.212a6.1,6.1,0,0,1-.176-2.1,8.824,8.824,0,0,1,.99.011c.468.055.616-.1.611-.585-.026-2.377-.012-4.754-.012-7.131,0-.924,0-1.849,0-2.773,0-.159-.057-.33.054-.478" transform="translate(-8.404 -11.231)" fill="#a7e446"/>
        <path id="Trazado_213992" data-name="Trazado 213992" d="M290.808,276.722q0,.725.006,1.451c-.04.029-.077.075-.124.079a6.134,6.134,0,0,1-3.109-.2,2.215,2.215,0,0,1-1.372-2.067c-.044-1.581-.016-3.163-.011-4.745a.685.685,0,0,1,.154-.507c1.332-.006,2.665-.008,4-.022.331,0,.484.119.478.461-.015.789-.013,1.579-.017,2.368a3.658,3.658,0,0,0-2.972-.729,3.461,3.461,0,0,0-.431.1.462.462,0,0,0-.346.529.469.469,0,0,0,.474.425c.261.01.524-.03.929-.058-.279.173-.447.283-.621.383a3.211,3.211,0,0,0-.946.781.857.857,0,0,0,.135,1.339,3.143,3.143,0,0,0,2.418.623c.456-.041.906-.144,1.358-.218" transform="translate(-248.245 -234.826)" fill="#131c46"/>
        <path id="Trazado_213993" data-name="Trazado 213993" d="M30.8,82.995a2.542,2.542,0,0,0,.083-1.152c.018-.641.006-1.283.006-1.924q8.713,0,17.425,0c.827,0,.721.095.726-.75.008-1.27.01-2.541.015-3.811l.049-.033q.011,9.691.023,19.383l-.034,0-.035,0a1.338,1.338,0,0,1-.907.156q-10.352,0-20.7,0c-1.4,0-2.807,0-4.21,0a1.04,1.04,0,0,1-.757-.151c-.008-1.105-.023-2.211-.023-3.316q0-4.16.015-8.32c1.249-.058,2.5-.017,3.748-.024,1.365-.008,2.731,0,4.1,0a.9.9,0,0,0,.483-.047Z" transform="translate(-19.479 -65.336)" fill="#dff7f9"/>
        <path id="Trazado_213994" data-name="Trazado 213994" d="M44.3,46.909q-2.425.016-4.849.033c-.216,0-.287-.1-.286-.3,0-1.238.007-2.476,0-3.714,0-.256.116-.3.332-.295,1.6.011,3.2.014,4.8.02l0,4.256" transform="translate(-33.968 -36.981)" fill="#cba124"/>
        <path id="Trazado_213995" data-name="Trazado 213995" d="M283.423,270.6c0,1.749-.013,3.5,0,5.247a2.27,2.27,0,0,0,2.188,2.187c.759.01,1.518,0,2.277,0,.1.432-.128.586-.513.608q-1.945-.01-3.889-.02c-.574,0-.648-.082-.655-.658,0-.377-.013-.754-.019-1.131q0-2.119,0-4.239c.007-.5.019-1,.018-1.506,0-.247.045-.452.315-.533l.283.043" transform="translate(-245.315 -234.69)" fill="#0b1226"/>
        <path id="Trazado_213996" data-name="Trazado 213996" d="M206.306,277.012a11.04,11.04,0,0,0-.679,2.9,7.865,7.865,0,0,0-.035,2.346,2.432,2.432,0,0,0,1.727,2.216c-.211.164-.583-.051-.678.152a2.339,2.339,0,0,0-.06.869c-.031,1.033.06,2.068-.05,3.1-.217-.172-.163-.419-.165-.642-.009-.891-.013-1.783,0-2.674a.587.587,0,0,0-.478-.686,2.447,2.447,0,0,1-1.793-2.09,9.18,9.18,0,0,1,.13-3.442,18.292,18.292,0,0,1,.6-2.451c.058-.187.1-.388.312-.481a3.35,3.35,0,0,0,1.157.808.424.424,0,0,0,.007.078" transform="translate(-176.937 -239.519)" fill="#f8a295"/>
        <path id="Trazado_213998" data-name="Trazado 213998" d="M47.6,228.724a17.339,17.339,0,0,0-1.01,5.44,4.258,4.258,0,0,0,.325,1.631,2.033,2.033,0,0,0,1.621,1.293c.335.056.443.192.437.544-.019,1.186.007,2.372.016,3.558-.133.15-.31.081-.465.081q-12.848.006-25.7,0c-.157,0-.332.065-.469-.075.007-.2.022-.4.022-.592q0-9.262,0-18.523c0-.2.008-.4.013-.594l20.132-.007q3.223,0,6.446,0,.005,1.655.01,3.309a.941.941,0,0,1-.08.43,26.369,26.369,0,0,0-1.3,3.5" transform="translate(-19.394 -192.117)" fill="#fefefe"/>
        <path id="Trazado_213999" data-name="Trazado 213999" d="M11.046,107.713a1,1,0,0,1,1.107-.543.95.95,0,0,1,.737.718,1.055,1.055,0,0,1-.482,1.1c-1.008.22-1.551-.289-1.362-1.276" transform="translate(-9.55 -92.936)" fill="#fdfefe"/>
        <path id="Trazado_214000" data-name="Trazado 214000" d="M30.9,133.127c-.123.122-.279.076-.422.077q-3.953,0-7.906,0c.123-.121.279-.078.423-.078q3.953,0,7.905,0" transform="translate(-19.578 -115.469)" fill="#61cdab"/>
        <path id="Trazado_214001" data-name="Trazado 214001" d="M60.59,108.061a.958.958,0,0,1,.971-.974.974.974,0,0,1,0,1.946.953.953,0,0,1-.974-.971" transform="translate(-52.557 -92.89)" fill="#fdfefe"/>
        <path id="Trazado_214002" data-name="Trazado 214002" d="M36.753,107.092a.99.99,0,0,1,.971.934,1.01,1.01,0,0,1-.95,1.012.974.974,0,0,1-.022-1.946" transform="translate(-31.071 -92.894)" fill="#fdfefe"/>
        <path id="Trazado_214003" data-name="Trazado 214003" d="M289.5,276.71c-.022.325-.185.508-.461.521a.468.468,0,0,1-.033-.936.477.477,0,0,1,.494.415" transform="translate(-250.306 -239.665)" fill="#f6f7f8"/>
        <path id="Trazado_214004" data-name="Trazado 214004" d="M89.67,138.325a3.985,3.985,0,0,1,4.047-4.06,4.052,4.052,0,0,1,0,8.1,3.982,3.982,0,0,1-4.05-4.044" transform="translate(-77.78 -116.466)" fill="#fc4b52"/>
        <path id="Trazado_214005" data-name="Trazado 214005" d="M51.783,50.44c-.108.226.035.379.2.531.133.122.258.253.378.388a.2.2,0,0,1-.015.306.2.2,0,0,1-.3-.009c-.144-.134-.288-.27-.421-.414a.453.453,0,0,0-.469-.17.84.84,0,0,1-1.081-.763.856.856,0,0,1,.894-.944c.55.017.873.433.818,1.075" transform="translate(-43.431 -42.821)" fill="#fefcfb"/>
        <path id="Trazado_214006" data-name="Trazado 214006" d="M91.356,241.792a1.474,1.474,0,0,0,.989-1.28c0-.1-.008-.2,0-.3.035-.28.058-.617.426-.615s.534.289.551.639a1.883,1.883,0,0,1-.029.638c-.13.417.092.58.423.683a2.666,2.666,0,0,0,.482.1c.405.047.588.138.587.672a6.715,6.715,0,0,1-.305,1.718c-.067.259-.332.285-.57.3a5.145,5.145,0,0,1-2.369-.329,1.367,1.367,0,0,1-.452-1.635,2.032,2.032,0,0,1,.262-.585" transform="translate(-78.936 -207.836)" fill="#febfb2"/>
        <path id="Trazado_214007" data-name="Trazado 214007" d="M49.117,343.34H59.773c.132,0,.264,0,.4,0s.242.023.238.183c0,.139-.1.2-.227.215s-.231.01-.346.01H38.422c-.083,0-.165,0-.248,0-.154-.005-.325-.019-.313-.223.01-.166.165-.182.3-.185s.264,0,.4,0H49.117" transform="translate(-32.841 -297.822)" fill="#12263f"/>
        <path id="Trazado_214008" data-name="Trazado 214008" d="M40.485,248.075c.576-.124.919.2,1.223.675.22-.3.4-.612.8-.663a1.241,1.241,0,0,1,1.322,1.5,3.445,3.445,0,0,1-1.635,2.084,5.674,5.674,0,0,1-1.377-1.244,2.2,2.2,0,0,1-.333-2.35" transform="translate(-34.942 -215.164)" fill="#fc4b52"/>
        <path id="Trazado_214009" data-name="Trazado 214009" d="M96.732,309.489h-6a2.6,2.6,0,0,1-.4-.009c-.158-.025-.359-.042-.338-.272.018-.191.187-.2.341-.206s.3,0,.446,0h11.794c.116,0,.231,0,.347,0,.177.006.412-.033.426.219.017.293-.235.266-.43.266q-2.28,0-4.559,0H96.732" transform="translate(-78.069 -268.035)" fill="#12263f"/>
        <path id="Trazado_214010" data-name="Trazado 214010" d="M39.713,293.94a2.115,2.115,0,0,1,2.216,2.255,2.2,2.2,0,0,1-2.226,2.22,2.286,2.286,0,0,1-2.253-2.283,2.224,2.224,0,0,1,2.262-2.191" transform="translate(-32.485 -254.967)" fill="#12263f"/>
        <path id="Trazado_214011" data-name="Trazado 214011" d="M35.821,248.25c.051.042.115.087.085.161-.521,1.278.236,2.076,1.059,2.858.194.184.525.24.565.575-.357.38-.685.36-1.08.01a4.434,4.434,0,0,1-1.432-1.783,1.3,1.3,0,0,1,.8-1.821" transform="translate(-30.278 -215.339)" fill="#c93c41"/>
        <path id="Trazado_214012" data-name="Trazado 214012" d="M85.828,255.992c.015.06.062.137.04.176a1.726,1.726,0,0,0,.15,2.045l-.244.025c-.881.09-1.1-.106-1.143-1.016,0-.082,0-.164,0-.246.047-.9.266-1.076,1.2-.985" transform="translate(-73.408 -222.036)" fill="#a7e446"/>
        <path id="Trazado_214013" data-name="Trazado 214013" d="M107.589,151.924c0,.478.01.956,0,1.434-.013.5-.317.7-.752.458q-1.278-.7-2.526-1.454c-.406-.245-.392-.6.018-.848q1.231-.734,2.481-1.435c.454-.255.766-.066.78.46.013.461,0,.923,0,1.384" transform="translate(-90.221 -130.085)" fill="#fefefe"/>
        <path id="Trazado_214014" data-name="Trazado 214014" d="M54.26,53.214a.422.422,0,0,1-.394.43.4.4,0,0,1-.464-.4.385.385,0,0,1,.383-.431c.274-.023.422.139.475.4" transform="translate(-46.322 -45.809)" fill="#fe7916"/>
        <path id="Trazado_214015" data-name="Trazado 214015" d="M42.973,300.646a1.669,1.669,0,0,1-1.826-1.7,1.783,1.783,0,0,1,1.741-1.878,1.835,1.835,0,0,1,1.838,1.76,1.772,1.772,0,0,1-1.752,1.818" transform="translate(-35.692 -257.685)" fill="#fefefe"/>
      </g>
    </g>
  </g>
</svg>
