<svg xmlns="http://www.w3.org/2000/svg" xmlns:xlink="http://www.w3.org/1999/xlink" width="190" height="104" viewBox="0 0 190 104">
  <defs>
    <clipPath id="clip-path">
      <rect id="Rect치ngulo_88905" data-name="Rect치ngulo 88905" width="83.053" height="83.054" fill="none"/>
    </clipPath>
  </defs>
  <g id="Grupo_140842" data-name="Grupo 140842" transform="translate(-265 -2267)">
    <g id="Grupo_140735" data-name="Grupo 140735" transform="translate(-20.049 1856)">
      <rect id="Rect치ngulo_41122" data-name="Rect치ngulo 41122" width="190" height="104" transform="translate(285.049 411)" fill="none"/>
      <g id="Grupo_117447" data-name="Grupo 117447" transform="translate(-3337.23 1038.208)" opacity="0.3">
        <path id="Trazado_158283" data-name="Trazado 158283" d="M3677.784-530.075h0a16.354,16.354,0,0,0,23.129,0l67.216-67.214a16.357,16.357,0,0,0,0-23.129,16.355,16.355,0,0,0-23.129,0L3677.784-553.2A16.353,16.353,0,0,0,3677.784-530.075Z" transform="translate(14.296)" fill="#fc4b52"/>
        <path id="Trazado_158284" data-name="Trazado 158284" d="M3652.069-530.075h0a16.354,16.354,0,0,0,23.129,0l67.216-67.214a16.358,16.358,0,0,0,0-23.129,16.355,16.355,0,0,0-23.129,0L3652.069-553.2A16.354,16.354,0,0,0,3652.069-530.075Z" transform="translate(0)" fill="#feca2e"/>
      </g>
      <g id="Grupo_140736" data-name="Grupo 140736" transform="translate(338.049 421)">
        <g id="Grupo_140736-2" data-name="Grupo 140736" clip-path="url(#clip-path)">
          <path id="Trazado_213820" data-name="Trazado 213820" d="M37.533,0H70.51c2.9,0,4.5,1.6,4.5,4.5,0,.893.045,1.788-.015,2.677-.045.665.1.93.835.878,1.055-.075,2.119-.032,3.179-.015a3.988,3.988,0,0,1,4.031,4.039q.025,10.671,0,21.341A4,4,0,0,1,78.963,37.5c-1.116.014-2.233.022-3.348-.007-.448-.012-.622.078-.617.579.026,2.65.021,5.3,0,7.95a.719.719,0,0,0,.49.738,3.909,3.909,0,0,1,2.2,3.665q.01,6.863,0,13.725a9.193,9.193,0,0,1-1.972,5.738q-1.331,1.719-2.715,3.4a.672.672,0,0,0-.077.931,14.979,14.979,0,0,1,2.108,8.217c-.009.556-.2.616-.669.615q-11.383-.02-22.766.006c-.616,0-.7-.194-.708-.748a14.775,14.775,0,0,1,2.13-8.125.625.625,0,0,0-.076-.862c-.9-1.1-1.811-2.195-2.653-3.34-.308-.419-.663-.33-1.03-.33q-21.636-.007-43.273,0H4.56C1.594,69.643,0,68.063,0,65.12q0-17.7,0-35.4,0-12.6,0-25.19C0,1.581,1.59,0,4.555,0H37.533" transform="translate(0 0)"/>
          <path id="Trazado_213821" data-name="Trazado 213821" d="M62.814,94.909a7.393,7.393,0,0,0-4.485-1.623,3.5,3.5,0,0,0-3.545,3.387c-.014.319.112.72-.454.625-.425-.072-.931.258-1.1-.589a10.758,10.758,0,0,0-7.56-8.671,43.83,43.83,0,0,0-5.054-1.109c-.48-.1-.83-.176-.994-.786-.171-.637.215-.778.548-1.039a5.914,5.914,0,0,0,2.175-3.094c.192-.708.526-.845,1.157-.793A4.517,4.517,0,0,0,45,81.111a3.957,3.957,0,0,0,2.816-5.266,1.946,1.946,0,0,1-.056-1.2,9.67,9.67,0,0,0-9.61-12.164q-3.474-.014-6.947,0A9.67,9.67,0,0,0,21.628,74.6a2.11,2.11,0,0,1-.059,1.281A3.931,3.931,0,0,0,25.261,81.2c1.054,0,1.68.148,1.994,1.316A5.084,5.084,0,0,0,29.4,85.223a.711.711,0,0,1,.377.884.906.906,0,0,1-.791.8c-1.507.273-3.03.5-4.5.9a10.919,10.919,0,0,0-8.33,8.848c-.115.541-.283.672-.787.654-.975-.034-1.953-.026-2.929,0-.39.009-.58-.094-.519-.508a2.345,2.345,0,0,0,0-.334q0-17.91-.017-35.821c0-.691.156-.865.857-.863q19.251.036,38.5,0c.7,0,.862.17.858.863-.03,6.277-.019,12.554-.017,18.831a4.049,4.049,0,0,0,4.405,4.431c1.9,0,3.795,0,5.692,0,.274,0,.626-.137.624.4-.013,3.479-.007,6.957-.007,10.6" transform="translate(-9.236 -46.406)" fill="#dff7f9"/>
          <path id="Trazado_213822" data-name="Trazado 213822" d="M221,47.886q7.782,0,15.564,0c1.367,0,1.8.429,1.8,1.8q0,10.249,0,20.5c0,1.373-.43,1.809-1.785,1.81-5.383,0-10.767-.017-16.15.021-.739.005-.891-.225-.827-.885a3.709,3.709,0,0,0-.7-2.689c-.346-.449-.141-.564.231-.749q4.523-2.243,9.033-4.509a3.5,3.5,0,0,0,1.99-4.286,3.416,3.416,0,0,0-1.794-2.1c-3.9-1.961-7.793-3.94-11.72-5.848a3.472,3.472,0,0,0-5.064,3.184c-.025,3.876,0,7.753-.008,11.63a3.606,3.606,0,0,0,.59,1.971c.122.194.371.349.146.652a4.319,4.319,0,0,0-.729,3.019c.036.469-.111.612-.591.606-1.98-.027-3.961,0-5.941-.015a1.343,1.343,0,0,1-1.507-1.494q-.012-10.542,0-21.085c0-1.051.524-1.522,1.646-1.523q7.908-.006,15.815,0" transform="translate(-157.994 -37.171)" fill="#feca2e"/>
          <path id="Trazado_213823" data-name="Trazado 213823" d="M234.337,158.832c.812.2,1.555.423,2.311.567.539.1.361.483.361.772.01,3.6.034,7.2-.015,10.8-.01.765.211.909.918.889,1.781-.052,1.782-.016,1.782-1.76v-9.9c.2.033.336.052.471.08,2.06.42,2.208.6,2.208,2.7,0,4.129-.016,8.259.007,12.388a7.185,7.185,0,0,1-1.67,4.782q-1.33,1.614-2.609,3.269a1.09,1.09,0,0,1-.971.488q-6.822-.026-13.645,0a1.018,1.018,0,0,1-.911-.436c-.922-1.191-1.881-2.352-2.815-3.533a6.758,6.758,0,0,1-1.5-4.335c.006-1.785-.028-3.572.009-5.357a10.466,10.466,0,0,0-1.205-5.148c-.45-.864-.894-1.732-1.309-2.613-.389-.823-.014-1.366.9-1.349a4.523,4.523,0,0,1,4.279,4.424c.035,1.869.03,3.739,0,5.608-.01.544.136.693.686.691,2.006-.009,2.006.013,2.006-1.952q0-12.095,0-24.19a4.55,4.55,0,0,1,.021-.835,1.33,1.33,0,0,1,2.637.013,4.741,4.741,0,0,1,.02.835c0,8.426.01,16.852-.018,25.277,0,.706.176.873.866.854,1.831-.05,1.831-.015,1.831-1.878,0-3.906.018-7.812-.017-11.718-.006-.671.153-.777.772-.616,1.919.5,1.924.479,1.924,2.5,0,3.655.013,7.31-.014,10.965,0,.568.111.753.718.745,1.974-.026,1.975,0,1.975-1.985V158.832" transform="translate(-167.363 -111.57)" fill="#efcfb3"/>
          <path id="Trazado_213824" data-name="Trazado 213824" d="M57.871,252.776H13.917c-1.647,0-2-.357-2-2.012,0-3.542.018-7.085-.017-10.627-.006-.635.163-.769.779-.768q21.3.029,42.6,0a.993.993,0,0,1,1.012.627,9.868,9.868,0,0,1,1.192,4.968,41.275,41.275,0,0,0,.13,6.515c.061.411.163.816.26,1.3" transform="translate(-9.236 -185.809)" fill="#afafaf"/>
          <path id="Trazado_213825" data-name="Trazado 213825" d="M46.8,11.973H79.7c1.54,0,1.925.385,1.926,1.921,0,.921-.034,1.843.013,2.761.028.556-.154.69-.695.687-3.99-.022-7.98-.012-11.969-.012-4.129,0-8.259.018-12.388-.008a4.077,4.077,0,0,0-4.01,2.325.6.6,0,0,1-.65.366C49.5,20,47.069,20,44.642,20.019c-.48,0-.536-.193-.531-.592.018-1.395-.013-2.79.018-4.184.011-.48-.135-.607-.608-.6q-3.431.036-6.863,0c-.5-.006-.594.174-.586.623.025,1.394-.006,2.79.018,4.184.007.427-.1.561-.552.574-2.136.061-2.136.077-2.136-2.079,0-.893-.021-1.786.009-2.678.015-.448-.083-.631-.584-.625q-3.431.04-6.863,0c-.468,0-.62.121-.609.6.03,1.366-.005,2.734.019,4.1.009.466-.05.68-.615.683-2.073.013-2.073.039-2.073-2.062,0-.921-.023-1.842.01-2.762.016-.445-.126-.564-.564-.56q-3.473.031-6.947,0c-.465,0-.55.165-.544.58.022,1.394-.009,2.79.018,4.184.009.46-.11.608-.594.617-2.095.037-2.095.055-2.095-2.037,0-1.423,0-2.846,0-4.268,0-1.3.447-1.743,1.768-1.743q16.531,0,33.063,0" transform="translate(-9.291 -9.294)" fill="#a7e446"/>
          <path id="Trazado_213826" data-name="Trazado 213826" d="M76.991,83.774a34.724,34.724,0,0,1,4.638.143,7.013,7.013,0,0,1,5.658,7.4c-.041.471-.13.634-.707.577a26.745,26.745,0,0,0-3.673-.079,16.484,16.484,0,0,1-8.826-2.09,3.858,3.858,0,0,0-2.145-.593,3.356,3.356,0,0,0-3.055,2.111c-.186.429-.388.614-.854.569a3.013,3.013,0,0,0-1.164.023c-.854.273-.979-.144-1-.844a7.043,7.043,0,0,1,6.827-7.214c1.31-.027,2.621,0,4.3,0" transform="translate(-51.126 -65.018)" fill="#656d78"/>
          <path id="Trazado_213827" data-name="Trazado 213827" d="M58.674,203.047c-5.05,0-10.1-.012-15.15.014-.666,0-.8-.132-.606-.782a8.473,8.473,0,0,1,6.557-6.226c.491-.12.737,0,.926.5.636,1.693,1.358,3.354,1.988,5.049.21.564.425.549.887.309,1.556-.809,3.143-1.559,4.7-2.375a1.378,1.378,0,0,1,1.457-.016c1.572.837,3.192,1.586,4.769,2.416.472.248.646.172.83-.307.648-1.689,1.353-3.356,1.994-5.047.18-.477.386-.662.906-.537a8.465,8.465,0,0,1,6.568,6.214c.181.615.115.8-.588.8-5.078-.029-10.156-.015-15.234-.015" transform="translate(-33.253 -152.152)" fill="#fc4b52"/>
          <path id="Trazado_213828" data-name="Trazado 213828" d="M251.427,78.548c0-1.812,0-3.624,0-5.437,0-1.162.5-1.486,1.515-.98q5.53,2.754,11.052,5.523c.4.2.827.4.813.948s-.451.726-.851.925q-5.488,2.744-10.979,5.483c-1.015.505-1.545.182-1.55-.942-.008-1.84,0-3.68,0-5.52" transform="translate(-195.169 -55.813)" fill="#fc4b52"/>
          <path id="Trazado_213829" data-name="Trazado 213829" d="M249.3,340.537c-2.87,0-5.741-.018-8.611.015-.589.007-.7-.179-.6-.7a12.63,12.63,0,0,1,1.626-4.262.745.745,0,0,1,.727-.414q6.855.017,13.711,0a.746.746,0,0,1,.729.412,12.69,12.69,0,0,1,1.625,4.262c.1.52,0,.712-.6.706-2.87-.033-5.741-.015-8.611-.015" transform="translate(-186.343 -260.177)" fill="#feca2e"/>
          <path id="Trazado_213830" data-name="Trazado 213830" d="M89.813,123.718c0-.893,0-1.785,0-2.678.006-1.21.5-1.534,1.56-.989A20.141,20.141,0,0,0,97.4,122.2a14.289,14.289,0,0,0,2.662.244c.362-.011.481.105.474.474-.023,1.283.031,2.568-.028,3.849a3.983,3.983,0,0,1-3.846,3.7c-.975.039-1.954.036-2.929,0a4.02,4.02,0,0,1-3.915-4c-.021-.92,0-1.841,0-2.762" transform="translate(-69.712 -92.991)" fill="#efcfb3"/>
          <path id="Trazado_213831" data-name="Trazado 213831" d="M280.7,167.565c1.589,0,3.179.018,4.768-.011.478-.009.6.138.6.606q-.034,3.6,0,7.194c0,.411-.074.532-.505.422q-4.893-1.247-9.8-2.453a.475.475,0,0,1-.43-.564c.016-1.562.027-3.124,0-4.684-.01-.5.219-.52.6-.517,1.59.014,3.179.006,4.769.006" transform="translate(-213.722 -130.063)" fill="#dff7f9"/>
          <path id="Trazado_213832" data-name="Trazado 213832" d="M105.2,179.264c.556,0,1.113-.007,1.669,0,.244,0,.569-.21.667.24.074.342.271.655-.089.988-.673.624-1.318,1.278-1.948,1.946-.275.292-.443.2-.671-.038-.619-.639-1.225-1.3-1.893-1.882-.416-.365-.175-.707-.1-1.057.1-.442.453-.182.692-.191.556-.02,1.112-.006,1.669-.008" transform="translate(-79.721 -139.107)" fill="#efcfb3"/>
          <path id="Trazado_213833" data-name="Trazado 213833" d="M37.257,38.595c-1.337,0-1.337,0-1.337-1.342s0-1.337,1.342-1.337,1.337,0,1.337,1.342,0,1.337-1.342,1.337" transform="translate(-27.883 -27.88)" fill="#e5e8ec"/>
          <path id="Trazado_213834" data-name="Trazado 213834" d="M85.169,35.916c1.322,0,1.322,0,1.322,1.356,0,1.322,0,1.322-1.357,1.322-1.322,0-1.322,0-1.322-1.357,0-1.322,0-1.322,1.357-1.322" transform="translate(-65.059 -27.88)" fill="#e5e8ec"/>
          <path id="Trazado_213835" data-name="Trazado 213835" d="M134.383,37.327c0,1.268,0,1.268-1.243,1.268-1.436,0-1.436,0-1.436-1.411,0-1.268,0-1.268,1.244-1.268,1.435,0,1.435,0,1.435,1.411" transform="translate(-102.235 -27.88)" fill="#e5e8ec"/>
          <path id="Trazado_213836" data-name="Trazado 213836" d="M149.579,132.867c.123-.564-.379-1.42.86-1.314,1.212.1,1.826.464,1.833,1.353s-.614,1.27-1.816,1.369c-1.406.116-.661-.91-.878-1.409" transform="translate(-116.104 -102.111)" fill="#eeceb2"/>
          <path id="Trazado_213837" data-name="Trazado 213837" d="M68.607,132.945c-.162.542.435,1.475-.881,1.353-1.173-.109-1.825-.505-1.814-1.378s.649-1.252,1.846-1.342c1.325-.1.664.854.849,1.368" transform="translate(-51.164 -102.131)" fill="#eeceb2"/>
          <path id="Trazado_213838" data-name="Trazado 213838" d="M87.608,192.664a1.589,1.589,0,0,1,2.266.494,12.789,12.789,0,0,0,1.4,1.3c-.8.408-1.438.725-2.068,1.062-.274.146-.433.118-.551-.193-.341-.9-.7-1.794-1.046-2.666" transform="translate(-68.006 -149.34)" fill="#fa6d50"/>
          <path id="Trazado_213839" data-name="Trazado 213839" d="M123.622,194.3c.722-.681,1.362-1.289,2.007-1.893.523-.49,1.046-.057,1.553.042.165.032.011.286-.045.428-.292.746-.589,1.49-.883,2.235-.095.239-.169.458-.516.269-.65-.355-1.319-.676-2.117-1.081" transform="translate(-95.962 -149.179)" fill="#fa6d50"/>
          <path id="Trazado_213840" data-name="Trazado 213840" d="M50.5,256.639c-4.266,0-8.532.006-12.8-.009a.9.9,0,0,0-.956.556,3.942,3.942,0,0,1-6.983.012.9.9,0,0,0-.948-.569c-1.449.028-2.9-.009-4.349.021-.474.01-.6-.13-.6-.6-.029-2.089-.045-2.088,2.032-2.088.5,0,1.006-.028,1.505.006a2.785,2.785,0,0,0,2.886-1.219,3.811,3.811,0,0,1,6.423.6,1.03,1.03,0,0,0,1.081.627c8.476-.015,16.952,0,25.427-.028.694,0,.88.159.861.858-.052,1.837-.015,1.838-1.87,1.838Z" transform="translate(-18.524 -195.03)"/>
          <path id="Trazado_213841" data-name="Trazado 213841" d="M62.551,264.754a1.335,1.335,0,1,1-1.286-1.362,1.348,1.348,0,0,1,1.286,1.362" transform="translate(-46.482 -204.458)" fill="#fc4b52"/>
        </g>
      </g>
    </g>
  </g>
</svg>
