<svg xmlns="http://www.w3.org/2000/svg" xmlns:xlink="http://www.w3.org/1999/xlink" width="210" height="150.232" viewBox="0 0 210 150.232">
  <defs>
    <clipPath id="clip-path">
      <rect id="Rectángulo_88912" data-name="Rectángulo 88912" width="210" height="150.232" fill="none"/>
    </clipPath>
  </defs>
  <g id="Grupo_140836" data-name="Grupo 140836" transform="translate(-285 -1621.354)">
    <g id="Grupo_140749" data-name="Grupo 140749" transform="translate(285 1621.354)">
      <g id="Grupo_140748" data-name="Grupo 140748" clip-path="url(#clip-path)">
        <path id="Trazado_213844" data-name="Trazado 213844" d="M362.413,164.729c5.911.494,9.443,3.783,11.015,9.375v4.1c-1.288,2.938-2.711,5.772-5.751,7.338-.992.022-.948-.837-1.111-1.415-1.581-5.607-3.052-11.245-4.52-16.882-.213-.818-.844-1.843.367-2.516" transform="translate(-163.428 -74.432)" fill="#fc4b52"/>
        <path id="Trazado_213845" data-name="Trazado 213845" d="M50.863,4.871c.705-.624,1.566-.367,2.358-.369,7.241-.021,14.481-.033,21.722.006,1.385.007,2.338-.031,2.241-1.9C77.1.91,78.257.049,79.954.006c.477-.012.956,0,1.434,0h89.348c3.39,0,3.485.021,3.974,3.427.211,1.465,1.215,1.04,1.995,1.043,7.309.028,14.618.008,21.927.029.792,0,1.652-.255,2.358.367-.869.923-2.022.694-3.083.7-6.552.029-13.1,0-19.656.019-2.734.008-2.833.134-2.861,2.922-.022,2.251.053,4.5-.043,6.756.115,1.159.059,2.321.06,3.48q0,37.986-.008,75.972c0,1.277.231,2.609-.534,3.789a4.422,4.422,0,0,1-2.95.6q-49.2.02-98.4,0a5.047,5.047,0,0,1-2.792-.458.523.523,0,0,1-.144-.708c1.157-.828,2.5-.554,3.77-.561,1.462-.008,2.139-.618,2.095-2.085-.022-.749.009-1.5.009-2.251q0-37.663,0-75.327c0-.818-.026-1.638.055-2.454-.1-2.25-.022-4.5-.044-6.754-.028-2.791-.123-2.914-2.859-2.922-6.552-.018-13.1.01-19.656-.019-1.062,0-2.213.223-3.084-.7" transform="translate(-22.982 0)" fill="#e8e8e8"/>
        <path id="Trazado_213846" data-name="Trazado 213846" d="M47.611,163.378a.535.535,0,0,0-.025.376,3.749,3.749,0,0,1,.643,2.522q.023,7.979,0,15.957a3.54,3.54,0,0,1-.653,2.513c-.032,1.773-.025,3.548-.107,5.318-.093,2-.952,2.868-2.94,2.872q-20.793.031-41.585,0c-2.009,0-2.92-.88-2.923-2.858q-.037-20.79,0-41.581c0-2.13.935-2.96,3.258-2.973,5.257-.028,10.516,0,15.774-.014.748,0,1.5-.071,2.244-.109a3.085,3.085,0,0,1,2.286-.683c2.653,0,5.306-.071,7.958.034q5.842-.136,11.685-.012c3.588.078,4.941,1.479,4.988,5.038.048,3.69.024,7.381,0,11.071a3.525,3.525,0,0,1-.6,2.529" transform="translate(0 -65.373)" fill="#fc4b52"/>
        <path id="Trazado_213847" data-name="Trazado 213847" d="M86.791,200.184l.012-20.993q49.833.066,99.668.13c1.5,0,3-.029,4.494-.044a1.632,1.632,0,0,1,1.548-.387,3.865,3.865,0,0,1,1.793.73c-.056,1.066-1,.994-1.644,1.194-2.8.868-5.637,1.613-8.479,2.332-3.314.838-3.392.949-3.181,4.413a1.463,1.463,0,0,1-.179.786c-1.3,1-2.945.988-4.42,1.477-2.081.69-2.507,1.337-2.043,3.489.331,1.532.723,3.051,1.156,4.56.222.773.56,1.577-.126,2.311l-13.9.008a3.822,3.822,0,0,1-.7.407,7.214,7.214,0,0,1-2.435.228q-16.195.012-32.388,0a7.344,7.344,0,0,1-2.438-.224,3.543,3.543,0,0,1-.7-.413l-36.044,0" transform="translate(-39.216 -80.81)" fill="#636363"/>
        <path id="Trazado_213848" data-name="Trazado 213848" d="M281.586,109l-1.945-.345c.075-.118.161-.276.274-.284,4.676-.337,7.906-3.636,11.681-5.779,3.18-1.806,6.287-3.76,9.333-5.8,2.172-1.426,4.349-2.844,6.626-4.079a4.961,4.961,0,0,0,2.778-4.958q-.11-30.908-.027-61.817c0-1.185-.336-2.485.694-3.485.589.72.328,1.575.328,2.367q.022,31.718.012,63.437v2.471a18.507,18.507,0,0,0,5.327-2.983c2.773-2.087,4.951-.964,5.441,2.293a65.693,65.693,0,0,0,2.087,8.076,3.7,3.7,0,0,0,1.146,2.335c-.095.241-.321.517-.265.716,1.857,6.7,3.36,13.489,5.53,20.1.675,3.892,1.9,7.645,2.926,11.445.683,2.525-.175,3.732-2.813,3.783-7.366.14-14.719-.378-22.076-.55-4.556-.106-9.122-.161-13.682-.267-1.786-.042-3.574-1.075-5.364-.027-.4.105-.606-.145-.787-.437-2.118-7.544-4.165-15.109-6.09-22.707a19.346,19.346,0,0,0-1.132-3.5" transform="translate(-126.354 -10.141)" fill="#e5e5e5"/>
        <path id="Trazado_213849" data-name="Trazado 213849" d="M309.645,16.259q-.032,13.518-.061,27.035c-.01,13.315-.024,26.631.029,39.945a2.838,2.838,0,0,1-1.637,2.9c-2.919,1.61-5.744,3.391-8.608,5.1-1.037-1.079-.7-2.445-.7-3.7q-.034-31.428-.016-62.857c0-4.884,0-4.884-4.888-4.886-4.709,0-9.419.016-14.129-.013-1-.007-2.081.146-2.847-.781-.035-2.728.012-5.46-.133-8.182-.083-1.562.319-2.09,1.991-2.069,8.12.1,16.241.059,24.362.067a8.361,8.361,0,0,1,6.637,7.433" transform="translate(-125 -3.957)" fill="#636363"/>
        <path id="Trazado_213850" data-name="Trazado 213850" d="M49.094,83.986H38.842q0-33.045,0-66.09c0-4.955,1.881-7.528,6.587-9.067,8.128-.009,16.256.032,24.382-.069,1.676-.021,2.079.516,1.994,2.075-.147,2.723-.112,5.456-.152,8.185-.775.91-1.85.765-2.855.77-4.983.028-9.966,0-14.95.015-3.73.008-4.057.328-4.06,4.136q-.014,28.156-.014,56.312c0,1.273.254,2.62-.681,3.734" transform="translate(-17.55 -3.958)" fill="#636363"/>
        <path id="Trazado_213851" data-name="Trazado 213851" d="M271.4,180.331c.724-.093.883.346,1.04.95Q275.7,193.747,279,206.2a1.232,1.232,0,0,1-.034.4,1.276,1.276,0,0,1-.844.835c-3.947,1.024-7.776,2.539-11.887,2.885-2.855.361-3.346-1.8-4.02-3.767a4.473,4.473,0,0,1-1.071-2.375c-1.135-4.325-2.324-8.637-3.478-12.957a3.162,3.162,0,0,1-.11-2.375c-.1-.463-.205-.926-.3-1.39-.492-2.285.093-3.2,2.4-3.838,3.918-1.08,7.913-1.889,11.74-3.294" transform="translate(-116.165 -81.476)" fill="#fd3745"/>
        <path id="Trazado_213852" data-name="Trazado 213852" d="M138.006,217.765l.469-.01c.789.925.636,2.053.639,3.13.019,6.413,0,12.826.014,19.239.007,2.662.135,2.8,2.753,2.8q15.454.018,30.908,0c2.613,0,2.74-.137,2.747-2.8.016-6.413,0-12.826.014-19.239,0-1.078-.146-2.205.645-3.129l.469.017c-.021,8.195-.021,16.39-.089,24.585-.009,1.148.44,1.334,1.438,1.324,4.44-.042,8.88-.015,13.32-.02,1.422,0,2.594.4,2.943,1.955.394,1.757-.758,2.926-2.915,2.94q-9.221.058-18.441.068-24.591-.015-49.181-.062c-.274,0-.547,0-.82,0a2.266,2.266,0,0,1-2.548-2.327,2.306,2.306,0,0,1,2.565-2.547c3.414-.062,6.831-.021,10.246-.021,4.9,0,4.906,0,4.9-5q-.024-10.448-.071-20.9" transform="translate(-54.388 -98.389)" fill="#636363"/>
        <path id="Trazado_213853" data-name="Trazado 213853" d="M273.775,232c3.309-1.329,6.824-1.935,10.23-2.925.839-.244,1.667-.53,2.5-.8l.439.365q4.7,8.967,9.405,17.937c1.434,2.747.914,3.9-2.112,4.74-2.233.623-4.47,1.228-6.708,1.831a2.694,2.694,0,0,1-3.462-1.38q-5.148-9.886-10.292-19.773" transform="translate(-123.703 -103.144)" fill="#972d31"/>
        <path id="Trazado_213854" data-name="Trazado 213854" d="M252.119,195.887c1.613,5.887,3.362,11.737,4.659,17.707-1.708.453-3.411.919-5.123,1.353a2.279,2.279,0,0,1-3.026-1.629c-.609-1.8-1.157-3.624-1.731-5.438-.2-2.393-1.14-4.611-1.658-6.929-.507-2.265-.033-3.175,2.139-3.806,1.569-.456,3.159-.841,4.739-1.258" transform="translate(-110.727 -88.51)" fill="#e5e5e5"/>
        <path id="Trazado_213855" data-name="Trazado 213855" d="M276.873,27.459q9.214,0,18.427,0c3.765,0,4.143.371,4.144,4.062q0,34.087.008,68.175c-5.752,3.62-11.493,7.258-17.265,10.846-1.164.723-2.563.019-3.815.375l-1.54-.044q0-40.272,0-80.545c0-.956.024-1.913.037-2.869" transform="translate(-125.085 -12.407)" fill="#dff7f9"/>
        <path id="Trazado_213856" data-name="Trazado 213856" d="M57.546,92.436q0-30.641,0-61.281c0-3.133.558-3.693,3.7-3.695q9.429-.006,18.858.008.019,40.553.062,81.1c0,1.413-.39,1.969-1.845,1.867-1.563-.109-3.14-.026-4.71-.028-.043-4.555-.1-9.109-.126-13.664-.021-3.6-.587-4.179-4.109-4.2-3.944-.026-7.887-.073-11.831-.111" transform="translate(-26.002 -12.408)" fill="#dff7f9"/>
        <path id="Trazado_213857" data-name="Trazado 213857" d="M133.607,65.228c0,1.706.032,3.414-.008,5.12-.048,2.029-.85,2.909-2.835,2.944q-5.118.089-10.24,0c-2.047-.036-2.966-1.012-2.989-3.08q-.054-4.914,0-9.83c.021-2.247.838-3.2,3.029-3.255,3.411-.088,6.827-.064,10.239,0a2.562,2.562,0,0,1,2.816,2.985c-.053,1.7-.011,3.413-.011,5.119" transform="translate(-53.096 -25.787)" fill="#a7e446"/>
        <path id="Trazado_213858" data-name="Trazado 213858" d="M133.6,29.743c0,1.774-.042,3.55.01,5.323a2.5,2.5,0,0,1-2.672,2.911q-5.32.123-10.645-.015c-1.882-.051-2.78-1.218-2.771-3.1.015-3.344-.026-6.689.016-10.033.025-2.019.989-2.979,3.058-3.011q5.016-.077,10.033,0c2.119.029,2.921.879,2.964,3.018.033,1.637.007,3.276.006,4.914" transform="translate(-53.101 -9.839)" fill="#feca2e"/>
        <path id="Trazado_213859" data-name="Trazado 213859" d="M133.523,100.649c0,1.842.016,3.684-.008,5.525a2.323,2.323,0,0,1-2.54,2.562c-3.547.037-7.095.028-10.642.005a2.545,2.545,0,0,1-2.828-2.783c-.038-3.478-.056-6.958.006-10.436.035-1.98.936-2.78,2.958-2.794,3.411-.024,6.822-.031,10.233,0,2.2.02,2.786.623,2.819,2.8.026,1.7.005,3.411,0,5.115" transform="translate(-53.078 -41.89)" fill="#fc4b52"/>
        <path id="Trazado_213860" data-name="Trazado 213860" d="M125.767,127.937c1.706,0,3.413-.007,5.119,0a2.4,2.4,0,0,1,2.708,2.628q.047,5.425,0,10.851a2.3,2.3,0,0,1-2.538,2.559c-3.617.02-7.235.01-10.852,0a2.429,2.429,0,0,1-2.658-2.7q-.079-5.322,0-10.646c.03-1.813,1.075-2.71,2.9-2.7,1.774.009,3.549,0,5.324,0" transform="translate(-53.094 -57.806)" fill="#fc4b52"/>
        <path id="Trazado_213861" data-name="Trazado 213861" d="M209.96,72.271c-4.917,0-9.834.012-14.751-.005-2.148-.007-3-.738-2.91-2.51.091-1.8,1.193-2.418,2.878-2.415,9.971.018,19.941,0,29.912.014,2.13,0,3.425.986,3.249,2.54-.21,1.857-1.508,2.394-3.218,2.386-5.053-.026-10.107-.009-15.161-.009" transform="translate(-86.886 -30.428)" fill="#c5c5f6"/>
        <path id="Trazado_213862" data-name="Trazado 213862" d="M210.209,32.182c4.913,0,9.826-.009,14.739,0,2.184.005,3.367.865,3.4,2.413.033,1.568-1.158,2.5-3.311,2.5q-14.739.017-29.478,0a4.23,4.23,0,0,1-1.02-.039c-1.363-.347-2.4-.982-2.268-2.645.127-1.622,1.058-2.241,2.586-2.238q7.676.013,15.353,0" transform="translate(-86.871 -14.54)" fill="#c5c5f6"/>
        <path id="Trazado_213863" data-name="Trazado 213863" d="M210.312,107.439c-4.981,0-9.963.009-14.944-.005-1.55,0-3.126-.009-3.1-2.249.023-1.745.986-2.653,3.106-2.657,9.826-.022,19.653,0,29.479-.022a3.709,3.709,0,0,1,3.283,1.721c.547.809.07,1.57-.355,2.28-.534.891-1.4.946-2.324.942-5.05-.019-10.1-.009-15.149-.009" transform="translate(-86.876 -46.316)" fill="#c5c5f6"/>
        <path id="Trazado_213864" data-name="Trazado 213864" d="M210.325,138.412q7.373,0,14.747,0c2.1,0,3.474.963,3.238,2.464-.275,1.751-1.655,2.423-3.286,2.44-4.3.044-8.6.015-12.9.015-5.393,0-10.787.017-16.18-.008-2.579-.012-3.594-.772-3.676-2.535-.082-1.785.795-2.409,2.494-2.394,5.188.044,10.377.016,15.566.016" transform="translate(-86.871 -62.533)" fill="#c5c5f6"/>
        <path id="Trazado_213865" data-name="Trazado 213865" d="M165.329,72.27c-1.367,0-2.734,0-4.1,0A2.333,2.333,0,0,1,158.616,70a2.133,2.133,0,0,1,2.1-2.538,82.761,82.761,0,0,1,9.416.029,2.106,2.106,0,0,1,2,2.6,2.3,2.3,0,0,1-2.494,2.175c-1.436,0-2.871,0-4.307,0" transform="translate(-71.66 -30.428)" fill="#c5c5f6"/>
        <path id="Trazado_213866" data-name="Trazado 213866" d="M165.612,32.184c1.3,0,2.6.005,3.9,0a2.336,2.336,0,0,1,2.623,2.261,2.129,2.129,0,0,1-2.086,2.546,82.742,82.742,0,0,1-9.415-.021,2.11,2.11,0,0,1-2.013-2.6,2.3,2.3,0,0,1,2.484-2.186c1.5-.008,3.008,0,4.511,0" transform="translate(-71.655 -14.541)" fill="#c5c5f6"/>
        <path id="Trazado_213867" data-name="Trazado 213867" d="M165.357,107.378c-1.434,0-2.868.016-4.3,0a2.188,2.188,0,0,1-2.374-2.054,2.107,2.107,0,0,1,1.783-2.562,38.03,38.03,0,0,1,9.77-.135,2.144,2.144,0,0,1,1.937,2.659,2.188,2.188,0,0,1-2.513,2.1c-1.433-.007-2.867,0-4.3,0" transform="translate(-71.69 -46.257)" fill="#c5c5f6"/>
        <path id="Trazado_213868" data-name="Trazado 213868" d="M165.411,138.429c1.5,0,3-.019,4.5.006a2.015,2.015,0,0,1,2.221,1.932c.106,1.238-.239,2.387-1.675,2.634a29.457,29.457,0,0,1-10.122,0c-1.435-.251-1.772-1.409-1.66-2.643a2.021,2.021,0,0,1,2.235-1.92c1.5-.022,3,0,4.5,0" transform="translate(-71.688 -62.545)" fill="#c5c5f6"/>
        <path id="Trazado_213869" data-name="Trazado 213869" d="M27.018,178.984c0-3.067.013-6.135-.007-9.2a3.166,3.166,0,0,1,1.482-3.137c1.252-.709,2.2-.029,3.17.65,3.567,2.5,7.187,4.937,10.7,7.518,3.3,2.424,3.262,6.122-.056,8.53-3.583,2.6-7.246,5.088-10.873,7.627a2.715,2.715,0,0,1-3.052.393,2.793,2.793,0,0,1-1.363-2.768q.007-4.805,0-9.611" transform="translate(-12.205 -75.162)" fill="#ffe4e5"/>
        <path id="Trazado_213870" data-name="Trazado 213870" d="M191.084,217.751c0,7.845-.043,15.689.041,23.533.019,1.713-.318,2.367-2.221,2.351q-16.678-.141-33.358,0c-1.9.016-2.241-.63-2.223-2.347.085-7.844.04-15.689.042-23.533l37.719,0" transform="translate(-69.278 -98.389)" fill="#afafaf"/>
        <path id="Trazado_213871" data-name="Trazado 213871" d="M179.931,194.245c-2.252,0-4.5-.026-6.755.011-1.469.024-2.541-.288-2.644-2.058-.107-1.837.906-2.584,2.5-2.855a6.167,6.167,0,0,1,1.022-.017c3.957,0,7.915.01,11.872-.008a4.116,4.116,0,0,1,2.545.57,2.375,2.375,0,0,1,1.013,2.665,1.977,1.977,0,0,1-2.189,1.7c-2.456-.02-4.913-.006-7.369,0" transform="translate(-77.051 -85.539)" fill="#dff7f9"/>
        <path id="Trazado_213872" data-name="Trazado 213872" d="M325.376,169.1a2.228,2.228,0,0,1,2.382,1.643,2.462,2.462,0,0,1-1.246,2.946c-3.9,2.466-7.783,4.97-11.672,7.459-1.2.769-2.363,1.61-3.611,2.292-1.278.7-2.728.927-3.612-.5-.87-1.407-.458-2.689,1.024-3.625q7.579-4.785,15.108-9.649a2.484,2.484,0,0,1,1.627-.565" transform="translate(-138.791 -76.403)" fill="#fefefe"/>
        <path id="Trazado_213873" data-name="Trazado 213873" d="M174.013,233.689c0,2.181-.01,4.362,0,6.543.01,1.619-.709,2.654-2.374,2.692-1.766.041-2.557-.994-2.553-2.718.009-4.226-.02-8.451.013-12.677.016-2,.941-3.073,2.493-3.052,1.593.022,2.4,1.038,2.415,3.079s0,4.089,0,6.134" transform="translate(-76.4 -101.428)" fill="#e8e8e8"/>
      </g>
    </g>
  </g>
</svg>
