<svg xmlns="http://www.w3.org/2000/svg" xmlns:xlink="http://www.w3.org/1999/xlink" width="187" height="166.193" viewBox="0 0 187 166.193">
  <defs>
    <clipPath id="clip-path">
      <rect id="Rectángulo_88914" data-name="Rectángulo 88914" width="187" height="166.193" fill="none"/>
    </clipPath>
  </defs>
  <g id="Grupo_140837" data-name="Grupo 140837" transform="translate(896 10071.196)">
    <g id="Grupo_140754" data-name="Grupo 140754" transform="translate(-896 -10071.196)">
      <g id="Grupo_140754-2" data-name="Grupo 140754" clip-path="url(#clip-path)">
        <path id="Trazado_213904" data-name="Trazado 213904" d="M11.828,237.808a17.863,17.863,0,0,1-5.965-2.257c-3.209-2.108-4.748-5.264-5.852-8.744a2.109,2.109,0,0,0,.01-1.868q0-7.054-.006-14.107a3.3,3.3,0,0,1,2.335-.59c1.456-.026,2.912-.01,4.368-.01q88.2,0,176.407.013c1.3,0,2.679-.316,3.854.587l-.005,14.107a2.112,2.112,0,0,0,.007,1.866c-.762,1.834-1.1,3.878-2.624,5.336a13.165,13.165,0,0,0-1.157,1.554,12.8,12.8,0,0,1-9.16,4.124,4.339,4.339,0,0,0-2.055-.168c-17.912-.01-35.831-.308-53.735.084-15.247.333-30.5.464-45.728.16-19.549-.39-39.092-.033-58.636-.243a4.506,4.506,0,0,0-2.059.156" transform="translate(-0.005 -103.428)" fill="#e5e5e5"/>
        <path id="Trazado_213905" data-name="Trazado 213905" d="M186.973,107.4c-.631.027-1.263.077-1.894.077q-91.588.005-183.175,0c-.632,0-1.263-.05-1.895-.077Q0,59.531.008,11.66A11.279,11.279,0,0,1,10.577.13C11.394.048,12.219.017,13.04.017Q93.491.008,173.941,0c3.6,0,6.918.651,9.58,3.307A11.948,11.948,0,0,1,187,12.23q-.039,45.4-.015,90.8c0,1.456-.008,2.912-.012,4.369" transform="translate(0 0)" fill="#6a676b"/>
        <path id="Trazado_213906" data-name="Trazado 213906" d="M164.53,264.783a85.768,85.768,0,0,0,.708,19.639c.2,1.511.613,2.263,2.422,2.208,5.112-.155,10.232-.06,15.349-.047a4.519,4.519,0,0,1,2.053.172c-1,.969-2.263.662-3.429.663q-36.557.03-73.114.014c-2.469,0-4.938.021-7.406-.013a3.072,3.072,0,0,1-2.488-.649c3.653-.435,7.319-.107,10.977-.186,2.341-.051,4.686-.072,7.024.016,1.211.045,1.665-.4,1.818-1.568a91.149,91.149,0,0,0,.718-19.115c-.457-1.391.128-1.742,1.48-1.739,14.109.035,28.218.017,42.327.039.542,0,1.323-.387,1.56.564" transform="translate(-48.53 -129.976)" fill="#656565"/>
        <path id="Trazado_213907" data-name="Trazado 213907" d="M94.352,308.679q10.732.016,21.465.031,31.254.024,62.508.039c.821,0,1.643-.056,2.464-.087,2.737.221,4.43,1.863,4.528,4.389a4.572,4.572,0,0,1-4.248,4.91,12.971,12.971,0,0,1-1.7.1q-41.7.007-83.4.015c-2.365,0-4.437-.473-5.549-2.818-1.426-3.006.5-6.192,3.937-6.58" transform="translate(-44.257 -151.883)" fill="#515151"/>
        <path id="Trazado_213908" data-name="Trazado 213908" d="M127.453,264.607c-.452-.661-1.144-.414-1.737-.415-13.947-.014-27.9.005-41.842-.038-1.233,0-1.936.215-1.788,1.588-.263-1.388-1.164-1.564-2.44-1.562q-28.186.049-56.37,0c.575-.6,1.317-.338,1.981-.338q79.129-.02,158.258,0c.662,0,1.406-.269,1.973.348q-27.828.01-55.657.025a3.436,3.436,0,0,0-2.378.392" transform="translate(-11.453 -129.799)" fill="#cdcccd"/>
        <path id="Trazado_213909" data-name="Trazado 213909" d="M360.666,254.957a1.716,1.716,0,0,1,1.157-1.554,2.067,2.067,0,0,1-1.157,1.554" transform="translate(-177.472 -124.692)" fill="#dddcdd"/>
        <path id="Trazado_213910" data-name="Trazado 213910" d="M.021,239.226a1.262,1.262,0,0,1-.01,1.868q0-.935.01-1.868" transform="translate(-0.005 -117.716)" fill="#d3d3d4"/>
        <path id="Trazado_213911" data-name="Trazado 213911" d="M367.707,241.09a1.26,1.26,0,0,1-.006-1.866q0,.933.006,1.866" transform="translate(-180.732 -117.715)" fill="#d3d3d3"/>
        <path id="Trazado_213912" data-name="Trazado 213912" d="M101.547,107.19q-41.414,0-82.828.051c-1.994.006-2.348-.575-2.345-2.424q.09-41.6.042-83.208c0-4.456.735-5.2,5.155-5.2h130.7q14.723,0,29.446,0c4.163,0,4.963.815,4.963,5.012q0,41.7.042,83.4c0,1.855-.361,2.426-2.348,2.421q-41.414-.114-82.828-.051" transform="translate(-8.058 -8.074)" fill="#91d1fd"/>
        <path id="Trazado_213913" data-name="Trazado 213913" d="M97.5,102.1a28.743,28.743,0,0,1-13.079,4.581,35.636,35.636,0,0,1-39.876-31A35.537,35.537,0,0,1,65.408,38.79,34.294,34.294,0,0,1,79.915,35.7a2.873,2.873,0,0,1,.6,2.128c-.005,10.9.077,21.8-.036,32.7.045,1.956,1.357,3.366,2.254,4.916q7.107,12.279,14.178,24.577c.364.635.951,1.227.586,2.076" transform="translate(-21.77 -17.566)" fill="#43bcfc"/>
        <path id="Trazado_213914" data-name="Trazado 213914" d="M221.4,120.414c.89-8.6,8.216-16.509,17.175-18.54a22.566,22.566,0,0,1,26.51,15.883,4.365,4.365,0,0,1,.073.752c.559,1.557-.12,2.7-1.265,3.652a16.735,16.735,0,0,1-6.362,3.3c-10.2,2.761-20.374,2.828-30.439-.651-2.345-.81-4.535-1.969-5.692-4.391" transform="translate(-108.944 -49.864)" fill="#f1f1f1"/>
        <path id="Trazado_213915" data-name="Trazado 213915" d="M132.11,136.088q-7.387-12.871-14.772-25.743c-.938-1.637-1.837-3.3-2.753-4.945a1.821,1.821,0,0,1,.631-.406,9.33,9.33,0,0,1,2.629-.215q14.469-.005,28.939.006c1.055,0,2.163-.176,3.1.555.137,11.724-4.773,20.992-13.785,28.245a13.465,13.465,0,0,1-3.985,2.5" transform="translate(-56.384 -51.552)" fill="#ea745e"/>
        <path id="Trazado_213916" data-name="Trazado 213916" d="M114.891,71.334q-.179.047-.361.082Q114.5,53.56,114.474,35.7a36.5,36.5,0,0,1,23.562,8.962,18.664,18.664,0,0,1,1.533,1.665c.2.85-.468,1.256-.933,1.722q-11.017,11.057-22.062,22.086a5.3,5.3,0,0,1-1.683,1.2" transform="translate(-56.329 -17.569)" fill="#a1e09e"/>
        <path id="Trazado_213917" data-name="Trazado 213917" d="M115.295,81.629c.493-.566.954-1.163,1.483-1.694q11.59-11.662,23.2-23.309a33.353,33.353,0,0,1,10.256,25.026l-34.934-.022" transform="translate(-56.733 -27.864)" fill="#fed44f"/>
        <path id="Trazado_213918" data-name="Trazado 213918" d="M244.635,58.077A10.305,10.305,0,1,1,254.8,68.585a10.275,10.275,0,0,1-10.166-10.508" transform="translate(-120.377 -23.496)" fill="#f1f1f1"/>
        <path id="Trazado_213919" data-name="Trazado 213919" d="M220.961,137.051c4.649,4.633,10.62,5.5,16.776,6.158a49.842,49.842,0,0,0,20.116-1.922,16.72,16.72,0,0,0,4.855-2.514,3.92,3.92,0,0,0,2.01-3.628c2.211,7.028.258,9.992-6.827,12.547a43.832,43.832,0,0,1-11.313,1.988,53.845,53.845,0,0,1-17.212-1.594,18.4,18.4,0,0,1-5.527-2.448c-3.048-1.929-4-4.967-2.879-8.586" transform="translate(-108.505 -66.501)" fill="#e5e5e5"/>
      </g>
    </g>
  </g>
</svg>
