<svg xmlns="http://www.w3.org/2000/svg" xmlns:xlink="http://www.w3.org/1999/xlink" width="173" height="172.959" viewBox="0 0 173 172.959">
  <defs>
    <clipPath id="clip-path">
      <rect id="Rectángulo_88918" data-name="Rectángulo 88918" width="173" height="172.959" fill="none"/>
    </clipPath>
  </defs>
  <g id="Grupo_140839" data-name="Grupo 140839" transform="translate(-368 10083.097)">
    <g id="Grupo_140771" data-name="Grupo 140771" transform="translate(368 -10083.097)">
      <g id="Grupo_140771-2" data-name="Grupo 140771" clip-path="url(#clip-path)">
        <path id="Trazado_213968" data-name="Trazado 213968" d="M9.815,43.174c0-12.629.039-25.257-.046-37.885C9.754,2.928,10.393,1.156,12.485,0h96.281c2.3.851,3.12,2.518,3.068,4.928-.1,4.758-.031,9.52-.031,14.281-1.78.993-3.6.7-5.43.172a3.486,3.486,0,0,1-.493-2.421c-.023-2.982.018-5.964-.02-8.946-.023-1.839-.225-2.059-2.043-2.066-7.427-.03-14.855.01-22.283-.033a1.976,1.976,0,0,0-2.268,1.875C78.634,10.9,77.274,12,74.139,12.006q-13.336.037-26.672,0c-3.163-.008-4.439-1.04-5.091-4.23a1.979,1.979,0,0,0-2.285-1.859c-7.427.04-14.855.012-22.283.026a2.289,2.289,0,0,0-1.745.443c-.576.681-.391,1.5-.392,2.268q-.016,15.737-.007,31.475c0,3.575-.2,3.76-3.84,3.643a4.864,4.864,0,0,1-1.5-.191,1.091,1.091,0,0,1-.512-.408" transform="translate(-5.359 -0.001)" fill="#636363"/>
        <path id="Trazado_213969" data-name="Trazado 213969" d="M320.539,304.834c-2.137.126-3.969-1.1-6.018-1.357-3.367-1.248-6.052-3.5-8.678-5.854-.981-.879-1.67-2.087-2.945-2.634-2.875.529-5.73,1.258-8.673.412a9.9,9.9,0,0,1-4.183-2.089,3.349,3.349,0,0,1-.292-5.074,13.222,13.222,0,0,1,4.557-3.415,8.951,8.951,0,0,1-1.5.393,2.486,2.486,0,0,1-2.6-1.71,2.19,2.19,0,0,1,1.743-2.512,12.226,12.226,0,0,1,10.2,1.371c.426.274.8.617,1.242.87a41.287,41.287,0,0,0,12.854,5.7,25.608,25.608,0,0,1-2.345-5.99c-.653-2.129-.363-2.49,1.821-2.543a29.024,29.024,0,0,0,3.862-.129,14.362,14.362,0,0,0,6.349-2.513c.605-.44,1.139-1.128,2.043-1,1.651,3.946,2.256,8.153,3.047,12.313.062.325-.006.682.343.89v1.689a13.049,13.049,0,0,0,0,4.729v1.351a6.379,6.379,0,0,0-.984,2.412,6.673,6.673,0,0,1-5.444,4.683,12.753,12.753,0,0,1-4.4.008" transform="translate(-158.37 -151.797)" fill="#febfb2"/>
        <path id="Trazado_213970" data-name="Trazado 213970" d="M382.681,314.49a7.042,7.042,0,0,1,0-4.729Z" transform="translate(-209.681 -169.908)" fill="#f2b6b6"/>
        <path id="Trazado_213971" data-name="Trazado 213971" d="M142.925,41.931h5.57c8.327.019,16.653.073,24.979.024,1.39-.008,1.81.332,1.772,1.751-.1,3.767-.091,7.54,0,11.308.03,1.281-.354,1.593-1.6,1.584-7.708-.057-15.417-.031-23.126-.025-.673,0-1.346.053-2.019.082-1.758.721-3.63.116-5.421.473a3.379,3.379,0,0,1-.645-.009c-1.294-.083-2.589-.066-3.884-.066q-29.127,0-58.254-.008a5.38,5.38,0,0,1-3.126-.437,2.8,2.8,0,0,1-.484-1.9q-.041-5.437,0-10.875a3.017,3.017,0,0,1,.446-1.92,3.738,3.738,0,0,1,2.435-.476q30.473-.016,60.946,0a3.369,3.369,0,0,1,2.419.5" transform="translate(-42.05 -22.722)" fill="#fec21a"/>
        <path id="Trazado_213972" data-name="Trazado 213972" d="M288.868,167.154a5.736,5.736,0,0,1-1.52,8.569c-.383.255-.786.441-.781.991.038,3.592-1.93,6.232-4.157,8.748-2.093,2.4-4.967,2.985-7.893,3.081A11.573,11.573,0,0,1,266.376,186c-.038-.083-.075-.167-.113-.251a13.93,13.93,0,0,1-4.7-9.162c-.055-.614-.536-.776-.938-1.074-2.02-1.5-3.063-4.645-2.218-6.729.287-.707.527-1.523,1.5-1.629.8-.355,1.221.061,1.554.577a13.357,13.357,0,0,1,.115-2.61,12.785,12.785,0,0,1,1.237-4.862c.953-1.609,1.547-1.8,3.057-.71a9.53,9.53,0,0,0,4.437,1.933c.9.113,1.427-.1,1.354-1.139-.093-1.322.55-1.586,1.669-1.084a15.643,15.643,0,0,0,10.563.8c1.663-.423,2.04-.1,2.447,1.627a12.982,12.982,0,0,1,.518,3.158c-.03,1.5.527,2.247,2.014,2.306" transform="translate(-141.576 -87.137)" fill="#febfb2"/>
        <path id="Trazado_213973" data-name="Trazado 213973" d="M325.949,245.591a15.913,15.913,0,0,1-12.582,4.049c-1.418-.127-1.626.333-1.237,1.551.767,2.4,1.389,4.858,2.93,6.988-2.922-.017-10.73-3.268-13.762-5.688a3.191,3.191,0,0,1-.526-2.072c-.008-1.455,0-2.91-.005-4.365-.016-2.508-.1-2.6-2.682-2.6-3.3-.009-6.6,0-9.906,0a14.074,14.074,0,0,1-2.013-.064,1.412,1.412,0,0,1-1.143-.533c.469-.994,1.41-.778,2.2-.79,3.145-.047,6.291-.009,9.437-.023,2.3-.01,2.4-.1,2.4-2.348.013-5.729-.005-11.458.014-17.188a3.578,3.578,0,0,1,.5-2.579c4.622,1.338,9.4,2.222,13.63,4.7a20.723,20.723,0,0,1,7.845,7.939,59.172,59.172,0,0,1,4.9,13.031" transform="translate(-156.339 -120.63)" fill="#a7e446"/>
        <path id="Trazado_213974" data-name="Trazado 213974" d="M242.821,220.353a.666.666,0,0,1,.674-.261,1.979,1.979,0,0,1,.544,1.546c0,9.776.145,19.552-.068,29.325a2.821,2.821,0,0,1-1.382,1.827,38.846,38.846,0,0,1-12.2,5.608c-.645.184-1.414.409-1.919-.156-.554-.618-.013-1.288.281-1.856a19.415,19.415,0,0,0,1.763-4.727c.232-1.039-.062-1.5-1.144-1.446a19.006,19.006,0,0,1-6.016-.633,5.218,5.218,0,0,1-2.13-.97,1.188,1.188,0,0,1-.27-.45c.152-2.616,1.191-5,2.015-7.431.595-1.755,1.248-3.5,1.96-5.205a22.59,22.59,0,0,1,13.281-12.867,31.089,31.089,0,0,1,3.21-1.031c.691-.182,1.262-.488,1.4-1.273" transform="translate(-121.196 -120.718)" fill="#a7e446"/>
        <path id="Trazado_213976" data-name="Trazado 213976" d="M222.957,75.1a27.163,27.163,0,0,1,5.558-.074q.013,35.743.026,71.485c.122.72-.376,1.143-.794,1.58a45.292,45.292,0,0,0-3.417,3.712c-.283.37-.607.948-1.181.7-.521-.228-.471-.85-.478-1.347-.04-3.2,0-6.4-.025-9.593,0-.281-.016-.561-.041-.843-.056-16.658-.1-33.312.018-49.967.032-4.445,0-8.89.015-13.336a4.586,4.586,0,0,1,.319-2.313" transform="translate(-122.071 -41.095)" fill="#636363"/>
        <path id="Trazado_213977" data-name="Trazado 213977" d="M270.885,250.469q0-15.689,0-31.379l2.388-.766.008.084a2.256,2.256,0,0,1,.443,1.743,12.512,12.512,0,0,0,.376,2.829c.864,3.894,3.851,6.005,8.07,5.713a7.246,7.246,0,0,0,6.5-6.805c.06-.839-.027-1.685.07-2.522.056-.485.058-1.051.762-1.111a7.215,7.215,0,0,1,2.319.752c0,7.012-.03,14.024.035,21.034.013,1.343-.388,1.727-1.711,1.7-3.813-.082-7.628-.032-11.443-.031-.439,0-.9-.147-1.3.158a11.055,11.055,0,0,0-.6,4.778,5.139,5.139,0,0,1-.222,1.987c-.152.316-.385.636-.714.667-1.715.164-3.184,1.362-4.978,1.167" transform="translate(-148.582 -119.716)" fill="#feca2e"/>
        <path id="Trazado_213978" data-name="Trazado 213978" d="M292.366,151.663a2.412,2.412,0,0,0-1.988.757c-.372-2.313-.731-4.461-1.056-6.613-.135-.892-.421-1.185-1.428-.905-4.211,1.168-8.333,1.034-12.194-1.275a1.23,1.23,0,0,0-.1,1.454c.655,1.488-.339,1.48-1.273,1.436A7.9,7.9,0,0,1,269,144.284c-1.035-1.025-1.545-.619-2.159.344-1,1.573-1.069,3.391-1.421,5.136-1.875-4.34-.893-10.36,2.692-13.3.174-.142-.065-.056.137-.089,2.8-.454,4.5-2.838,6.932-3.95,3.481-1.59,7.018-2.387,10.8-1.314a1.207,1.207,0,0,0,.665.019c5.85,2.557,8.667,8.443,7.3,15.219a32.221,32.221,0,0,1-1.582,5.314" transform="translate(-145.074 -71.647)" fill="#333"/>
        <path id="Trazado_213980" data-name="Trazado 213980" d="M217.347,221.064v11.13c1.707-2.175,3.769-3.8,5.507-5.73,4.6-3.119,9.884-4.43,15.155-5.782,1.015,1.273-.191,1.421-.909,1.609a27.273,27.273,0,0,0-6.863,2.637,21.455,21.455,0,0,0-9.481,10.515,75.626,75.626,0,0,0-4.375,13.025c-2.126-.022-3.306-1.341-4.2-3.06a66.967,66.967,0,0,1,3.612-10.513,10.585,10.585,0,0,0,.83-4.255c-.045-2.475-.019-4.951-.008-7.426a4.359,4.359,0,0,1,.255-1.99.334.334,0,0,1,.477-.16" transform="translate(-116.384 -121.047)" fill="#85b638"/>
        <path id="Trazado_213981" data-name="Trazado 213981" d="M282.384,129.259c-.409.454-.921.316-1.412.233a15.412,15.412,0,0,0-13.711,4.229c-.473.44-.8.954-1.7.693-.968-.281-1.615.57-2.219,1.237-2.689,2.967-2.87,6.544-2.475,10.255.07.665.188,1.325.284,1.987v2.827c-.847-.211-1.232-1.01-2.016-.928-1.756-3.625-3.07-7.326-2.094-11.456a10.445,10.445,0,0,1,3.113-5.266c.53-.5,1.049-1.056,1.9-.522.66.415.863-.267,1.179-.589a15.867,15.867,0,0,1,19.151-2.7" transform="translate(-140.809 -69.776)" fill="#212121"/>
        <path id="Trazado_213982" data-name="Trazado 213982" d="M292.413,217.993c-.681,1.028-.3,2.179-.33,3.267-.1,3.839-3.131,7.354-6.681,7.65-4.77.4-8.1-2.049-8.929-6.423a31.37,31.37,0,0,1-.284-4.342,30.449,30.449,0,0,0,5.408,2.028,12.915,12.915,0,0,0,9.847-1.982,6.883,6.883,0,0,1,.885-.414.332.332,0,0,1,.085.216" transform="translate(-151.493 -119.453)" fill="#f8a294"/>
        <path id="Trazado_213983" data-name="Trazado 213983" d="M111.771,225.454q0,7.849,0,15.7c0,3.166-1.457,4.6-4.658,4.6q-46.336.005-92.673,0c-3.252,0-4.659-1.447-4.659-4.784q0-52.242,0-104.483c0-.73-.034-1.461-.053-2.191-.068-.859.515-1.184,1.187-1.406a5.15,5.15,0,0,1,1.505-.166c2.862-.067,3.218.265,3.218,3.119q.007,50.488.012,100.975c0,.876-.247,1.821.465,2.574a3.075,3.075,0,0,0,2.109.4q42.611.014,85.223,0a3.253,3.253,0,0,0,1.954-.346c.595-.509.5-1.2.5-1.866.006-2.955,0-5.91,0-8.864.005-2.723.009-2.723,2.641-3.209,1.074-.068,2.14-.755,3.227-.056" transform="translate(-5.333 -72.795)" fill="#636363"/>
        <path id="Trazado_213984" data-name="Trazado 213984" d="M290.725,346.229c-4.87.038-9.741.121-14.611.1-4.645-.019-9.293.177-13.937-.112-.11-.7.344-1.168.706-1.653a14.528,14.528,0,0,0,2.729-8.88c.034-5.626,0-11.253.017-16.879a4.08,4.08,0,0,1,.388-2.458,9.733,9.733,0,0,1,5.657.659,4.531,4.531,0,0,1,.372,2.466c.038,2.992.113,3.075,3.176,3.08,3.151,0,6.3-.006,9.454.006a4.6,4.6,0,0,1,2.312.329c.71.662.562,1.546.567,2.368.023,3.814.065,7.629-.009,11.442a12.542,12.542,0,0,0,2.307,7.586c.4.586.95,1.133.87,1.946" transform="translate(-143.799 -173.426)" fill="#feca2e"/>
        <path id="Trazado_213985" data-name="Trazado 213985" d="M245.31,298.656a25.544,25.544,0,0,1-5.424-.539,4.861,4.861,0,0,0-3.1,1.754,28.114,28.114,0,0,1-7.881,6.208,4.076,4.076,0,0,1-1.865.7c-1.117-.03-1.984.679-2.979,1.009l-2.97.427c-2.921-.006-4.427-1.892-5.459-4.261a17.044,17.044,0,0,1-1.128-8.091,59.452,59.452,0,0,1,2.051-11.572c.163-.6.182-1.388,1.088-1.477a19.386,19.386,0,0,0,8.893,1.335c1.115-.089,1.3.219,1.046,1.327a30.991,30.991,0,0,1-2.96,7.468c5.817-1.537,10.94-3.443,15.3-7.062a17.682,17.682,0,0,1,5.381-1.656,2.19,2.19,0,0,1,.575,1.854q.047,5.363,0,10.727a2.2,2.2,0,0,1-.574,1.854" transform="translate(-117.624 -155.125)" fill="#febfb2"/>
        <path id="Trazado_213986" data-name="Trazado 213986" d="M242.348,325a38.156,38.156,0,0,0,10.854-8.567c.679-.791,1.326-.153,1.991-.09.009,6.739.076,13.48,0,20.218a13.693,13.693,0,0,1-3.888,9.581c-2.47.021-4.943-.013-7.411.088-1.19.049-1.517-.345-1.506-1.517.055-5.954.027-11.909.022-17.864,0-.616-.043-1.233-.066-1.849" transform="translate(-132.931 -173.354)" fill="#a7e446"/>
        <path id="Trazado_213987" data-name="Trazado 213987" d="M320.9,346.146a14.213,14.213,0,0,1-3.719-10.31c.159-4.262.024-8.534.018-12.8.767-.62,1.531-1.241,1.251-2.408.146-1.538-.448-3.151.479-4.6,3.185,3.341,6.51,6.505,10.763,8.5.182.085.29.33.433.5-.019,6.466-.077,12.932-.024,19.4.012,1.39-.35,1.879-1.779,1.808-2.469-.122-4.946-.064-7.42-.082" transform="translate(-173.968 -173.343)" fill="#a7e446"/>
        <path id="Trazado_213988" data-name="Trazado 213988" d="M10.094,219.323c-.4-.562-.2-1.2-.2-1.8q-.037-51-.048-102c0-2.978,0-2.946-3.062-2.979-1.029-.011-1.907.092-2.392,1.133L.033,118.343v-1.679c0-6.58.04-13.16-.032-19.739-.015-1.4.368-1.938,1.776-1.755a15.309,15.309,0,0,1,2.68.187l.04-.016a2.23,2.23,0,0,1,.4,1.418,24.479,24.479,0,0,0,.634,5.424c-.212,1.348-.322,2.683.841,3.713a2.74,2.74,0,0,0,2.14.763,4.584,4.584,0,0,1,1.827.014c3,1.249,6.155,1.093,9.288,1.074,5.212-.031,10.423,0,15.635-.012,3.839-.011,4.246.5,3.562,4.36a1.035,1.035,0,0,1-.44.466,6.369,6.369,0,0,1-2.5.223c-7.585.009-15.17,0-22.755.013-.761,0-1.6-.217-2.178.548a6.246,6.246,0,0,0-.232,2.5q-.009,17.164,0,34.327c0,.673,0,1.346-.045,2.018.089,1.011.048,2.024.048,3.035q0,30.535-.012,61.07c0,1.032.287,2.163-.613,3.03" transform="translate(0 -52.183)" fill="#85b638"/>
        <path id="Trazado_213989" data-name="Trazado 213989" d="M359.187,338.952l4.4-.008a6.171,6.171,0,0,1-4.4.008" transform="translate(-197.019 -185.915)" fill="#e3b5c5"/>
        <path id="Trazado_213990" data-name="Trazado 213990" d="M47.309,40.5l51.632.037c4.106,0,8.212-.009,12.318.012.531,0,1.131-.232,1.592.261a15.142,15.142,0,0,1,.137,3.687c.03,3.488-.064,6.98.046,10.465.046,1.466-.561,1.927-1.854,1.922-.337,0-.675.017-1.013.017q-28.276,0-56.554,0a4.488,4.488,0,0,1-2.624-.42c-.825-1.165-.463-2.5-.513-3.769-.082-2.051-.178-2.215-2.232-2.22-7.655-.021-15.311,0-22.967-.011-3.144,0-3.144-.014-3.144-3.164q0-16.464,0-32.929a6.225,6.225,0,0,1,.093-1.846c.447-.526,1.052-.283,1.581-.284,7.989-.017,15.979.018,23.967-.044,1.206-.009,1.635.31,1.8,1.512.5,3.743,1.468,4.516,5.286,4.516q12.912,0,25.825,0c3.327,0,4.463-.924,4.872-4.221.167-1.344.537-1.838,2.029-1.819q11.814.144,23.629,0c1.554-.018,1.863.447,1.827,1.888-.1,3.936-.037,7.875-.037,11.813-1.4.019-2.806.055-4.21.056q-29.739.005-59.478,0c-.673,0-1.346.03-2.02.046a3.64,3.64,0,0,1-2.429.47c-4.158.015-8.316-.007-12.474.013-1.983.009-2.11.141-2.122,2.1-.019,2.978-.012,5.956,0,8.934.007,2.34.071,2.4,2.506,2.408,4.046.009,8.092-.006,12.137.009a3.213,3.213,0,0,1,2.4.56" transform="translate(-12.131 -6.687)" fill="#fefefe"/>
        <path id="Trazado_213991" data-name="Trazado 213991" d="M15.415,12.948c.028,6.013.066,12.026.08,18.04.014,5.847.045,11.695-.028,17.542-.017,1.377.335,1.8,1.756,1.787,8.377-.068,16.756,0,25.133-.065,1.415-.011,1.872.391,1.778,1.8-.1,1.564.014,3.144.034,4.717a2.006,2.006,0,0,1,.531,1.371c.066,2.56.082,5.122-.013,7.681-.021.561.035,1.289-.821,1.424-.038-4.062-.038-4.062-4.178-4.062q-9.336,0-18.673,0a12.117,12.117,0,0,1-5.964-1.407c-.055-.636.462-.978.744-1.441a2.507,2.507,0,0,0-.435-3.582A2.617,2.617,0,0,0,11.6,56.7c-.361.288-.546.894-1.191.721a20.768,20.768,0,0,1-.6-7.166,30.049,30.049,0,0,1,3.37.037c1.6.187,2.1-.324,2.081-1.992-.089-8.094-.04-16.189-.04-24.285,0-3.148-.011-6.3.01-9.444,0-.541-.195-1.122.183-1.628" transform="translate(-5.314 -7.102)" fill="#a7e446"/>
        <path id="Trazado_213992" data-name="Trazado 213992" d="M301.931,291.171q.009,2.47.019,4.94c-.136.1-.263.256-.422.268-3.56.27-7.164.885-10.587-.666a7.545,7.545,0,0,1-4.673-7.039c-.151-5.384-.053-10.772-.038-16.159a2.334,2.334,0,0,1,.525-1.725c4.537-.021,9.075-.026,13.613-.074,1.127-.012,1.648.4,1.627,1.571-.05,2.688-.043,5.377-.059,8.065a12.456,12.456,0,0,0-10.123-2.484,11.782,11.782,0,0,0-1.467.351,1.572,1.572,0,0,0-1.178,1.8,1.6,1.6,0,0,0,1.616,1.446c.889.033,1.786-.1,3.164-.2-.951.589-1.523.962-2.114,1.3a10.935,10.935,0,0,0-3.223,2.661c-1.313,1.673-1.172,3.193.459,4.559,2.4,2.009,5.259,2.388,8.236,2.121,1.552-.139,3.085-.489,4.626-.744" transform="translate(-156.976 -148.491)" fill="#131c46"/>
        <path id="Trazado_213993" data-name="Trazado 213993" d="M50.868,101.453c.639-1.266.246-2.615.283-3.924.062-2.182.02-4.368.021-6.552q29.672,0,59.343-.009c2.815,0,2.454.322,2.473-2.554.028-4.326.035-8.652.051-12.978.054-.039.109-.076.166-.113q.039,33,.077,66.009l-.116-.017-.118.007c-.933.733-2.039.53-3.089.53q-35.254.016-70.508.008c-4.779,0-9.558.01-14.338-.009a3.541,3.541,0,0,1-2.578-.516c-.028-3.765-.079-7.529-.078-11.294q.006-14.167.051-28.334c4.254-.2,8.51-.056,12.765-.082,4.65-.028,9.3,0,13.951-.014a3.052,3.052,0,0,0,1.646-.161Z" transform="translate(-12.317 -41.315)" fill="#dff7f9"/>
        <path id="Trazado_213994" data-name="Trazado 213994" d="M56.658,57.195q-8.258.054-16.515.114c-.734.006-.976-.326-.973-1.023.014-4.216.024-8.432-.009-12.649-.007-.872.394-1.009,1.131-1,5.452.037,10.9.048,16.356.067q.005,7.248.011,14.495" transform="translate(-21.48 -23.385)" fill="#cba124"/>
        <path id="Trazado_213995" data-name="Trazado 213995" d="M284.9,270.7c-.007,5.956-.043,11.912-.01,17.868a7.73,7.73,0,0,0,7.451,7.449c2.584.033,5.17,0,7.754,0,.34,1.47-.435,2-1.748,2.072q-6.623-.033-13.246-.068c-1.953-.012-2.207-.278-2.229-2.24-.015-1.284-.043-2.568-.065-3.853q0-7.218,0-14.435c.023-1.709.065-3.419.06-5.128,0-.841.153-1.54,1.073-1.814l.962.145" transform="translate(-155.124 -148.405)" fill="#0b1226"/>
        <path id="Trazado_213996" data-name="Trazado 213996" d="M211.9,279.144a37.6,37.6,0,0,0-2.313,9.862,26.785,26.785,0,0,0-.12,7.991c.6,3.689,2.132,6.422,5.882,7.548-.717.559-1.985-.173-2.308.518a7.967,7.967,0,0,0-.2,2.96c-.105,3.518.205,7.043-.169,10.556-.74-.585-.554-1.427-.562-2.186-.03-3.036-.044-6.073,0-9.108a2,2,0,0,0-1.627-2.335c-3.647-.961-5.355-3.616-6.107-7.119-.849-3.954-.188-7.844.441-11.722a62.3,62.3,0,0,1,2.057-8.346c.2-.637.354-1.321,1.061-1.637a11.409,11.409,0,0,0,3.94,2.753,1.445,1.445,0,0,0,.023.265" transform="translate(-111.885 -151.459)" fill="#f8a295"/>
        <path id="Trazado_213998" data-name="Trazado 213998" d="M108.32,246.152c-1.966,6.023-3.457,12.138-3.439,18.525a14.5,14.5,0,0,0,1.108,5.556,6.924,6.924,0,0,0,5.521,4.4c1.141.19,1.508.653,1.488,1.852-.064,4.038.023,8.078.054,12.117-.452.509-1.055.276-1.585.276q-43.756.019-87.511,0c-.533,0-1.13.222-1.6-.256.025-.673.074-1.345.074-2.018q.006-31.541,0-63.082c0-.674.028-1.348.043-2.022q34.28-.012,68.56-.025,10.977,0,21.953.011.018,5.635.033,11.27a3.205,3.205,0,0,1-.271,1.466,89.807,89.807,0,0,0-4.435,11.926" transform="translate(-12.264 -121.484)" fill="#fefefe"/>
        <path id="Trazado_213999" data-name="Trazado 213999" d="M11.135,109.092c.92-1.3,2.008-2.276,3.769-1.851a3.237,3.237,0,0,1,2.51,2.445c.428,1.641-.49,2.764-1.64,3.752-3.434.748-5.281-.983-4.639-4.346" transform="translate(-6.039 -58.768)" fill="#fdfefe"/>
        <path id="Trazado_214000" data-name="Trazado 214000" d="M50.932,133.152c-.419.416-.951.261-1.438.261q-13.462.008-26.924,0c.419-.413.951-.267,1.439-.267q13.461,0,26.923.011" transform="translate(-12.38 -73.016)" fill="#61cdab"/>
        <path id="Trazado_214001" data-name="Trazado 214001" d="M60.59,110.406a3.263,3.263,0,0,1,3.308-3.318,3.317,3.317,0,0,1,.009,6.626,3.246,3.246,0,0,1-3.317-3.308" transform="translate(-33.234 -58.738)" fill="#fdfefe"/>
        <path id="Trazado_214002" data-name="Trazado 214002" d="M39,107.092a3.37,3.37,0,0,1,3.308,3.181,3.439,3.439,0,0,1-3.234,3.448A3.316,3.316,0,0,1,39,107.092" transform="translate(-19.647 -58.741)" fill="#fdfefe"/>
        <path id="Trazado_214003" data-name="Trazado 214003" d="M291.762,277.709c-.076,1.107-.63,1.731-1.569,1.774a1.6,1.6,0,0,1-.113-3.188,1.624,1.624,0,0,1,1.682,1.414" transform="translate(-158.279 -151.551)" fill="#f6f7f8"/>
        <path id="Trazado_214004" data-name="Trazado 214004" d="M89.675,148.091a13.57,13.57,0,0,1,13.781-13.825,13.8,13.8,0,0,1,.012,27.6,13.561,13.561,0,0,1-13.793-13.771" transform="translate(-49.184 -73.646)" fill="#fc4b52"/>
        <path id="Trazado_214005" data-name="Trazado 214005" d="M55.907,53.027c-.368.771.118,1.29.68,1.808.452.416.877.863,1.286,1.322a.692.692,0,0,1-.052,1.042.667.667,0,0,1-1.033-.03c-.491-.457-.981-.918-1.435-1.411a1.544,1.544,0,0,0-1.6-.578c-2.045.372-3.552-.749-3.68-2.6a2.914,2.914,0,0,1,3.045-3.214c1.873.06,2.974,1.475,2.785,3.66" transform="translate(-27.463 -27.077)" fill="#fefcfb"/>
        <path id="Trazado_214006" data-name="Trazado 214006" d="M92.212,247.064a5.018,5.018,0,0,0,3.369-4.36c.015-.336-.026-.677.015-1.009.119-.953.2-2.1,1.452-2.094s1.818.985,1.878,2.175a6.414,6.414,0,0,1-.1,2.172c-.441,1.42.312,1.975,1.442,2.325a9.075,9.075,0,0,0,1.641.328c1.38.16,2,.471,2,2.288a22.869,22.869,0,0,1-1.04,5.851c-.23.88-1.131.969-1.942,1.006a17.522,17.522,0,0,1-8.068-1.119c-1.769-1.393-2.26-3.143-1.539-5.57a6.922,6.922,0,0,1,.891-1.994" transform="translate(-49.915 -131.424)" fill="#febfb2"/>
        <path id="Trazado_214007" data-name="Trazado 214007" d="M76.194,343.34h36.291c.45,0,.9,0,1.35.013.41.015.824.079.81.622-.012.474-.345.689-.774.731-.39.039-.786.033-1.18.033q-36.459,0-72.919,0c-.281,0-.563,0-.844,0-.525-.018-1.108-.065-1.066-.759.033-.564.562-.62,1.028-.629.45-.009.9-.006,1.35-.007H76.194" transform="translate(-20.767 -188.326)" fill="#12263f"/>
        <path id="Trazado_214008" data-name="Trazado 214008" d="M40.973,248.139c1.963-.424,3.128.679,4.164,2.3.749-1.01,1.359-2.083,2.724-2.257a4.228,4.228,0,0,1,4.5,5.1c-.66,3.294-3.011,5.282-5.569,7.1a19.325,19.325,0,0,1-4.688-4.238,7.48,7.48,0,0,1-1.133-8" transform="translate(-22.095 -136.058)" fill="#fc4b52"/>
        <path id="Trazado_214009" data-name="Trazado 214009" d="M112.925,310.665q-10.21,0-20.42,0a8.866,8.866,0,0,1-1.347-.03c-.54-.084-1.224-.142-1.151-.926.06-.651.635-.694,1.16-.7.506-.006,1.013,0,1.519,0H132.85c.394,0,.788-.01,1.181,0,.6.02,1.4-.111,1.452.745.057,1-.8.906-1.463.908q-7.763.014-15.526.005h-5.569" transform="translate(-49.367 -169.49)" fill="#12263f"/>
        <path id="Trazado_214010" data-name="Trazado 214010" d="M45.155,293.951c4.525,0,7.566,3.1,7.548,7.678a7.488,7.488,0,0,1-7.581,7.56,7.784,7.784,0,0,1-7.673-7.776c-.048-3.84,3.5-7.763,7.705-7.463" transform="translate(-20.542 -161.227)" fill="#12263f"/>
        <path id="Trazado_214011" data-name="Trazado 214011" d="M38.024,248.25c.172.143.392.3.289.547-1.775,4.354.8,7.068,3.607,9.734.661.628,1.787.818,1.925,1.959-1.215,1.295-2.332,1.225-3.68.036-1.991-1.757-3.965-3.481-4.878-6.074-1.025-2.907.059-5.337,2.737-6.2" transform="translate(-19.146 -136.168)" fill="#c93c41"/>
        <path id="Trazado_214012" data-name="Trazado 214012" d="M88.716,256.043c.051.2.211.468.137.6a5.879,5.879,0,0,0,.51,6.964l-.832.085c-3,.307-3.753-.36-3.894-3.459-.013-.279-.014-.559,0-.837.161-3.052.907-3.664,4.078-3.353" transform="translate(-46.419 -140.403)" fill="#a7e446"/>
        <path id="Trazado_214013" data-name="Trazado 214013" d="M116.2,156.632c0,1.628.033,3.257-.009,4.883-.045,1.7-1.079,2.373-2.563,1.561q-4.354-2.382-8.6-4.953c-1.382-.836-1.336-2.055.06-2.888q4.191-2.5,8.448-4.886c1.547-.867,2.608-.226,2.658,1.567.044,1.57.009,3.143.009,4.715" transform="translate(-57.051 -82.259)" fill="#fefefe"/>
        <path id="Trazado_214014" data-name="Trazado 214014" d="M56.326,54.186a1.436,1.436,0,0,1-1.341,1.463,1.346,1.346,0,0,1-1.579-1.363,1.312,1.312,0,0,1,1.3-1.469c.932-.079,1.437.475,1.616,1.368" transform="translate(-29.292 -28.967)" fill="#fe7916"/>
        <path id="Trazado_214015" data-name="Trazado 214015" d="M47.367,309.255c-3.7.034-6.175-2.271-6.22-5.791a6.073,6.073,0,0,1,5.929-6.4,6.249,6.249,0,0,1,6.258,5.995,6.034,6.034,0,0,1-5.967,6.192" transform="translate(-22.569 -162.945)" fill="#fefefe"/>
      </g>
    </g>
  </g>
</svg>
