<svg xmlns="http://www.w3.org/2000/svg" xmlns:xlink="http://www.w3.org/1999/xlink" width="173" height="170.664" viewBox="0 0 173 170.664">
  <defs>
    <clipPath id="clip-path">
      <rect id="Rectángulo_88916" data-name="Rectángulo 88916" width="173" height="170.664" fill="none"/>
    </clipPath>
  </defs>
  <g id="Grupo_140841" data-name="Grupo 140841" transform="translate(-1624 10073.348)">
    <g id="Grupo_140769" data-name="Grupo 140769" transform="translate(1624 -10073.348)">
      <g id="Grupo_140759" data-name="Grupo 140759" clip-path="url(#clip-path)">
        <path id="Trazado_213936" data-name="Trazado 213936" d="M0,215.769c.832-1.732.834-3.659,1.274-5.485A45.885,45.885,0,0,1,38.1,175.891a33.527,33.527,0,0,1,7.863-.6,1.123,1.123,0,0,1,.389.727c.112,3.07.416,6.145-.175,9.2-1.052,1.1-2.491.322-3.679.759a33.7,33.7,0,0,0-17.566,6.785C16.8,199.025,11.8,207.143,10.857,217.528c-.973,10.7,2.141,19.977,9.649,27.724,6.473,6.924,14.555,10.334,23.914,10.957a3.337,3.337,0,0,1,1.481.273,1.117,1.117,0,0,1,.362.471,56.747,56.747,0,0,1,.149,8.716,1.447,1.447,0,0,1-.448,1.057,44.257,44.257,0,0,1-29.31-10.48C7.5,248.718,2.243,238.937.386,227.277c-.058-.368.067-.812-.386-1.035v-2.365a2.581,2.581,0,0,0,0-2.027v-1.69a2.581,2.581,0,0,0,0-2.027Z" transform="translate(0 -96.115)" fill="#d2e1f1"/>
        <path id="Trazado_213937" data-name="Trazado 213937" d="M0,270.246a1.526,1.526,0,0,1,0,2.027Z" transform="translate(0 -148.228)" fill="#919efa"/>
        <path id="Trazado_213938" data-name="Trazado 213938" d="M0,278.477A1.526,1.526,0,0,1,0,280.5Z" transform="translate(0 -152.742)" fill="#919efa"/>
        <path id="Trazado_213939" data-name="Trazado 213939" d="M320.27,32.51c.021-4.559.089-9.119.032-13.677-.016-1.26.318-1.61,1.592-1.6q12.5.087,25,0c1.217-.008,1.476.371,1.476,1.523q-.044,54.472-.026,108.943c0,.7.217,1.467-1,1.458-9.006-.06-18.012-.073-27.018-.1-.8-.908-.561-2.024-.562-3.066q-.023-27.405-.011-54.811,0-17.876.01-35.753c0-.992-.206-2.043.512-2.919" transform="translate(-175.367 -9.451)" fill="#feca2e"/>
        <path id="Trazado_213940" data-name="Trazado 213940" d="M286.206,51.016c.022,2.194.062,4.387.062,6.581q0,44.984-.01,89.968c-9.334.134-18.667.17-28-.019-.855-.886-.6-2.01-.6-3.05q-.023-29.8-.011-59.6c0-5.346-.011-10.693.01-16.038,0-.88-.163-1.823.548-2.562.027-4.6.093-9.209.054-13.813-.01-1.165.291-1.519,1.489-1.512,8.82.056,17.64.038,26.46.044" transform="translate(-141.302 -27.958)" fill="#a7e446"/>
        <path id="Trazado_213941" data-name="Trazado 213941" d="M224.63,84.851c.025.563.072,1.125.072,1.686q0,39.781-.018,79.562c-4.722.036-9.446.081-14.168.1-3.827.019-7.653.01-11.48.014a.837.837,0,0,1-.434-.5c-.616-3.535-2.139-6.9-2.147-10.541-.043-17.84.027-35.679-.043-53.519.681-5.42.224-10.863.319-16.3.2-.666.755-.559,1.249-.559q13.325.02,26.649.045" transform="translate(-107.731 -46.512)" fill="#fc4b52"/>
        <path id="Trazado_213942" data-name="Trazado 213942" d="M144.786,122.468c.042.668.122,1.336.122,2q.01,24.515-.012,49.03a20.453,20.453,0,0,0,.869,6.627,38.091,38.091,0,0,1,1.363,6.749A44.253,44.253,0,0,1,143,211.505c-7.516,15.131-19.688,23.883-36.509,26.049a21.694,21.694,0,0,1-4.709.23q0-5.029-.01-10.059c1.072-.8,2.382-.554,3.564-.691a33.944,33.944,0,0,0,21.54-10.735,33.222,33.222,0,0,0,9.614-20.177,35.191,35.191,0,0,0-31.148-38.981c-1.194-.125-2.485,0-3.572-.734q.007-5.032.013-10.065a42.451,42.451,0,0,1,14.511,2.37c2.008-.124,3.7.852,5.387,1.683A45.961,45.961,0,0,1,144.2,174.073q-.006-24.588.012-49.269c0-.8-.257-1.718.575-2.336" transform="translate(-55.822 -67.173)" fill="#b0c0d2"/>
        <path id="Trazado_213943" data-name="Trazado 213943" d="M162.429,102.488c-.034.613-.1,1.226-.1,1.839q-.008,24.8,0,49.6v1.76c-5.674-13.07-14.932-22.21-28.386-26.953,1.007-.26.611-1.089.613-1.678.025-8.162.053-16.324-.016-24.485-.013-1.459.331-1.917,1.855-1.9,8.105.079,16.211.007,24.316.066,1.342.01,1.721-.382,1.7-1.712-.053-4.327.025-8.656.053-12.981.153,5.485.212,10.967-.038,16.447" transform="translate(-73.465 -47.193)" fill="#d2e1f1"/>
        <path id="Trazado_213944" data-name="Trazado 213944" d="M101.014,32.043Q116.75,16.288,132.47.518c.669-.673,1.024-.706,1.688,0,1.776,1.88,3.615,3.7,5.482,5.492.666.639.746,1.028.039,1.733q-19.19,19.1-38.332,38.257c-.733-.165-.744-.8-.755-1.327-.083-3.852-.1-7.7.005-11.557a1.533,1.533,0,0,1,.416-1.069" transform="translate(-55.136 0)" fill="#c93c41"/>
        <path id="Trazado_213945" data-name="Trazado 213945" d="M56.171,54.025c.018,4.064.027,8.128.062,12.192,0,.591-.2,1.234.272,1.76-.837.858-1.047-.221-1.358-.527-4.166-4.1-8.315-8.223-12.4-12.4-.83-.848-1.268-.837-2.094,0-4.609,4.693-9.314,9.292-13.908,14-.959.982-1.474.9-2.337-.04-1.6-1.736-3.266-3.417-5.01-5-.914-.832-.764-1.286.038-2.082Q30.091,51.357,40.657,40.694c.853-.861,1.311-.791,2.115.029,4.135,4.213,8.328,8.368,12.506,12.539.276.275.594.509.893.763" transform="translate(-10.294 -21.983)" fill="#fc4b52"/>
        <path id="Trazado_213946" data-name="Trazado 213946" d="M32.509,257.99a33.391,33.391,0,0,1-9.656-19.767,34.153,34.153,0,0,1,7.492-26.977c6.2-7.66,14.22-12.265,24.186-13.139,3.973-.526,4.282-.264,4.288,3.67,0,2.747.01,5.494,0,8.241a4.376,4.376,0,0,1-.428,2.445c-.519.661-1.29.571-2.005.67-8.2,1.132-13.861,5.482-16.226,13.482a17.867,17.867,0,0,0,2.069,15.235c.625.977,1.592,1.774,1.739,3.029a1.593,1.593,0,0,1-.838,1,28.114,28.114,0,0,0-9.846,11.27c-.173.346-.344.717-.772.838" transform="translate(-12.34 -108.549)" fill="#f8f8f8"/>
        <path id="Trazado_213947" data-name="Trazado 213947" d="M96.854,212.429a2.96,2.96,0,0,0,.34-1.937q0-4.939,0-9.879c0-2.639,0-2.638-2.579-2.635-.39,0-.781-.02-1.171-.031,1.211-.6,2.509-.187,3.76-.322,15.9.592,28.886,9.9,33.6,24.456,3.986,12.314,1.674,23.63-6.274,33.808a24.029,24.029,0,0,1-1.877,1.932c-.62-.2-.768-.79-1.009-1.277a29.6,29.6,0,0,0-9.028-10.521c-.562-.422-1.343-.674-1.4-1.559a11.094,11.094,0,0,1,1.665-2.707,18.752,18.752,0,0,0-14.649-28.823,3.284,3.284,0,0,1-.994-.152.743.743,0,0,1-.38-.353" transform="translate(-51.254 -108.388)" fill="#e1def3"/>
        <path id="Trazado_213948" data-name="Trazado 213948" d="M44.67,315.079a27.376,27.376,0,0,1,11.244-12.973,1.1,1.1,0,0,1,1.353.356,20.135,20.135,0,0,0,12.35,5.388,2.019,2.019,0,0,1,.8.257,1.15,1.15,0,0,1,.357.48,29.989,29.989,0,0,1,.2,5.894c.041,3.1.031,6.194,0,9.291-.009.827.1,1.724-.748,2.293a34.392,34.392,0,0,1-21.341-7.112,22.775,22.775,0,0,1-4.209-3.873" transform="translate(-24.501 -165.639)" fill="#a7e446"/>
        <path id="Trazado_213949" data-name="Trazado 213949" d="M101.257,325.949c.3-4.984.052-9.972.13-14.957.014-.953.01-1.906.015-2.859a4.835,4.835,0,0,1,2.544-.711,17.587,17.587,0,0,0,9.992-4.722c.456-.437.839-1.109,1.668-.871a28.5,28.5,0,0,1,11.332,13.126,33.916,33.916,0,0,1-18.774,10.4,37.292,37.292,0,0,1-6.671.718.935.935,0,0,0-.235-.127" transform="translate(-55.539 -165.523)" fill="#85b638"/>
        <path id="Trazado_213950" data-name="Trazado 213950" d="M77.895,268.915A18.988,18.988,0,0,1,65.4,264.141c-.544-.463-.932-1.132-1.709-1.285-1.227-2.183-2.89-4.107-3.718-6.531-4.305-12.6,4.241-25.549,17.905-25.9.118.026.235.055.353.082a2.836,2.836,0,0,1,.533,2.071q.02,16.951,0,33.9a2.6,2.6,0,0,1-.868,2.429" transform="translate(-32.282 -126.389)" fill="#ecbaa6"/>
        <path id="Trazado_213951" data-name="Trazado 213951" d="M101.023,269.011a7.166,7.166,0,0,0,.337-2.482q-.013-17.961,0-35.922a19.174,19.174,0,0,1,18.976,17.138,19.209,19.209,0,0,1-19.065,21.349,1.885,1.885,0,0,1-.251-.084" transform="translate(-55.41 -126.485)" fill="#e7a28a"/>
      </g>
    </g>
  </g>
</svg>
