<svg xmlns="http://www.w3.org/2000/svg" xmlns:xlink="http://www.w3.org/1999/xlink" width="190" height="104" viewBox="0 0 190 104">
  <defs>
    <clipPath id="clip-path">
      <rect id="Rect치ngulo_88844" data-name="Rect치ngulo 88844" width="69.359" height="83.047" fill="none"/>
    </clipPath>
  </defs>
  <g id="Grupo_140821" data-name="Grupo 140821" transform="translate(-180 -7725)">
    <g id="Grupo_138496" data-name="Grupo 138496" transform="translate(-105.049 7314)">
      <rect id="Rect치ngulo_41122" data-name="Rect치ngulo 41122" width="190" height="104" transform="translate(285.049 411)" fill="none"/>
      <g id="Grupo_117447" data-name="Grupo 117447" transform="translate(-3337.23 1038.208)" opacity="0.3">
        <path id="Trazado_158283" data-name="Trazado 158283" d="M3677.784-530.075h0a16.354,16.354,0,0,0,23.129,0l67.216-67.214a16.357,16.357,0,0,0,0-23.129,16.355,16.355,0,0,0-23.129,0L3677.784-553.2A16.353,16.353,0,0,0,3677.784-530.075Z" transform="translate(14.296)" fill="#fc4b52"/>
        <path id="Trazado_158284" data-name="Trazado 158284" d="M3652.069-530.075h0a16.354,16.354,0,0,0,23.129,0l67.216-67.214a16.358,16.358,0,0,0,0-23.129,16.355,16.355,0,0,0-23.129,0L3652.069-553.2A16.354,16.354,0,0,0,3652.069-530.075Z" transform="translate(0)" fill="#feca2e"/>
      </g>
      <g id="Grupo_140610" data-name="Grupo 140610" transform="translate(345.049 421)">
        <g id="Grupo_140610-2" data-name="Grupo 140610" clip-path="url(#clip-path)">
          <path id="Trazado_213751" data-name="Trazado 213751" d="M58.8,0c2.086.7,2.856,2.163,2.83,4.332C61.553,10.516,61.6,16.7,61.6,22.889c0,1.084-.192,1.338-1.176,1.63-.581.274-.916-.079-1.2-.494a2.729,2.729,0,0,1-.351-1.631c0-2.692,0-5.383,0-8.075,0-1.04-.051-1.079-1.1-1.089-.755-.007-1.51.017-2.265-.013a9.949,9.949,0,0,1-1.137.023H4.329c-1.492,0-1.493,0-1.493,1.531q0,13.944,0,27.888A3.419,3.419,0,0,1,2.56,44.48c-.282.478-.611.928-1.29.635A1.345,1.345,0,0,1,.087,43.562Q.1,23.624.091,3.685A3.67,3.67,0,0,1,2.9,0Z" transform="translate(-0.068)"/>
          <path id="Trazado_213752" data-name="Trazado 213752" d="M5.545,91.789c1.034-.264,1.261-.569,1.262-1.736q0-14.8-.012-29.593c0-.62.068-.87.8-.869q25.749.037,51.5.021c.242,0,.484.026.727.04a1.47,1.47,0,0,1,.262,1.074q.008,10.848,0,21.7a1.366,1.366,0,0,1-.264,1.067c-.513.055-.6-.392-.769-.695a10.831,10.831,0,0,0-20.273,3.594,25.106,25.106,0,0,0-.166,2.989q.011,7.091,0,14.182c0,.324,0,.648-.024.972a.746.746,0,0,1-.783.758c-.27.018-.541.02-.811.02H8.9c-.217,0-.434,0-.649-.011a1.545,1.545,0,0,1-1.641-1.706c-.028-2-.041-4,0-6a2.647,2.647,0,0,0-1.072-2.608v-3.2" transform="translate(-4.343 -46.674)" fill="#dff7f9"/>
          <path id="Trazado_213753" data-name="Trazado 213753" d="M269.05,244.508a8.2,8.2,0,0,1,.787,3.353c.055,1.4.026,2.808.043,4.213.012,1,.273,1.311,1.267,1.573l.005,3.2c-.98.213-1.258.546-1.273,1.552a17.809,17.809,0,0,1-.341,4.669,11.817,11.817,0,0,1-9.36,8.85c-.95.217-.969.176-.971-.757q-.016-9.076-.027-18.152a1.614,1.614,0,0,1,.083-.872c.338.329.233.757.234,1.148.009,3.643,0,7.286.007,10.929a2.187,2.187,0,0,0,.067.826,13.342,13.342,0,0,0,3.684-5.111c1.468-3.334,2.994-6.643,4.453-9.981a14.253,14.253,0,0,0,1.1-4.623c.023-.29-.026-.6.246-.82" transform="translate(-202.987 -191.51)" fill="#9eabb9"/>
          <path id="Trazado_213754" data-name="Trazado 213754" d="M260.331,74.42c-1.012.264-1.257.573-1.258,1.654,0,4.451-.014,8.9.012,13.352,0,.67-.131.828-.8.609s-1.617-.071-1.971-.487-.137-1.329-.148-2.025a12.383,12.383,0,0,0-.854-4c.241-.283.131-.622.131-.934q.01-11.452.005-22.9c1.054-.014,2.108,0,3.16-.051.538-.024.458.3.458.624q0,4.7,0,9.4c0,1.011.272,1.328,1.257,1.57q0,1.6,0,3.2" transform="translate(-199.976 -46.705)" fill="#d2eefc"/>
          <path id="Trazado_213755" data-name="Trazado 213755" d="M11.4,19.161c-.129-2.321-.048-4.643-.041-6.965a.969.969,0,0,1,.919-.968,3.208,3.208,0,0,1,.567-.016q25.426,0,50.851,0c.216,0,.432.019.648.028a3.475,3.475,0,0,1,.156,2.323c-.036.3-.311.409-.571.492-.14.076-.292.132-.432.211a1.061,1.061,0,0,0-.606,1.051,1.108,1.108,0,0,0,.84.973c.319.113.713.112.812.551.287,2.337.238,2.4-2.018,2.4q-25.083,0-50.167,0a2.081,2.081,0,0,1-.959-.073" transform="translate(-8.869 -8.778)" fill="#a7e446"/>
          <path id="Trazado_213756" data-name="Trazado 213756" d="M63.961,13.956a.764.764,0,0,0,.659-.947A15.79,15.79,0,0,1,64.6,11.26c.811-.01,1.623-.04,2.434-.023s1.172.393,1.178,1.218c.015,2.081-.01,4.161.017,6.242.007.53-.211.625-.675.617-1.272-.021-2.544,0-3.817,0q-25.582,0-51.164-.007c-.3,0-.644.137-.918-.127q25.881,0,51.762-.008c1.31,0,1.177.141,1.185-1.156,0-.486,0-.972,0-1.458-.033-.225.153-.322.271-.46.693-.8.5-1.514-.512-1.906-.148-.057-.316-.073-.4-.236" transform="translate(-9.131 -8.797)" fill="#85b638"/>
          <path id="Trazado_213757" data-name="Trazado 213757" d="M62.133,93.066q-3.771,0-7.542,0c-.954,0-1.5-.445-1.508-1.194s.566-1.234,1.493-1.235q7.624-.01,15.247,0c.928,0,1.474.5,1.454,1.259s-.518,1.165-1.44,1.168c-2.568.006-5.136,0-7.7,0" transform="translate(-41.577 -70.986)"/>
          <path id="Trazado_213758" data-name="Trazado 213758" d="M33.034,117.344c-2.108,0-4.216,0-6.324,0a3.493,3.493,0,0,1-.883-.075,1.09,1.09,0,0,1-.859-1.2,1.076,1.076,0,0,1,.9-1.09,4.119,4.119,0,0,1,.887-.058q6.243-.005,12.487,0c.108,0,.216,0,.324,0,.932.028,1.5.5,1.484,1.235s-.578,1.184-1.529,1.2-1.892,0-2.838,0H33.034" transform="translate(-19.554 -90.002)" fill="#010101"/>
          <path id="Trazado_213759" data-name="Trazado 213759" d="M31.222,211.708c1.649,0,3.3-.006,4.947,0,.878,0,1.423.479,1.421,1.2a1.268,1.268,0,0,1-1.426,1.222q-4.906.016-9.812,0c-.885,0-1.4-.481-1.4-1.225s.506-1.2,1.405-1.2c1.622-.008,3.244,0,4.865,0" transform="translate(-19.543 -165.818)"/>
          <path id="Trazado_213760" data-name="Trazado 213760" d="M69.1,238.238c-1.595,0-3.189.006-4.784,0-.942,0-1.5-.469-1.492-1.217s.577-1.21,1.512-1.212q4.824-.008,9.649,0c.953,0,1.48.456,1.474,1.23s-.516,1.195-1.493,1.2c-1.622.007-3.243,0-4.865,0" transform="translate(-49.203 -184.691)"/>
          <path id="Trazado_213761" data-name="Trazado 213761" d="M70.316,165.648c-1.543,0-3.086.006-4.629,0-.895,0-1.437-.45-1.461-1.169-.025-.739.557-1.256,1.472-1.258q4.588-.013,9.176,0c.941,0,1.5.475,1.493,1.228s-.546,1.2-1.5,1.2c-1.516.007-3.032,0-4.548,0" transform="translate(-50.304 -127.835)"/>
          <path id="Trazado_213762" data-name="Trazado 213762" d="M30.412,139.116c1.381,0,2.761-.008,4.142,0,.842.007,1.351.451,1.377,1.16a1.23,1.23,0,0,1-1.369,1.265q-4.142.02-8.284,0a1.2,1.2,0,0,1-1.33-1.214,1.187,1.187,0,0,1,1.322-1.208c1.38-.015,2.761,0,4.142,0" transform="translate(-19.541 -108.959)"/>
          <path id="Trazado_213763" data-name="Trazado 213763" d="M81.62,187.483c1.081,0,2.163-.014,3.243,0,.851.015,1.355.456,1.383,1.157a1.222,1.222,0,0,1-1.368,1.262q-3.324.034-6.649,0a1.25,1.25,0,0,1-1.39-1.248c.021-.714.561-1.163,1.456-1.173,1.108-.013,2.216,0,3.325,0" transform="translate(-60.183 -146.842)" fill="#010101"/>
          <path id="Trazado_213764" data-name="Trazado 213764" d="M29.178,187.48c.947,0,1.894-.016,2.841,0a1.216,1.216,0,1,1,.037,2.416c-1.948.026-3.9.029-5.843,0a1.162,1.162,0,0,1-1.262-1.271c.031-.7.487-1.121,1.306-1.141.973-.024,1.948-.006,2.922-.006" transform="translate(-19.541 -146.838)" fill="#010101"/>
          <path id="Trazado_213765" data-name="Trazado 213765" d="M153.985,93.037c-.838,0-1.677.014-2.514,0a1.207,1.207,0,1,1-.09-2.411q2.635-.053,5.271,0a1.185,1.185,0,0,1,1.176,1.285,1.2,1.2,0,0,1-1.248,1.121c-.865.021-1.73,0-2.6.006" transform="translate(-117.63 -70.958)" fill="#000101"/>
          <path id="Trazado_213766" data-name="Trazado 213766" d="M92.257,139.115c.756,0,1.513-.018,2.268.006a1.205,1.205,0,0,1,.05,2.41c-1.539.037-3.079.033-4.617,0a1.208,1.208,0,1,1,.031-2.415c.756-.021,1.512,0,2.268,0" transform="translate(-69.498 -108.956)"/>
          <path id="Trazado_213767" data-name="Trazado 213767" d="M69.3,166.2c-.045-.665-.521-.965-1.138-1.07-.832-.143-1.357.267-1.493,1.231a18.87,18.87,0,0,0-.051,2.59,11.676,11.676,0,0,1-9.184,10.956c-.741.133-.895.032-.905-.7q-.045-3.113-.147-6.225c-.118-3.777-.035-7.561-.031-11.342a1.808,1.808,0,0,1,.113-.954,1.511,1.511,0,0,1,.553-.464,4.206,4.206,0,0,0,2.072-3.636c.06-1.1.049-2.213,0-3.318a4.132,4.132,0,0,0-2-3.586,1.1,1.1,0,0,1-.585-1.061c.013-.809.019-1.619,0-2.428-.014-.553.2-.714.737-.593a11.491,11.491,0,0,1,8.68,7.371,10.811,10.811,0,0,1,.7,4.1c-.029,1.021-.009,2.043,0,3.065a2.214,2.214,0,0,0,.434,1.439c.284.35.617.621,1.109.349a1.348,1.348,0,0,0,1.177-1.562c-.035-1.241.025-2.485-.026-3.725a13.963,13.963,0,0,0-7.12-11.96,1.2,1.2,0,0,1-.672-1.206c.024-4.778.016-9.557.012-14.335,0-1.084-.182-1.323-1.177-1.633-.585-.279-.918.078-1.2.5a2.771,2.771,0,0,0-.344,1.637q0,5.949,0,11.9c0,1.451,0,1.435-1.456,1.143-.529-.106-.812-.336-.823-.9a19.814,19.814,0,0,0-.191-2.173,4.826,4.826,0,0,0-1-3c-.091-.165-.187-.326-.271-.494a11.074,11.074,0,0,0-21,5.006q-.031,8.106.009,16.212c0,.614-.127.817-.789.815q-14.658-.035-29.317-.017c-1.183,0-1.5-.315-1.5-1.481,0-2.324,0-4.647,0-6.971,0-1.006-.273-1.324-1.259-1.573a1.338,1.338,0,0,0-1.184,1.553c.025,2.3.089,4.6-.013,6.891a3.75,3.75,0,0,0,4.082,4.04c7.256-.067,14.513-.012,21.769-.041.772,0,1.046.117,1.032.983-.06,3.512-.046,7.027-.012,10.54a4.807,4.807,0,0,0,9.611-.134c.037-3.567.021-7.135,0-10.7,0-.527.128-.71.675-.682a22.228,22.228,0,0,0,2.679,0c.7-.049.834.207.83.861-.018,2.891-.168,5.8.085,8.671a14.149,14.149,0,0,0,10.66,12.3,14.366,14.366,0,0,0,15.217-5.492A15.629,15.629,0,0,0,69.3,166.2m-35.243.417c0,1.7.009,3.4,0,5.106a2.384,2.384,0,1,1-4.755.018c-.008-3.512.011-7.024-.016-10.536,0-.548.164-.671.679-.655,1.163.037,2.328.042,3.49,0,.525-.02.624.158.616.639-.028,1.81-.011,3.62-.011,5.43" transform="translate(0 -99.793)"/>
          <path id="Trazado_213768" data-name="Trazado 213768" d="M115.586,117.318c-.7,0-1.4.019-2.105,0a1.254,1.254,0,0,1-1.357-1.2,1.229,1.229,0,0,1,1.329-1.217c1.484-.024,2.969-.025,4.453,0a1.19,1.19,0,0,1,1.27,1.185,1.2,1.2,0,0,1-1.242,1.221c-.781.037-1.565.008-2.348.008v0" transform="translate(-87.82 -89.978)" fill="#010101"/>
          <path id="Trazado_213769" data-name="Trazado 213769" d="M131.558,224.053a1.176,1.176,0,0,1-1.221-1.369,1.217,1.217,0,0,1,.189-.526,2.088,2.088,0,0,0-.007-2.577,1.145,1.145,0,0,1,.451-1.725,1.212,1.212,0,0,1,1.693.616c.054.093.1.192.147.288,1.164,2.289,1.155,2.5-.2,4.646a1.235,1.235,0,0,1-1.053.648" transform="translate(-102.058 -170.517)"/>
          <path id="Trazado_213770" data-name="Trazado 213770" d="M27.68,77.736a1.164,1.164,0,0,1-.883,1.122,1.106,1.106,0,0,1-1.336-.5c-.413-.721-.764-1.478-1.119-2.23a1.034,1.034,0,0,1,.064-.934c.326-.647.626-1.309.979-1.941A1.166,1.166,0,0,1,27.02,72.7a1.2,1.2,0,0,1,.51,1.656.972.972,0,0,1-.105.217A1.778,1.778,0,0,0,27.42,76.9a1.232,1.232,0,0,1,.259.836" transform="translate(-18.999 -56.825)"/>
          <path id="Trazado_213771" data-name="Trazado 213771" d="M160.7,117.324c-.621,0-1.245.034-1.864-.009a1.149,1.149,0,0,1-1.167-1.2,1.117,1.117,0,0,1,1.157-1.193c1.242-.04,2.486-.036,3.728,0a1.113,1.113,0,0,1,1.133,1.142,1.149,1.149,0,0,1-1.124,1.237c-.617.05-1.242.011-1.863.011v.007" transform="translate(-123.494 -89.994)" fill="#010101"/>
          <path id="Trazado_213772" data-name="Trazado 213772" d="M137.112,141.531c-.566,0-1.133.021-1.7,0a1.226,1.226,0,0,1-1.269-1.2,1.2,1.2,0,0,1,1.3-1.224q1.617-.027,3.235,0a1.208,1.208,0,0,1,1.315,1.22,1.239,1.239,0,0,1-1.271,1.2c-.538.026-1.078,0-1.617,0" transform="translate(-105.069 -108.943)"/>
          <path id="Trazado_213773" data-name="Trazado 213773" d="M27.777,165.61c-.541,0-1.082.021-1.621,0a1.2,1.2,0,0,1-.082-2.4c1.16-.047,2.325-.05,3.484.006a1.2,1.2,0,0,1-.078,2.392c-.566.026-1.135.005-1.7.006" transform="translate(-19.546 -127.801)" fill="#010101"/>
          <path id="Trazado_213774" data-name="Trazado 213774" d="M99.029,211.7c.485,0,.971-.021,1.454.006a1.119,1.119,0,0,1,1.161,1.1,1.134,1.134,0,0,1-1.05,1.291,30.378,30.378,0,0,1-3.228,0,1.167,1.167,0,0,1-1.1-1.263,1.2,1.2,0,0,1,1.227-1.135c.511-.021,1.023,0,1.535,0" transform="translate(-75.4 -165.806)" fill="#010101"/>
          <path id="Trazado_213775" data-name="Trazado 213775" d="M27.619,238.18c-.485,0-.97.02-1.454,0a1.205,1.205,0,0,1-.037-2.41c1.022-.039,2.047-.041,3.069,0a1.2,1.2,0,0,1-.043,2.4c-.51.029-1.023.006-1.534.007" transform="translate(-19.545 -184.64)" fill="#010101"/>
          <path id="Trazado_213776" data-name="Trazado 213776" d="M201.843,241a10.711,10.711,0,0,1-3.1-7.276q-.135-6.319-.016-12.642a11.858,11.858,0,0,1,10.087-11.31c.42-.062.59-.011.58.453-.024,1.08-.025,2.161,0,3.241.01.4-.168.553-.491.719a3.8,3.8,0,0,0-2.159,3.535c-.018.783.046,1.571-.013,2.35a4.481,4.481,0,0,0,2.585,4.843,1.614,1.614,0,0,1,.059.718c0,4.532-.018,9.065.022,13.6a1.277,1.277,0,0,1-1.015,1.407,14.751,14.751,0,0,1-5.423.784,2.105,2.105,0,0,1-1.119-.419" transform="translate(-155.612 -164.288)" fill="#b5c3ce"/>
          <path id="Trazado_213777" data-name="Trazado 213777" d="M168.262,166.48c.093-2.517-.209-5.633.133-8.728a8.6,8.6,0,0,1,17.081.446,4.949,4.949,0,0,1-.014,2.314c-.332.665-1.383.42-2.111.6a14.385,14.385,0,0,0-10.935,13.965c-.013,1.176.206,1.047-1.092,1.057-.785.006-1.573-.035-2.355.013-.576.035-.727-.159-.721-.724.028-2.784.013-5.567.013-8.939" transform="translate(-131.763 -117.793)" fill="#e5f6fd"/>
          <path id="Trazado_213778" data-name="Trazado 213778" d="M269.169,217.27a17.065,17.065,0,0,1-2.044,7.638c-1.381,3.01-2.738,6.032-4.124,9.04a13.621,13.621,0,0,1-3.62,4.483V224.9a4.492,4.492,0,0,0,2.585-4.836c-.073-.966.025-1.946-.069-2.909a3.6,3.6,0,0,0-2.086-2.977c-.319-.161-.509-.315-.5-.714.028-1.078.008-2.158.011-3.237,0-.266-.052-.517.4-.5,3.71.162,8.362,3.86,9.444,7.536" transform="translate(-203.105 -164.273)" fill="#b5c3ce"/>
          <path id="Trazado_213779" data-name="Trazado 213779" d="M213.289,295.795a13.075,13.075,0,0,0,6.739-.694.957.957,0,0,0,.718-1.076c-.028-4.449-.016-8.9-.014-13.347,0-.323.022-.646.033-.969a1.353,1.353,0,0,1,.086.79c0,6.078-.021,12.157.005,18.235,0,.749-.191.941-.911.789a11.7,11.7,0,0,1-6.657-3.728" transform="translate(-167.058 -219.08)" fill="#9eabb9"/>
          <path id="Trazado_213780" data-name="Trazado 213780" d="M249.916,242.758c0,.539.018,1.078,0,1.616a1.455,1.455,0,0,1-1.421,1.553,1.416,1.416,0,0,1-1.413-1.471c-.042-1.157-.041-2.317,0-3.474a1.414,1.414,0,0,1,1.413-1.467,1.433,1.433,0,0,1,1.418,1.467c.035.59.007,1.185.007,1.777Z" transform="translate(-193.498 -187.599)" fill="#798b97"/>
          <path id="Trazado_213781" data-name="Trazado 213781" d="M226.389,25.151a1.3,1.3,0,0,1-1.262,1.3,1.351,1.351,0,0,1-1.343-1.323,1.3,1.3,0,0,1,1.364-1.278,1.257,1.257,0,0,1,1.241,1.3" transform="translate(-175.278 -18.68)" fill="#010102"/>
          <path id="Trazado_213782" data-name="Trazado 213782" d="M200.965,23.856a1.289,1.289,0,0,1,1.286,1.292,1.348,1.348,0,0,1-1.376,1.307,1.3,1.3,0,0,1-1.229-1.353,1.261,1.261,0,0,1,1.319-1.246" transform="translate(-156.372 -18.685)" fill="#010102"/>
          <path id="Trazado_213783" data-name="Trazado 213783" d="M249.129,23.8a1.316,1.316,0,0,1,1.489.963c.218.8-.232,1.264-.848,1.639-1,.006-1.5-.308-1.662-1.028s.145-1.176,1.021-1.574" transform="translate(-194.299 -18.642)" fill="#010101"/>
        </g>
      </g>
    </g>
  </g>
</svg>
