<svg xmlns="http://www.w3.org/2000/svg" xmlns:xlink="http://www.w3.org/1999/xlink" width="54" height="47.991" viewBox="0 0 54 47.991">
  <defs>
    <clipPath id="clip-path">
      <rect id="Rectángulo_88914" data-name="Rectángulo 88914" width="54" height="47.992" fill="none"/>
    </clipPath>
  </defs>
  <g id="Grupo_140835" data-name="Grupo 140835" transform="translate(580 10276.991)">
    <g id="Grupo_140755" data-name="Grupo 140755" transform="translate(-580 -10276.991)">
      <g id="Grupo_140754" data-name="Grupo 140754" clip-path="url(#clip-path)">
        <path id="Trazado_213904" data-name="Trazado 213904" d="M3.423,218.166a5.159,5.159,0,0,1-1.723-.652,4.377,4.377,0,0,1-1.69-2.525.609.609,0,0,0,0-.539q0-2.037,0-4.074a.952.952,0,0,1,.674-.17c.42-.007.841,0,1.261,0q25.47,0,50.941,0a1.656,1.656,0,0,1,1.113.169v4.074a.61.61,0,0,0,0,.539,4.038,4.038,0,0,1-.758,1.541,3.8,3.8,0,0,0-.334.449,3.7,3.7,0,0,1-2.645,1.191,1.253,1.253,0,0,0-.593-.048c-5.173,0-10.347-.089-15.517.024-4.4.1-8.806.134-13.2.046-5.645-.113-11.289-.009-16.932-.07a1.3,1.3,0,0,0-.594.045" transform="translate(-0.009 -179.361)" fill="#e5e5e5"/>
        <path id="Trazado_213905" data-name="Trazado 213905" d="M53.993,31.015c-.182.008-.365.022-.547.022q-26.448,0-52.9,0c-.182,0-.365-.015-.547-.022Q0,17.191,0,3.367A3.257,3.257,0,0,1,3.055.038C3.291.014,3.529,0,3.766,0Q27,0,50.229,0A3.66,3.66,0,0,1,53,.955a3.45,3.45,0,0,1,1,2.577q-.011,13.111,0,26.221c0,.421,0,.841,0,1.262" transform="translate(0 0)" fill="#6a676b"/>
        <path id="Trazado_213906" data-name="Trazado 213906" d="M117.656,264.326a24.768,24.768,0,0,0,.2,5.671c.059.436.177.653.7.638,1.476-.045,2.955-.017,4.432-.013a1.305,1.305,0,0,1,.593.05c-.288.28-.653.191-.99.192q-10.556.009-21.113,0c-.713,0-1.426.006-2.139,0a.887.887,0,0,1-.719-.187c1.055-.126,2.113-.031,3.17-.054.676-.015,1.353-.021,2.028,0,.35.013.481-.114.525-.453a26.322,26.322,0,0,0,.207-5.52c-.132-.4.037-.5.427-.5,4.074.01,8.149,0,12.223.011.157,0,.382-.112.451.163" transform="translate(-84.159 -225.398)" fill="#656565"/>
        <path id="Trazado_213907" data-name="Trazado 213907" d="M91.215,308.668q3.1,0,6.2.009,9.025.007,18.05.011c.237,0,.474-.016.712-.025a1.284,1.284,0,0,1,1.307,1.267,1.32,1.32,0,0,1-1.227,1.418,3.744,3.744,0,0,1-.492.029q-12.042,0-24.084,0a1.546,1.546,0,0,1-1.6-.814,1.324,1.324,0,0,1,1.137-1.9" transform="translate(-76.749 -263.39)" fill="#515151"/>
        <path id="Trazado_213908" data-name="Trazado 213908" d="M53.358,264.021c-.131-.191-.33-.12-.5-.12-4.028,0-8.055,0-12.083-.011-.356,0-.559.062-.516.458-.076-.4-.336-.452-.7-.451q-8.139.014-16.278,0c.166-.173.38-.1.572-.1q22.85-.006,45.7,0c.191,0,.406-.078.57.1q-8.036,0-16.072.007a.992.992,0,0,0-.687.113" transform="translate(-19.861 -225.093)" fill="#cdcccd"/>
        <path id="Trazado_213909" data-name="Trazado 213909" d="M360.666,253.852A.5.5,0,0,1,361,253.4a.6.6,0,0,1-.334.449" transform="translate(-307.765 -216.235)" fill="#dddcdd"/>
        <path id="Trazado_213910" data-name="Trazado 213910" d="M.014,239.226a.364.364,0,0,1,0,.539q0-.27,0-.539" transform="translate(-0.009 -204.137)" fill="#d3d3d4"/>
        <path id="Trazado_213911" data-name="Trazado 213911" d="M367.411,239.763a.364.364,0,0,1,0-.539q0,.27,0,.539" transform="translate(-313.418 -204.136)" fill="#d3d3d3"/>
        <path id="Trazado_213912" data-name="Trazado 213912" d="M40.97,42.624q-11.959,0-23.918.015c-.576,0-.678-.166-.677-.7q.026-12.014.012-24.028c0-1.287.212-1.5,1.489-1.5H55.618q4.252,0,8.5,0c1.2,0,1.433.235,1.433,1.447q0,12.041.012,24.083c0,.536-.1.7-.678.7q-11.959-.033-23.918-.015" transform="translate(-13.973 -14.002)" fill="#91d1fd"/>
        <path id="Trazado_213913" data-name="Trazado 213913" d="M59.621,54.874A8.3,8.3,0,0,1,55.844,56.2a10.291,10.291,0,0,1-11.515-8.951,10.262,10.262,0,0,1,6.025-10.654,9.9,9.9,0,0,1,4.189-.892.83.83,0,0,1,.173.615c0,3.148.022,6.3-.01,9.443a3.033,3.033,0,0,0,.651,1.42q2.052,3.546,4.094,7.1c.105.183.275.354.169.6" transform="translate(-37.753 -30.462)" fill="#43bcfc"/>
        <path id="Trazado_213914" data-name="Trazado 213914" d="M221.4,106.844a6.457,6.457,0,0,1,12.615-.767,1.26,1.26,0,0,1,.021.217.893.893,0,0,1-.365,1.054,4.833,4.833,0,0,1-1.837.952,14.635,14.635,0,0,1-8.79-.188,2.593,2.593,0,0,1-1.644-1.268" transform="translate(-188.926 -86.472)" fill="#f1f1f1"/>
        <path id="Trazado_213915" data-name="Trazado 213915" d="M119.646,113.811q-2.133-3.717-4.266-7.434c-.271-.473-.53-.952-.795-1.428a.526.526,0,0,1,.182-.117,2.694,2.694,0,0,1,.759-.062q4.178,0,8.357,0a1.327,1.327,0,0,1,.894.16,9.888,9.888,0,0,1-3.981,8.156,3.888,3.888,0,0,1-1.151.723" transform="translate(-97.778 -89.4)" fill="#ea745e"/>
        <path id="Trazado_213916" data-name="Trazado 213916" d="M114.594,45.993q-.052.014-.1.024-.008-5.156-.016-10.313a10.54,10.54,0,0,1,6.8,2.588,5.387,5.387,0,0,1,.443.481c.058.245-.135.363-.269.5q-3.181,3.193-6.371,6.378a1.53,1.53,0,0,1-.486.345" transform="translate(-97.683 -30.467)" fill="#a1e09e"/>
        <path id="Trazado_213917" data-name="Trazado 213917" d="M115.295,63.846c.142-.164.276-.336.428-.489q3.347-3.368,6.7-6.731a9.631,9.631,0,0,1,2.962,7.227l-10.088-.006" transform="translate(-98.384 -48.32)" fill="#fed44f"/>
        <path id="Trazado_213918" data-name="Trazado 213918" d="M244.635,50.731a2.976,2.976,0,1,1,2.936,3.034,2.967,2.967,0,0,1-2.936-3.034" transform="translate(-208.753 -40.745)" fill="#f1f1f1"/>
        <path id="Trazado_213919" data-name="Trazado 213919" d="M220.638,135.7c1.342,1.338,3.067,1.589,4.845,1.778a14.393,14.393,0,0,0,5.809-.555,4.828,4.828,0,0,0,1.4-.726,1.132,1.132,0,0,0,.581-1.048c.638,2.029.074,2.885-1.971,3.623a12.657,12.657,0,0,1-3.267.574,15.549,15.549,0,0,1-4.97-.46,5.313,5.313,0,0,1-1.6-.707,2,2,0,0,1-.832-2.479" transform="translate(-188.164 -115.323)" fill="#e5e5e5"/>
      </g>
    </g>
  </g>
</svg>
