<svg xmlns="http://www.w3.org/2000/svg" xmlns:xlink="http://www.w3.org/1999/xlink" width="50.799" height="50.113" viewBox="0 0 50.799 50.113">
  <defs>
    <clipPath id="clip-path">
      <rect id="Rectángulo_88916" data-name="Rectángulo 88916" width="50.799" height="50.113" fill="none"/>
    </clipPath>
  </defs>
  <g id="Grupo_140840" data-name="Grupo 140840" transform="translate(-2561.256 10279.613)">
    <g id="Grupo_140770" data-name="Grupo 140770" transform="translate(2561.256 -10279.613)">
      <g id="Grupo_140759" data-name="Grupo 140759" clip-path="url(#clip-path)">
        <path id="Trazado_213936" data-name="Trazado 213936" d="M0,187.137a7.723,7.723,0,0,0,.374-1.611,13.473,13.473,0,0,1,10.814-10.1,9.845,9.845,0,0,1,2.309-.178.33.33,0,0,1,.114.213,11.827,11.827,0,0,1-.051,2.7c-.309.322-.731.095-1.08.223a9.9,9.9,0,0,0-5.158,1.992,10.044,10.044,0,0,0-4.133,7.274,9.888,9.888,0,0,0,2.833,8.141,10.154,10.154,0,0,0,7.022,3.217.98.98,0,0,1,.435.08.328.328,0,0,1,.106.138,16.663,16.663,0,0,1,.044,2.559.425.425,0,0,1-.132.31,13,13,0,0,1-8.606-3.077,13.343,13.343,0,0,1-4.777-8.507c-.017-.108.02-.238-.113-.3v-.694a.758.758,0,0,0,0-.6v-.5a.758.758,0,0,0,0-.6Z" transform="translate(0 -152.003)" fill="#d2e1f1"/>
        <path id="Trazado_213937" data-name="Trazado 213937" d="M0,270.246a.448.448,0,0,1,0,.6Z" transform="translate(0 -234.417)" fill="#919efa"/>
        <path id="Trazado_213938" data-name="Trazado 213938" d="M0,278.477a.448.448,0,0,1,0,.6Z" transform="translate(0 -241.557)" fill="#919efa"/>
        <path id="Trazado_213939" data-name="Trazado 213939" d="M319.886,21.718c.006-1.339.026-2.678.009-4.016,0-.37.093-.473.467-.47q3.67.026,7.34,0c.357,0,.434.109.433.447q-.013,15.995-.008,31.989c0,.205.064.431-.294.428-2.644-.018-5.289-.021-7.934-.03-.236-.266-.165-.594-.165-.9q-.007-8.047,0-16.094,0-5.249,0-10.5a1.224,1.224,0,0,1,.15-.857" transform="translate(-277.337 -14.947)" fill="#feca2e"/>
        <path id="Trazado_213940" data-name="Trazado 213940" d="M266.014,50.985c.006.644.018,1.288.018,1.932q0,13.209,0,26.418c-2.741.039-5.481.05-8.222-.006-.251-.26-.176-.59-.177-.9q-.007-8.75,0-17.5c0-1.57,0-3.14,0-4.709,0-.258-.048-.535.161-.752.008-1.352.027-2.7.016-4.056,0-.342.085-.446.437-.444,2.59.016,5.18.011,7.77.013" transform="translate(-223.465 -44.214)" fill="#a7e446"/>
        <path id="Trazado_213941" data-name="Trazado 213941" d="M204.7,84.815c.007.165.021.33.021.5q0,11.681-.005,23.362c-1.387.01-2.774.024-4.16.031-1.124.005-2.247,0-3.371,0a.246.246,0,0,1-.127-.146,18.421,18.421,0,0,1-.631-3.1c-.013-5.238.008-10.477-.013-15.715a44.356,44.356,0,0,0,.094-4.785c.059-.2.222-.164.367-.164l7.825.013" transform="translate(-170.373 -73.557)" fill="#fc4b52"/>
        <path id="Trazado_213942" data-name="Trazado 213942" d="M114.4,122.468c.012.2.036.392.036.589q0,7.2,0,14.4a6.006,6.006,0,0,0,.255,1.946,11.184,11.184,0,0,1,.4,1.982,12.994,12.994,0,0,1-1.211,7.232,13.215,13.215,0,0,1-10.72,7.649,6.37,6.37,0,0,1-1.383.067q0-1.477,0-2.954a1.955,1.955,0,0,1,1.046-.2,9.967,9.967,0,0,0,6.325-3.152,9.755,9.755,0,0,0,2.823-5.925,10.333,10.333,0,0,0-9.146-11.446,2.13,2.13,0,0,1-1.049-.216q0-1.478,0-2.955a12.465,12.465,0,0,1,4.261.7,3.15,3.15,0,0,1,1.582.494,13.5,13.5,0,0,1,6.611,6.952q0-7.22,0-14.467c0-.236-.076-.5.169-.686" transform="translate(-88.28 -106.231)" fill="#b0c0d2"/>
        <path id="Trazado_213943" data-name="Trazado 213943" d="M142.306,90.87c-.01.18-.029.36-.029.54q0,7.282,0,14.564v.517a13.789,13.789,0,0,0-8.335-7.914c.3-.076.18-.32.18-.493.007-2.4.016-4.793,0-7.19,0-.428.1-.563.545-.559,2.38.023,4.76,0,7.14.019.394,0,.505-.112.5-.5-.016-1.271.007-2.542.016-3.812.045,1.611.062,3.22-.011,4.829" transform="translate(-116.183 -74.634)" fill="#d2e1f1"/>
        <path id="Trazado_213944" data-name="Trazado 213944" d="M100.667,9.409Q105.288,4.783,109.9.152c.2-.2.3-.207.5,0,.522.552,1.062,1.087,1.61,1.613.2.188.219.3.011.509q-5.635,5.61-11.256,11.234c-.215-.049-.218-.235-.222-.39-.024-1.131-.03-2.262,0-3.393a.45.45,0,0,1,.122-.314" transform="translate(-87.196 0)" fill="#c93c41"/>
        <path id="Trazado_213945" data-name="Trazado 213945" d="M29.75,44.173c.005,1.193.008,2.387.018,3.58,0,.173-.06.362.08.517-.246.252-.307-.065-.4-.155-1.223-1.2-2.442-2.415-3.642-3.642-.244-.249-.372-.246-.615,0-1.353,1.378-2.735,2.728-4.084,4.111-.282.288-.433.264-.686-.012-.469-.51-.959-1-1.471-1.469-.268-.244-.224-.378.011-.611q3.13-3.1,6.233-6.234c.25-.253.385-.232.621.009,1.214,1.237,2.445,2.457,3.672,3.682.081.081.174.15.262.224" transform="translate(-16.279 -34.765)" fill="#fc4b52"/>
        <path id="Trazado_213946" data-name="Trazado 213946" d="M25.437,215.548a9.8,9.8,0,0,1-2.835-5.8,10.439,10.439,0,0,1,9.3-11.779c1.167-.154,1.257-.078,1.259,1.078,0,.807,0,1.613,0,2.42a1.285,1.285,0,0,1-.126.718c-.152.194-.379.168-.589.2a5.33,5.33,0,0,0-4.764,3.959,5.246,5.246,0,0,0,.607,4.473c.184.287.467.521.511.889a.468.468,0,0,1-.246.294,8.255,8.255,0,0,0-2.891,3.309c-.051.1-.1.21-.227.246" transform="translate(-19.515 -171.667)" fill="#f8f8f8"/>
        <path id="Trazado_213947" data-name="Trazado 213947" d="M94.447,201.963a.869.869,0,0,0,.1-.569q0-1.45,0-2.9c0-.775,0-.775-.757-.774-.115,0-.229-.006-.344-.009a3.044,3.044,0,0,1,1.1-.095,10.438,10.438,0,0,1,9.866,7.181,10.213,10.213,0,0,1-1.842,9.927,7.058,7.058,0,0,1-.551.567c-.182-.059-.225-.232-.3-.375a8.69,8.69,0,0,0-2.651-3.089c-.165-.124-.394-.2-.412-.458a3.258,3.258,0,0,1,.489-.795,5.506,5.506,0,0,0-4.3-8.463.964.964,0,0,1-.292-.045.218.218,0,0,1-.111-.1" transform="translate(-81.057 -171.413)" fill="#e1def3"/>
        <path id="Trazado_213948" data-name="Trazado 213948" d="M44.67,305.833a8.038,8.038,0,0,1,3.3-3.809.323.323,0,0,1,.4.1A5.912,5.912,0,0,0,52,303.71a.593.593,0,0,1,.234.075.338.338,0,0,1,.1.141,8.806,8.806,0,0,1,.058,1.731c.012.909.009,1.819,0,2.728,0,.243.029.506-.22.673a10.1,10.1,0,0,1-6.266-2.088,6.687,6.687,0,0,1-1.236-1.137" transform="translate(-38.748 -261.952)" fill="#a7e446"/>
        <path id="Trazado_213949" data-name="Trazado 213949" d="M101.257,308.876c.087-1.463.015-2.928.038-4.392,0-.28,0-.56,0-.84a1.42,1.42,0,0,1,.747-.209,5.164,5.164,0,0,0,2.934-1.387c.134-.128.246-.326.49-.256a8.368,8.368,0,0,1,3.327,3.854,9.959,9.959,0,0,1-5.513,3.055,10.948,10.948,0,0,1-1.959.211.274.274,0,0,0-.069-.037" transform="translate(-87.832 -261.77)" fill="#85b638"/>
        <path id="Trazado_213950" data-name="Trazado 213950" d="M64.447,241.73a5.575,5.575,0,0,1-3.668-1.4c-.16-.136-.274-.333-.5-.377a11.919,11.919,0,0,1-1.092-1.918,5.658,5.658,0,0,1,5.258-7.6l.1.024a.833.833,0,0,1,.156.608q.006,4.977,0,9.955a.762.762,0,0,1-.255.713" transform="translate(-51.053 -199.88)" fill="#ecbaa6"/>
        <path id="Trazado_213951" data-name="Trazado 213951" d="M101.023,241.882a2.1,2.1,0,0,0,.1-.729q0-5.274,0-10.548a5.63,5.63,0,0,1,5.572,5.032,5.641,5.641,0,0,1-5.6,6.269.556.556,0,0,1-.074-.025" transform="translate(-87.63 -200.032)" fill="#e7a28a"/>
      </g>
    </g>
  </g>
</svg>
