<svg xmlns="http://www.w3.org/2000/svg" width="1309" height="463" viewBox="0 0 1309 463">
  <g id="Grupo_140808" data-name="Grupo 140808" transform="translate(-180.333 -402)">
    <rect id="Rectángulo_85237" data-name="Rectángulo 85237" width="380" height="49" rx="10" transform="translate(610.333 402)" fill="#fc4b52"/>
    <text id="Configuración_de_la_plataforma_digital_" data-name="Configuración de la plataforma digital " transform="translate(645.333 434)" fill="#fff" font-size="18" font-family="Roboto-Bold, Roboto" font-weight="700"><tspan x="0" y="0">Configuración de la plataforma digital </tspan></text>
    <g id="Grupo_138564" data-name="Grupo 138564" transform="translate(-749.667 -17)">
      <g id="Grupo_138560" data-name="Grupo 138560" transform="translate(15536.333 8437)">
        <path id="Trazado_192666" data-name="Trazado 192666" d="M-9997.5-8437v23.239" transform="translate(-4294.833 558.386)" fill="none" stroke="#12263f" stroke-width="2"/>
        <path id="Polígono_57" data-name="Polígono 57" d="M5,0l5,8.75H0Z" transform="translate(-14287.333 -7851) rotate(180)" fill="#12263f"/>
      </g>
    </g>
    <g id="Rectángulo_85243" data-name="Rectángulo 85243" transform="translate(648.333 479)" fill="#fff" stroke="#dff7f9" stroke-width="2">
      <rect width="303" height="47" rx="23.5" stroke="none"/>
      <rect x="1" y="1" width="301" height="45" rx="22.5" fill="none"/>
    </g>
    <text id="Requiere_de" data-name="Requiere de" transform="translate(753.333 509)" fill="#12263f" font-size="18" font-family="Roboto-Regular, Roboto"><tspan x="0" y="0">Requiere de</tspan></text>
    <g id="Grupo_135057" data-name="Grupo 135057" transform="translate(15092.666 8329.616)">
      <path id="Trazado_192666-2" data-name="Trazado 192666" d="M-9997.5-8437v23.239" transform="translate(-4294.833 558.386)" fill="none" stroke="#12263f" stroke-width="2"/>
      <path id="Polígono_57-2" data-name="Polígono 57" d="M5,0l5,8.75H0Z" transform="translate(-14287.333 -7851) rotate(180)" fill="#12263f"/>
    </g>
    <rect id="Rectángulo_88940" data-name="Rectángulo 88940" width="230" height="86" rx="10" transform="translate(370.333 569)" fill="#a7e446"/>
    <text id="Gestión_de_la_información_digital" data-name="Gestión de la información digital" transform="translate(488.333 590)" fill="#12263f" font-size="16" font-family="Roboto-Regular, Roboto"><tspan x="-46.348" y="17">Gestión de la </tspan><tspan x="-66.641" y="41">información digital</tspan></text>
    <path id="Trazado_214081" data-name="Trazado 214081" d="M-12264.332-9592.616h307.97v-17.412" transform="translate(12757.657 10134)" fill="none" stroke="#12263f" stroke-width="2"/>
    <rect id="Rectángulo_88941" data-name="Rectángulo 88941" width="190" height="86" rx="10" transform="translate(180.333 683)" fill="#a7e446"/>
    <text id="Tipos_" data-name="Tipos " transform="translate(262.333 716)" fill="#12263f" font-size="16" font-family="Roboto-Regular, Roboto"><tspan x="-19.891" y="17">Tipos </tspan></text>
    <rect id="Rectángulo_88942" data-name="Rectángulo 88942" width="190" height="86" rx="10" transform="translate(390.333 683)" fill="#a7e446"/>
    <text id="Herramientas" transform="translate(487.333 716)" fill="#12263f" font-size="16" font-family="Roboto-Regular, Roboto"><tspan x="-48.246" y="17">Herramientas</tspan></text>
    <rect id="Rectángulo_88943" data-name="Rectángulo 88943" width="190" height="86" rx="10" transform="translate(600.333 683)" fill="#a7e446"/>
    <text id="Contenidos_digitales" data-name="Contenidos digitales" transform="translate(694.333 716)" fill="#12263f" font-size="16" font-family="Roboto-Regular, Roboto"><tspan x="-72.723" y="17">Contenidos digitales</tspan></text>
    <rect id="Rectángulo_88944" data-name="Rectángulo 88944" width="190" height="86" rx="10" transform="translate(180.333 779)" fill="#a7e446"/>
    <text id="Fuentes_de_información" data-name="Fuentes de información" transform="translate(275.333 812)" fill="#12263f" font-size="16" font-family="Roboto-Regular, Roboto"><tspan x="-83.957" y="17">Fuentes de información</tspan></text>
    <rect id="Rectángulo_88945" data-name="Rectángulo 88945" width="190" height="86" rx="10" transform="translate(390.333 779)" fill="#a7e446"/>
    <text id="Fases" transform="translate(473.333 812)" fill="#12263f" font-size="16" font-family="Roboto-Regular, Roboto"><tspan x="-21.129" y="17">Fases</tspan></text>
    <rect id="Rectángulo_88946" data-name="Rectángulo 88946" width="190" height="86" rx="10" transform="translate(600.333 779)" fill="#a7e446"/>
    <text id="Configuración_de_la_plataforma_digital" data-name="Configuración de la plataforma digital" transform="translate(700.333 801)" fill="#12263f" font-size="16" font-family="Roboto-Regular, Roboto"><tspan x="-68.523" y="17">Configuración de la </tspan><tspan x="-62.926" y="41">plataforma digital</tspan></text>
    <rect id="Rectángulo_88947" data-name="Rectángulo 88947" width="190" height="86" rx="10" transform="translate(810.333 684)" fill="#feca2e"/>
    <text id="Tipos_de_indicadores" data-name="Tipos de indicadores" transform="translate(909.333 714)" fill="#12263f" font-size="16" font-family="Roboto-Regular, Roboto"><tspan x="-74.094" y="17">Tipos de indicadores</tspan></text>
    <rect id="Rectángulo_88948" data-name="Rectángulo 88948" width="190" height="86" rx="10" transform="translate(1020.333 684)" fill="#feca2e"/>
    <text id="Importancia" transform="translate(1118.333 716)" fill="#12263f" font-size="16" font-family="Roboto-Regular, Roboto"><tspan x="-43" y="17">Importancia</tspan></text>
    <rect id="Rectángulo_88949" data-name="Rectángulo 88949" width="190" height="86" rx="10" transform="translate(1230.333 684)" fill="#feca2e"/>
    <rect id="Rectángulo_88950" data-name="Rectángulo 88950" width="230" height="86" rx="10" transform="translate(993.333 569)" fill="#feca2e"/>
    <text id="Gestión_de_datos_en_plataformas_digitales" data-name="Gestión de datos en plataformas digitales" transform="translate(1331.333 705)" fill="#12263f" font-size="16" font-family="Roboto-Regular, Roboto"><tspan x="-70.773" y="17">Gestión de datos en </tspan><tspan x="-75.414" y="41">plataformas digitales</tspan></text>
    <text id="Medición_de_contenidos_digitales" data-name="Medición de contenidos digitales" transform="translate(1113.333 590)" fill="#12263f" font-size="16" font-family="Roboto-Regular, Roboto"><tspan x="-43.512" y="17">Medición de </tspan><tspan x="-71.703" y="41">contenidos digitales</tspan></text>
    <g id="Grupo_140790" data-name="Grupo 140790" transform="translate(1103 541.384)">
      <g id="Grupo_138560-2" data-name="Grupo 138560">
        <path id="Trazado_192666-3" data-name="Trazado 192666" d="M-9997.5-8437v23.239" transform="translate(10002.5 8437.002)" fill="none" stroke="#12263f" stroke-width="2"/>
        <path id="Polígono_57-3" data-name="Polígono 57" d="M5,0l5,8.75H0Z" transform="translate(10 27.616) rotate(180)" fill="#12263f"/>
      </g>
    </g>
    <path id="Trazado_214082" data-name="Trazado 214082" d="M-11956.363-9592.616h-307.97v-17.412" transform="translate(13065.628 10134)" fill="none" stroke="#12263f" stroke-width="2"/>
    <path id="Trazado_214083" data-name="Trazado 214083" d="M-12064-9457.122v-77.116h302" transform="translate(12759.333 10139.738)" fill="none" stroke="#12263f" stroke-width="2"/>
    <g id="Grupo_140791" data-name="Grupo 140791" transform="translate(-749.667 96.616)">
      <g id="Grupo_138560-3" data-name="Grupo 138560" transform="translate(15536.333 8437)">
        <path id="Trazado_192666-4" data-name="Trazado 192666" d="M-9997.5-8437v23.239" transform="translate(-4294.833 558.386)" fill="none" stroke="#12263f" stroke-width="2"/>
        <path id="Polígono_57-4" data-name="Polígono 57" d="M5,0l5,8.75H0Z" transform="translate(-14287.333 -7851) rotate(180)" fill="#12263f"/>
      </g>
    </g>
  </g>
</svg>
