<svg xmlns="http://www.w3.org/2000/svg" xmlns:xlink="http://www.w3.org/1999/xlink" width="820" height="370.322" viewBox="0 0 820 370.322"><defs><clipPath id="a"><path d="M343.747,260.11a38.872,38.872,0,1,0,38.873-38.873,38.872,38.872,0,0,0-38.873,38.873" transform="translate(-343.747 -221.237)" fill="none"/></clipPath><clipPath id="b"><path d="M349.227,258.342a31.625,31.625,0,1,0,31.625-31.625,31.624,31.624,0,0,0-31.625,31.625" transform="translate(-349.227 -226.717)" fill="none"/></clipPath><linearGradient id="c" x1="-7.302" y1="1.115" x2="-7.281" y2="1.115" gradientUnits="objectBoundingBox"><stop offset="0" stop-color="#f2f2f2"/><stop offset="1" stop-color="#fff"/></linearGradient><clipPath id="d"><path d="M351.718,257.539a28.331,28.331,0,1,0,28.331-28.331,28.331,28.331,0,0,0-28.331,28.331" transform="translate(-351.718 -229.208)" fill="#a7e446"/></clipPath><clipPath id="e"><path d="M410.578,185.934a38.872,38.872,0,1,0,38.871-38.873,38.872,38.872,0,0,0-38.871,38.873" transform="translate(-410.578 -147.061)" fill="none"/></clipPath><clipPath id="f"><path d="M416.058,184.166a31.625,31.625,0,1,0,31.624-31.625,31.626,31.626,0,0,0-31.624,31.625" transform="translate(-416.058 -152.541)" fill="none"/></clipPath><linearGradient id="g" x1="-8.699" y1="2.666" x2="-8.678" y2="2.666" xlink:href="#c"/><clipPath id="h"><path d="M418.549,183.363a28.331,28.331,0,1,0,28.33-28.331,28.33,28.33,0,0,0-28.33,28.331" transform="translate(-418.549 -155.032)" fill="#a7e446"/></clipPath><clipPath id="i"><path d="M382.62,0a38.872,38.872,0,1,0,38.871,38.871A38.872,38.872,0,0,0,382.62,0Z" transform="translate(-343.747)" fill="none"/></clipPath><clipPath id="j"><path d="M349.227,37.1A31.625,31.625,0,1,0,380.852,5.48,31.625,31.625,0,0,0,349.227,37.1" transform="translate(-349.227 -5.48)" fill="none"/></clipPath><linearGradient id="k" x1="-7.302" y1="5.74" x2="-7.281" y2="5.74" xlink:href="#c"/><clipPath id="l"><path d="M351.718,36.3a28.331,28.331,0,1,0,28.331-28.33A28.331,28.331,0,0,0,351.718,36.3" transform="translate(-351.718 -7.971)" fill="#a7e446"/></clipPath><clipPath id="m"><path d="M410.578,112.413a38.872,38.872,0,1,0,38.871-38.871,38.872,38.872,0,0,0-38.871,38.871" transform="translate(-410.578 -73.542)" fill="none"/></clipPath><clipPath id="n"><path d="M416.058,110.646a31.625,31.625,0,1,0,31.624-31.624,31.626,31.626,0,0,0-31.624,31.624" transform="translate(-416.058 -79.022)" fill="none"/></clipPath><linearGradient id="o" x1="-8.699" y1="4.203" x2="-8.678" y2="4.203" xlink:href="#c"/><clipPath id="p"><path d="M418.549,109.843a28.331,28.331,0,1,0,28.33-28.33,28.329,28.329,0,0,0-28.33,28.33" transform="translate(-418.549 -81.513)" fill="none"/></clipPath><clipPath id="q"><path d="M217.176,260.11a38.872,38.872,0,1,0,38.873-38.873,38.873,38.873,0,0,0-38.873,38.873" transform="translate(-217.176 -221.237)" fill="none"/></clipPath><clipPath id="r"><path d="M222.656,258.342a31.625,31.625,0,1,0,31.625-31.625,31.625,31.625,0,0,0-31.625,31.625" transform="translate(-222.656 -226.717)" fill="none"/></clipPath><linearGradient id="s" x1="-4.655" y1="1.115" x2="-4.635" y2="1.115" xlink:href="#c"/><clipPath id="t"><path d="M225.148,257.539a28.33,28.33,0,1,0,28.33-28.331,28.331,28.331,0,0,0-28.33,28.331" transform="translate(-225.148 -229.208)" fill="none"/></clipPath><clipPath id="u"><path d="M154.025,185.934A38.872,38.872,0,1,0,192.9,147.061a38.872,38.872,0,0,0-38.871,38.873" transform="translate(-154.025 -147.061)" fill="none"/></clipPath><clipPath id="v"><path d="M159.505,184.166a31.625,31.625,0,1,0,31.624-31.625,31.625,31.625,0,0,0-31.624,31.625" transform="translate(-159.505 -152.541)" fill="none"/></clipPath><linearGradient id="w" x1="-3.335" y1="2.666" x2="-3.314" y2="2.666" xlink:href="#c"/><clipPath id="x"><path d="M162,183.363a28.331,28.331,0,1,0,28.33-28.331A28.33,28.33,0,0,0,162,183.363" transform="translate(-161.996 -155.032)" fill="#a7e446"/></clipPath><clipPath id="y"><path d="M154.025,112.413A38.872,38.872,0,1,0,192.9,73.542a38.872,38.872,0,0,0-38.871,38.871" transform="translate(-154.025 -73.542)" fill="none"/></clipPath><clipPath id="z"><path d="M159.505,110.646a31.625,31.625,0,1,0,31.624-31.624,31.626,31.626,0,0,0-31.624,31.624" transform="translate(-159.505 -79.022)" fill="none"/></clipPath><linearGradient id="aa" x1="-3.335" y1="4.203" x2="-3.314" y2="4.203" xlink:href="#c"/><clipPath id="ab"><path d="M162,109.843a28.331,28.331,0,1,0,28.33-28.33A28.329,28.329,0,0,0,162,109.843" transform="translate(-161.996 -81.513)" fill="none"/></clipPath><clipPath id="ac"><rect width="202.686" height="202.685" fill="#e0f6be" stroke="#a7e446" stroke-width="7"/></clipPath><clipPath id="ad"><path d="M226.768,162.261A101.343,101.343,0,1,1,328.112,263.6,101.343,101.343,0,0,1,226.768,162.261" transform="translate(-226.768 -60.919)" fill="#e0f6be" stroke="#a7e446" stroke-width="7"/></clipPath><clipPath id="ae"><rect width="54.129" height="54.555" fill="none"/></clipPath></defs><g transform="translate(-390 -7583.032)"><g transform="translate(844.594 7875.61)"><g clip-path="url(#a)"><rect width="77.744" height="77.744" fill="#64892a"/></g></g><g transform="translate(851.841 7882.858)"><g clip-path="url(#b)"><rect width="63.25" height="63.25" fill="url(#c)"/></g></g><g transform="translate(855.136 7886.152)"><g clip-path="url(#d)"><rect width="56.661" height="56.661" fill="#a7e446"/></g></g><g transform="translate(922.338 7777.516)"><g clip-path="url(#e)"><rect width="77.744" height="77.744" transform="translate(0 0)" fill="#64892a"/></g></g><g transform="translate(929.585 7784.763)"><g clip-path="url(#f)"><rect width="63.25" height="63.25" transform="translate(0 0)" fill="url(#g)"/></g></g><g transform="translate(932.879 7788.057)"><g clip-path="url(#h)"><rect width="56.661" height="56.66" transform="translate(0)" fill="#a7e446"/></g></g><g transform="translate(844.594 7583.032)"><g clip-path="url(#i)"><rect width="77.744" height="77.744" transform="translate(0 0)" fill="#64892a"/></g></g><g transform="translate(851.841 7590.279)"><g clip-path="url(#j)"><rect width="63.25" height="63.25" transform="translate(0 0)" fill="url(#k)"/></g></g><g transform="translate(855.136 7593.574)"><g clip-path="url(#l)"><rect width="56.661" height="56.661" transform="translate(0 0)" fill="#a7e446"/></g></g><g transform="translate(926.106 7680.289)"><g clip-path="url(#m)"><rect width="77.744" height="77.744" transform="translate(0 0)" fill="#64892a"/></g></g><g transform="translate(933.354 7687.536)"><g clip-path="url(#n)"><rect width="63.25" height="63.25" transform="translate(0 0)" fill="url(#o)"/></g></g><g transform="translate(936.647 7690.83)"><g clip-path="url(#p)"><rect width="56.661" height="56.66" transform="translate(0 0)" fill="#a7e446"/></g></g><g transform="translate(677.208 7875.61)"><g clip-path="url(#q)"><rect width="77.744" height="77.744" transform="translate(0 0)" fill="#64892a"/></g></g><g transform="translate(684.455 7882.858)"><g clip-path="url(#r)"><rect width="63.25" height="63.25" transform="translate(0 0)" fill="url(#s)"/></g></g><g transform="translate(687.751 7886.152)"><g clip-path="url(#t)"><rect width="56.66" height="56.661" fill="#a7e446"/></g></g><path d="M217.177,38.871a38.872,38.872,0,1,1,38.871,38.873,38.871,38.871,0,0,1-38.871-38.873" transform="translate(460.032 7583.032)" fill="#64892a"/><path d="M222.657,37.1a31.625,31.625,0,1,1,31.624,31.624A31.624,31.624,0,0,1,222.657,37.1" transform="translate(461.8 7584.799)" fill="#fff"/><path d="M225.148,36.3a28.331,28.331,0,1,1,28.33,28.33,28.33,28.33,0,0,1-28.33-28.33" transform="translate(462.603 7585.603)" fill="#a7e446"/><g transform="translate(593.693 7777.516)"><g clip-path="url(#u)"><rect width="77.744" height="77.744" fill="#64892a"/></g></g><g transform="translate(600.939 7784.763)"><g clip-path="url(#v)"><rect width="63.25" height="63.25" transform="translate(0)" fill="url(#w)"/></g></g><g transform="translate(604.234 7788.057)"><g clip-path="url(#x)"><rect width="56.661" height="56.66" fill="#a7e446"/></g></g><g transform="translate(593.693 7680.289)"><g clip-path="url(#y)"><rect width="77.744" height="77.744" transform="translate(0 0)" fill="#64892a"/></g></g><g transform="translate(600.939 7687.536)"><g clip-path="url(#z)"><rect width="63.25" height="63.25" transform="translate(0)" fill="url(#aa)"/></g></g><g transform="translate(604.234 7690.83)"><g clip-path="url(#ab)"><rect width="56.661" height="56.66" transform="translate(0 0)" fill="#a7e446"/></g></g><path d="M28.5,0h203a28.5,28.5,0,0,1,0,57H28.5a28.5,28.5,0,0,1,0-57Z" transform="translate(390 7788.032)" fill="#a7e446"/><path d="M27.711,17H25.074V4.2h2.637Zm4.614-9.51.079,1.1a3.32,3.32,0,0,1,2.733-1.274,2.759,2.759,0,0,1,2.25.888,4.142,4.142,0,0,1,.756,2.654V17H35.6V10.9a1.654,1.654,0,0,0-.352-1.176,1.572,1.572,0,0,0-1.169-.366,1.747,1.747,0,0,0-1.608.916V17h-2.54V7.49ZM40.763,17V9.354H39.348V7.49h1.415V6.682A3.283,3.283,0,0,1,41.681,4.2a3.557,3.557,0,0,1,2.571-.883,5.987,5.987,0,0,1,1.292.174l-.026,1.953a3.238,3.238,0,0,0-.773-.079q-1.433,0-1.433,1.356V7.49H45.2V9.354h-1.89V17Zm5.361-4.843a5.64,5.64,0,0,1,.545-2.522,3.989,3.989,0,0,1,1.569-1.714,4.577,4.577,0,0,1,2.377-.606,4.33,4.33,0,0,1,3.142,1.178,4.727,4.727,0,0,1,1.358,3.2l.018.65a4.97,4.97,0,0,1-1.222,3.511,4.735,4.735,0,0,1-6.561,0,5.058,5.058,0,0,1-1.226-3.586Zm2.54.18a3.555,3.555,0,0,0,.51,2.073,1.831,1.831,0,0,0,2.9.009,3.89,3.89,0,0,0,.519-2.267,3.519,3.519,0,0,0-.519-2.06,1.686,1.686,0,0,0-1.459-.731,1.658,1.658,0,0,0-1.441.726A3.955,3.955,0,0,0,48.664,12.338Zm7.664-.163A5.573,5.573,0,0,1,57.37,8.65a3.375,3.375,0,0,1,2.808-1.336,2.96,2.96,0,0,1,2.435,1.072l.105-.9h2.3v9.193a4.064,4.064,0,0,1-.567,2.171,3.641,3.641,0,0,1-1.6,1.406,5.608,5.608,0,0,1-2.408.483,5.215,5.215,0,0,1-2.039-.417,3.619,3.619,0,0,1-1.5-1.077L58.033,17.7a2.975,2.975,0,0,0,2.3,1.063,2.178,2.178,0,0,0,1.573-.541,2.027,2.027,0,0,0,.563-1.534v-.51a2.938,2.938,0,0,1-2.312.993,3.366,3.366,0,0,1-2.773-1.34,5.572,5.572,0,0,1-1.059-3.555Zm2.54.181a3.489,3.489,0,0,0,.519,2.035,1.648,1.648,0,0,0,1.424.737,1.762,1.762,0,0,0,1.661-.874V10.236a1.758,1.758,0,0,0-1.644-.874,1.659,1.659,0,0,0-1.437.751A3.933,3.933,0,0,0,58.868,12.356ZM72.315,9.872A6.9,6.9,0,0,0,71.4,9.8a1.86,1.86,0,0,0-1.89.976V17h-2.54V7.49h2.4l.07,1.134a2.354,2.354,0,0,1,2.118-1.31,2.662,2.662,0,0,1,.791.114ZM78.784,17a2.821,2.821,0,0,1-.255-.853,3.073,3.073,0,0,1-2.4,1.028,3.376,3.376,0,0,1-2.316-.809,2.6,2.6,0,0,1-.918-2.039,2.687,2.687,0,0,1,1.121-2.32,5.529,5.529,0,0,1,3.239-.817h1.169v-.545a1.567,1.567,0,0,0-.338-1.055,1.331,1.331,0,0,0-1.068-.4,1.513,1.513,0,0,0-1.006.308,1.045,1.045,0,0,0-.365.844h-2.54a2.551,2.551,0,0,1,.51-1.529,3.37,3.37,0,0,1,1.441-1.1,5.253,5.253,0,0,1,2.092-.4A4.15,4.15,0,0,1,79.94,8.2a3.09,3.09,0,0,1,1.033,2.483V14.8a4.546,4.546,0,0,0,.378,2.048V17Zm-2.1-1.767a2.188,2.188,0,0,0,1.037-.25,1.645,1.645,0,0,0,.7-.672V12.676h-.949q-1.907,0-2.03,1.318l-.009.149a1.017,1.017,0,0,0,.334.782A1.3,1.3,0,0,0,76.684,15.233ZM83.618,17V9.354H82.2V7.49h1.415V6.682A3.283,3.283,0,0,1,84.537,4.2a3.557,3.557,0,0,1,2.571-.883A5.987,5.987,0,0,1,88.4,3.49l-.026,1.953a3.238,3.238,0,0,0-.773-.079q-1.433,0-1.433,1.356V7.49h1.89V9.354h-1.89V17Zm8.5,0h-2.54V7.49h2.54ZM91.37,3.632h2.769L91.7,6.356H89.639ZM99.816,17a2.821,2.821,0,0,1-.255-.853,3.073,3.073,0,0,1-2.4,1.028,3.376,3.376,0,0,1-2.316-.809,2.6,2.6,0,0,1-.918-2.039,2.687,2.687,0,0,1,1.121-2.32,5.529,5.529,0,0,1,3.239-.817h1.169v-.545a1.567,1.567,0,0,0-.338-1.055,1.331,1.331,0,0,0-1.068-.4,1.513,1.513,0,0,0-1.006.308,1.045,1.045,0,0,0-.365.844h-2.54a2.551,2.551,0,0,1,.51-1.529,3.37,3.37,0,0,1,1.441-1.1,5.253,5.253,0,0,1,2.092-.4,4.15,4.15,0,0,1,2.791.883A3.09,3.09,0,0,1,102,10.681V14.8a4.546,4.546,0,0,0,.378,2.048V17Zm-2.1-1.767a2.188,2.188,0,0,0,1.037-.25,1.645,1.645,0,0,0,.7-.672V12.676h-.949q-1.907,0-2.03,1.318l-.009.149a1.017,1.017,0,0,0,.334.782A1.3,1.3,0,0,0,97.716,15.233Zm11.391-.861a.818.818,0,0,0-.461-.734,5.241,5.241,0,0,0-1.481-.479q-3.393-.712-3.393-2.883a2.613,2.613,0,0,1,1.05-2.114,4.237,4.237,0,0,1,2.747-.848,4.56,4.56,0,0,1,2.9.853,2.687,2.687,0,0,1,1.085,2.215h-2.54a1.229,1.229,0,0,0-.352-.9,1.488,1.488,0,0,0-1.1-.356,1.52,1.52,0,0,0-.993.29.916.916,0,0,0-.352.738.783.783,0,0,0,.4.681,4.114,4.114,0,0,0,1.349.448,11.019,11.019,0,0,1,1.6.426,2.628,2.628,0,0,1,2.013,2.558,2.481,2.481,0,0,1-1.116,2.1,4.815,4.815,0,0,1-2.883.8,5.029,5.029,0,0,1-2.123-.426A3.561,3.561,0,0,1,104,15.581a2.716,2.716,0,0,1-.527-1.6h2.408a1.326,1.326,0,0,0,.5,1.037,1.987,1.987,0,0,0,1.248.36,1.839,1.839,0,0,0,1.1-.277A.861.861,0,0,0,109.106,14.372Z" transform="translate(453 7805.032)" fill="#12263f"/><g transform="translate(390 7690.244)"><rect width="260" height="58" rx="29" transform="translate(0 -0.212)" fill="#a7e446"/></g><path d="M44.629,13.454h-4.9l-.6,3.428h5.766L44.523,19H36.183L38.406,6.2h8.323l-.378,2.136H40.612l-.536,3.05H45Zm6.882,1.09H46.694l.352-2.048h4.825Zm10.415-.272a6.819,6.819,0,0,1-1.371,3.6,3.412,3.412,0,0,1-2.865,1.31A2.652,2.652,0,0,1,55.4,17.972L55.044,19H52.785L55.123,5.5H57.61l-.958,4.86a2.963,2.963,0,0,1,2.32-1.046,2.683,2.683,0,0,1,2.167.989,4.376,4.376,0,0,1,.839,2.685A10.274,10.274,0,0,1,61.926,14.271Zm-2.461-.185a7.373,7.373,0,0,0,.053-1.164q-.1-1.534-1.266-1.56a2.062,2.062,0,0,0-1.819,1l-.686,3.791a1.415,1.415,0,0,0,1.424.987q1.828.053,2.241-2.662ZM68.14,9.314a3.814,3.814,0,0,1,2.167.646,3.638,3.638,0,0,1,1.336,1.731,5.357,5.357,0,0,1,.3,2.448,5.786,5.786,0,0,1-1.578,3.669,4.455,4.455,0,0,1-3.4,1.367,3.8,3.8,0,0,1-2.145-.637A3.624,3.624,0,0,1,63.49,16.82a5.239,5.239,0,0,1-.308-2.426,5.957,5.957,0,0,1,1.6-3.744A4.363,4.363,0,0,1,68.14,9.314Zm-2.5,5.979a2.194,2.194,0,0,0,.4,1.33,1.314,1.314,0,0,0,1.063.5,1.926,1.926,0,0,0,1.793-1.049,5.227,5.227,0,0,0,.606-2.848,2.387,2.387,0,0,0-.409-1.347,1.293,1.293,0,0,0-1.068-.522,1.929,1.929,0,0,0-1.771,1.04A5.173,5.173,0,0,0,65.635,15.294ZM78.1,9.314a3.814,3.814,0,0,1,2.167.646A3.638,3.638,0,0,1,81.6,11.692a5.357,5.357,0,0,1,.3,2.448,5.786,5.786,0,0,1-1.578,3.669,4.455,4.455,0,0,1-3.4,1.367,3.8,3.8,0,0,1-2.145-.637,3.624,3.624,0,0,1-1.336-1.718,5.239,5.239,0,0,1-.308-2.426,5.957,5.957,0,0,1,1.6-3.744A4.363,4.363,0,0,1,78.1,9.314Zm-2.5,5.979a2.194,2.194,0,0,0,.4,1.33,1.314,1.314,0,0,0,1.063.5,1.926,1.926,0,0,0,1.793-1.049,5.227,5.227,0,0,0,.606-2.848,2.387,2.387,0,0,0-.409-1.347,1.293,1.293,0,0,0-1.068-.522A1.929,1.929,0,0,0,76.2,12.4,5.173,5.173,0,0,0,75.593,15.294Zm11.136-.082-1.151,1L85.094,19H82.615L84.953,5.5H87.44l-1.283,7.33.483-.519L89.462,9.49h3.182l-4.157,4.087L91.132,19H88.416Z" transform="translate(457 7707.032)" fill="#12263f"/><g transform="translate(473.387 7594.944)"><rect width="260" height="56" rx="28" transform="translate(-0.387 0.088)" fill="#a7e446"/></g><path d="M18.637,14.491V19H16V6.2h4.992a5.776,5.776,0,0,1,2.536.527,3.886,3.886,0,0,1,1.683,1.5,4.178,4.178,0,0,1,.589,2.21,3.674,3.674,0,0,1-1.288,2.966,5.363,5.363,0,0,1-3.564,1.085Zm0-2.136h2.355a2.316,2.316,0,0,0,1.6-.492,1.79,1.79,0,0,0,.549-1.406,2.111,2.111,0,0,0-.554-1.521,2.068,2.068,0,0,0-1.529-.6H18.637Zm14.5,5.678a3.185,3.185,0,0,1-2.6,1.143A3,3,0,0,1,28.2,18.3a3.752,3.752,0,0,1-.822-2.575V9.49h2.54v6.151q0,1.487,1.354,1.487a1.834,1.834,0,0,0,1.775-.9V9.49H35.6V19H33.209Zm12.946-3.7A5.758,5.758,0,0,1,45.11,17.9a3.231,3.231,0,0,1-2.725,1.279,2.969,2.969,0,0,1-2.47-1.187L39.8,19H37.516V5.5h2.54v4.843a2.893,2.893,0,0,1,2.312-1.028A3.258,3.258,0,0,1,45.1,10.593a5.767,5.767,0,0,1,.989,3.6Zm-2.54-.194a3.8,3.8,0,0,0-.457-2.111,1.544,1.544,0,0,0-1.362-.666,1.675,1.675,0,0,0-1.67,1v3.764a1.7,1.7,0,0,0,1.688,1,1.569,1.569,0,0,0,1.617-1.217A6.294,6.294,0,0,0,43.545,14.139ZM50.331,19H47.782V5.5h2.549ZM55.1,19H52.554V9.49H55.1ZM52.4,7.029a1.251,1.251,0,0,1,.382-.94,1.648,1.648,0,0,1,2.079,0,1.244,1.244,0,0,1,.387.94,1.247,1.247,0,0,1-.391.949,1.629,1.629,0,0,1-2.065,0A1.247,1.247,0,0,1,52.4,7.029Zm8.745,10.1a1.666,1.666,0,0,0,1.143-.387,1.355,1.355,0,0,0,.457-1.028h2.382a3.258,3.258,0,0,1-.527,1.771,3.48,3.48,0,0,1-1.419,1.248,4.442,4.442,0,0,1-1.991.444,4.129,4.129,0,0,1-3.217-1.3A5.13,5.13,0,0,1,56.8,14.3v-.167a5.071,5.071,0,0,1,1.169-3.507,4.08,4.08,0,0,1,3.208-1.31,4,4,0,0,1,2.861,1.015,3.594,3.594,0,0,1,1.094,2.7H62.75a1.745,1.745,0,0,0-.457-1.206,1.7,1.7,0,0,0-2.5.183,3.749,3.749,0,0,0-.453,2.1v.264a3.8,3.8,0,0,0,.448,2.113A1.549,1.549,0,0,0,61.15,17.128ZM72.092,19a2.821,2.821,0,0,1-.255-.853,3.073,3.073,0,0,1-2.4,1.028,3.376,3.376,0,0,1-2.316-.809,2.6,2.6,0,0,1-.918-2.039,2.687,2.687,0,0,1,1.121-2.32,5.529,5.529,0,0,1,3.239-.817h1.169v-.545a1.567,1.567,0,0,0-.338-1.055,1.331,1.331,0,0,0-1.068-.4,1.513,1.513,0,0,0-1.006.308,1.045,1.045,0,0,0-.365.844h-2.54a2.551,2.551,0,0,1,.51-1.529,3.37,3.37,0,0,1,1.441-1.1,5.253,5.253,0,0,1,2.092-.4,4.15,4.15,0,0,1,2.791.883,3.09,3.09,0,0,1,1.033,2.483V16.8a4.546,4.546,0,0,0,.378,2.048V19Zm-2.1-1.767a2.188,2.188,0,0,0,1.037-.25,1.645,1.645,0,0,0,.7-.672V14.676h-.949q-1.907,0-2.03,1.318l-.009.149a1.017,1.017,0,0,0,.334.782A1.3,1.3,0,0,0,69.992,17.233Zm10.2-.105a1.666,1.666,0,0,0,1.143-.387,1.355,1.355,0,0,0,.457-1.028h2.382a3.258,3.258,0,0,1-.527,1.771,3.48,3.48,0,0,1-1.419,1.248,4.442,4.442,0,0,1-1.991.444,4.129,4.129,0,0,1-3.217-1.3A5.13,5.13,0,0,1,75.836,14.3v-.167a5.071,5.071,0,0,1,1.169-3.507,4.08,4.08,0,0,1,3.208-1.31,4,4,0,0,1,2.861,1.015,3.594,3.594,0,0,1,1.094,2.7H81.787a1.745,1.745,0,0,0-.457-1.206,1.7,1.7,0,0,0-2.5.183,3.749,3.749,0,0,0-.453,2.1v.264a3.8,3.8,0,0,0,.448,2.113A1.549,1.549,0,0,0,80.187,17.128ZM88.3,19H85.75V9.49H88.3ZM85.6,7.029a1.251,1.251,0,0,1,.382-.94,1.648,1.648,0,0,1,2.079,0,1.244,1.244,0,0,1,.387.94,1.247,1.247,0,0,1-.391.949,1.629,1.629,0,0,1-2.065,0A1.247,1.247,0,0,1,85.6,7.029ZM90,14.157a5.64,5.64,0,0,1,.545-2.522,3.989,3.989,0,0,1,1.569-1.714,4.577,4.577,0,0,1,2.377-.606,4.33,4.33,0,0,1,3.142,1.178,4.727,4.727,0,0,1,1.358,3.2l.018.65a4.97,4.97,0,0,1-1.222,3.511,4.735,4.735,0,0,1-6.561,0A5.058,5.058,0,0,1,90,14.271Zm2.54.18a3.555,3.555,0,0,0,.51,2.073,1.831,1.831,0,0,0,2.9.009,3.89,3.89,0,0,0,.519-2.267,3.519,3.519,0,0,0-.519-2.06,1.686,1.686,0,0,0-1.459-.731,1.658,1.658,0,0,0-1.441.726A3.955,3.955,0,0,0,92.536,14.338ZM102.907,9.49l.079,1.1a3.32,3.32,0,0,1,2.733-1.274,2.759,2.759,0,0,1,2.25.888,4.142,4.142,0,0,1,.756,2.654V19h-2.54V12.9a1.654,1.654,0,0,0-.352-1.176,1.572,1.572,0,0,0-1.169-.366,1.747,1.747,0,0,0-1.608.916V19h-2.54V9.49Zm12.12,9.686a4.668,4.668,0,0,1-3.406-1.283,4.561,4.561,0,0,1-1.314-3.419v-.246a5.745,5.745,0,0,1,.554-2.562,4.064,4.064,0,0,1,1.569-1.74,4.4,4.4,0,0,1,2.316-.611,3.947,3.947,0,0,1,3.072,1.23,5,5,0,0,1,1.121,3.489v1.037h-6.056a2.36,2.36,0,0,0,.743,1.494,2.245,2.245,0,0,0,1.569.563,2.742,2.742,0,0,0,2.294-1.063l1.248,1.4a3.813,3.813,0,0,1-1.547,1.261A5.075,5.075,0,0,1,115.027,19.176Zm-.29-7.813a1.587,1.587,0,0,0-1.226.512,2.651,2.651,0,0,0-.6,1.466h3.533v-.2a1.891,1.891,0,0,0-.457-1.311A1.638,1.638,0,0,0,114.737,11.362Zm10.793,5.01a.818.818,0,0,0-.461-.734,5.241,5.241,0,0,0-1.481-.479q-3.393-.712-3.393-2.883a2.613,2.613,0,0,1,1.05-2.114,4.237,4.237,0,0,1,2.747-.848,4.56,4.56,0,0,1,2.9.853,2.687,2.687,0,0,1,1.085,2.215h-2.54a1.229,1.229,0,0,0-.352-.9,1.488,1.488,0,0,0-1.1-.356,1.52,1.52,0,0,0-.993.29.916.916,0,0,0-.352.738.783.783,0,0,0,.4.681,4.114,4.114,0,0,0,1.349.448,11.019,11.019,0,0,1,1.6.426A2.628,2.628,0,0,1,128,16.267a2.481,2.481,0,0,1-1.116,2.1,4.815,4.815,0,0,1-2.883.8,5.029,5.029,0,0,1-2.123-.426,3.561,3.561,0,0,1-1.455-1.169,2.716,2.716,0,0,1-.527-1.6H122.3a1.326,1.326,0,0,0,.5,1.037,1.987,1.987,0,0,0,1.248.36,1.839,1.839,0,0,0,1.1-.277A.861.861,0,0,0,125.53,16.372Zm8.191-2.2a5.731,5.731,0,0,1,1-3.542,3.237,3.237,0,0,1,2.729-1.318,2.913,2.913,0,0,1,2.294,1.037V5.5h2.549V19H140l-.123-1.011a2.989,2.989,0,0,1-2.443,1.187,3.228,3.228,0,0,1-2.694-1.323A5.916,5.916,0,0,1,133.721,14.175Zm2.54.181a3.775,3.775,0,0,0,.466,2.057,1.516,1.516,0,0,0,1.354.715,1.7,1.7,0,0,0,1.661-1V12.36a1.675,1.675,0,0,0-1.644-1Q136.261,11.362,136.261,14.356Zm12.375,4.82a4.668,4.668,0,0,1-3.406-1.283,4.561,4.561,0,0,1-1.314-3.419v-.246a5.745,5.745,0,0,1,.554-2.562,4.064,4.064,0,0,1,1.569-1.74,4.4,4.4,0,0,1,2.316-.611,3.947,3.947,0,0,1,3.072,1.23,5,5,0,0,1,1.121,3.489v1.037h-6.056a2.36,2.36,0,0,0,.743,1.494,2.245,2.245,0,0,0,1.569.563,2.742,2.742,0,0,0,2.294-1.063l1.248,1.4a3.813,3.813,0,0,1-1.547,1.261A5.075,5.075,0,0,1,148.636,19.176Zm-.29-7.813a1.587,1.587,0,0,0-1.226.512,2.651,2.651,0,0,0-.6,1.466h3.533v-.2a1.891,1.891,0,0,0-.457-1.311A1.638,1.638,0,0,0,148.346,11.362Zm18.316,2.909a6.819,6.819,0,0,1-1.371,3.6,3.412,3.412,0,0,1-2.865,1.31,2.652,2.652,0,0,1-2.285-1.213L159.781,19h-2.259L159.86,5.5h2.487l-.958,4.86a2.963,2.963,0,0,1,2.32-1.046,2.683,2.683,0,0,1,2.167.989,4.376,4.376,0,0,1,.839,2.685A10.274,10.274,0,0,1,166.663,14.271Zm-2.461-.185a7.373,7.373,0,0,0,.053-1.164q-.1-1.534-1.266-1.56a2.062,2.062,0,0,0-1.819,1l-.686,3.791a1.415,1.415,0,0,0,1.424.987q1.828.053,2.241-2.662ZM170.055,19h-2.5l2.347-13.5h2.487ZM177.6,9.314a3.814,3.814,0,0,1,2.167.646,3.638,3.638,0,0,1,1.336,1.731,5.357,5.357,0,0,1,.3,2.448,5.786,5.786,0,0,1-1.578,3.669,4.455,4.455,0,0,1-3.4,1.367,3.8,3.8,0,0,1-2.145-.637,3.624,3.624,0,0,1-1.336-1.718,5.239,5.239,0,0,1-.308-2.426,5.957,5.957,0,0,1,1.6-3.744A4.363,4.363,0,0,1,177.6,9.314Zm-2.5,5.979a2.194,2.194,0,0,0,.4,1.33,1.314,1.314,0,0,0,1.063.5,1.926,1.926,0,0,0,1.793-1.049,5.227,5.227,0,0,0,.606-2.848,2.387,2.387,0,0,0-.409-1.347,1.293,1.293,0,0,0-1.068-.522A1.929,1.929,0,0,0,175.7,12.4,5.173,5.173,0,0,0,175.091,15.294Zm7.5-1.057a6.58,6.58,0,0,1,1.437-3.582,3.647,3.647,0,0,1,2.958-1.349,2.667,2.667,0,0,1,2.268,1.1l.325-.923,2.276.009L190.3,18.675a4.481,4.481,0,0,1-1.617,3.006,5.03,5.03,0,0,1-3.375,1.072,4.689,4.689,0,0,1-1.881-.426,4.022,4.022,0,0,1-1.477-1.121l1.23-1.512a2.642,2.642,0,0,0,2.074,1.081,2.436,2.436,0,0,0,1.652-.505,2.7,2.7,0,0,0,.932-1.525l.141-.571a3.092,3.092,0,0,1-2.329,1,2.732,2.732,0,0,1-2.206-1.033,4.44,4.44,0,0,1-.9-2.641A8.876,8.876,0,0,1,182.588,14.236Zm2.435,1.043a2.273,2.273,0,0,0,.347,1.325,1.215,1.215,0,0,0,1.006.524,2.219,2.219,0,0,0,1.793-.863l.738-4.031a1.458,1.458,0,0,0-1.4-.863,1.944,1.944,0,0,0-1.608.766,4.006,4.006,0,0,0-.826,2.1A9.241,9.241,0,0,0,185.023,15.279Z" transform="translate(500 7612.032)" fill="#12263f"/><g transform="translate(686.783 7660.776)"><g transform="translate(0 0)"><g transform="translate(0 0)"><g transform="translate(5.778 5.333)" style="mix-blend-mode:multiply;isolation:isolate"><g clip-path="url(#ac)"><g transform="translate(0 0)"><g clip-path="url(#ad)"><rect width="286.64" height="286.64" transform="translate(-101.342 101.342) rotate(-45)" fill="#e0f6be" stroke="#a7e446" stroke-width="7"/></g></g></g><path d="M76.209,117.5s-4.6-3.069-8.754,5.631,6.083,13.336,6.083,13.336" fill="none" stroke="#12263f" stroke-width="2"/></g><circle cx="107.289" cy="107.289" r="107.289" transform="translate(0)" fill="none" stroke="#64892a" stroke-miterlimit="10" stroke-width="4"/><g transform="translate(76.217 135.256)"><g clip-path="url(#ae)"><path d="M36.815,54.554a16.549,16.549,0,0,1-11.427-4.742q-8.5-8.251-16.914-16.592a9.183,9.183,0,0,1,0-13.088c1.288-1.3,2.614-2.568,3.921-3.853.678-.667.684-.676.016-1.327a4.953,4.953,0,0,1-1.538-3.021,3.979,3.979,0,0,1,1.44-3.77c.634-.526,1.283-1.035,1.926-1.552a2.621,2.621,0,0,0,.575-3.894A2.9,2.9,0,0,0,10.64,2.58c-1.217,1.166-2.391,2.378-3.6,3.549a4.351,4.351,0,0,1-6.294-.1C-.28,4.95-.272,4.931.923,4.013c.177-.136.266-.125.4.032.2.238.416.464.627.693a2.57,2.57,0,0,0,3.885.1C7.069,3.64,8.268,2.4,9.526,1.226A4.588,4.588,0,0,1,17,3.123a4.345,4.345,0,0,1-1.408,4.655c-.622.512-1.253,1.015-1.881,1.52a2.688,2.688,0,0,0-.39,4.048c.933,1.1.934,1.1,1.955.105q1.827-1.788,3.651-3.579a9.636,9.636,0,0,1,13.647-.022q8.254,8.072,16.481,16.171a16.21,16.21,0,0,1,5.075,12A16.642,16.642,0,0,1,41.57,54a19.194,19.194,0,0,1-4.755.558" transform="translate(0 0)" fill="#12263f"/><path d="M139.5,160.285a15.1,15.1,0,0,1-10.375-4.083c-1.961-1.846-3.855-3.762-5.781-5.646-1.061-1.038-2.117-2.081-3.192-3.1-.257-.244-.264-.379-.006-.636q10.314-10.291,20.606-20.6c.272-.272.434-.27.705,0,3.06,3.031,6.17,6.011,9.185,9.085a13.945,13.945,0,0,1,3.967,8.608,14.332,14.332,0,0,1-4.225,11.9,14.761,14.761,0,0,1-8.206,4.248,14.594,14.594,0,0,1-2.679.231" transform="translate(-102.328 -107.488)" fill="#a7e446"/><path d="M116.844,59.812a7.717,7.717,0,0,1,5.385,2.161c2.018,1.946,4,3.927,6.012,5.881.252.245.279.38.012.645q-4.8,4.766-9.564,9.559c-.242.244-.411.319-.645.012a3.2,3.2,0,0,0-.465-.467,1.361,1.361,0,0,1-.59-1.7,2.023,2.023,0,0,0-.641-2.057c-1.19-1.219-2.389-2.432-3.616-3.613a2.393,2.393,0,0,0-2.593-.554.5.5,0,0,1-.617-.139c-.858-.878-1.72-1.752-2.605-2.6-.265-.255-.2-.383.027-.6,1.487-1.44,2.952-2.9,4.443-4.341a7.736,7.736,0,0,1,5.458-2.18" transform="translate(-91.056 -51.021)" fill="#e0f6be"/><path d="M51.078,125.158a7.348,7.348,0,0,1,2.129-5.2c1.441-1.461,2.928-2.876,4.38-4.325.241-.24.374-.239.61,0,.854.882,1.725,1.747,2.6,2.6a.5.5,0,0,1,.13.618,2.4,2.4,0,0,0,.595,2.632q1.744,1.793,3.538,3.535a2.386,2.386,0,0,0,2.586.587.534.534,0,0,1,.666.161c.336.362.688.711,1.052,1.046.2.188.227.311.013.525q-4.674,4.654-9.327,9.329c-.2.2-.3.15-.472-.02-2.138-2.111-4.3-4.195-6.419-6.328a7.258,7.258,0,0,1-2.084-5.173" transform="translate(-43.571 -98.489)" fill="#e0f6be"/><path d="M134.222,142.127a1.022,1.022,0,0,1-.609.787.731.731,0,0,1-.906-.16c-1.171-1.159-2.342-2.32-3.5-3.5a.9.9,0,0,1,1.261-1.275c1.178,1.153,2.336,2.325,3.5,3.492a.838.838,0,0,1,.25.652" transform="translate(-109.996 -117.484)" fill="#fefefe"/><path d="M309.186,230.184a9.627,9.627,0,0,1-2.542,6.36c-.272.3-.468.346-.733.011-.238-.3-.64-.537-.731-.868-.1-.347.386-.557.594-.843a7.629,7.629,0,0,0,.8-8.268c-.165-.35-.138-.53.218-.664a1.843,1.843,0,0,0,.286-.163c.855-.514.853-.513,1.268.42a9.989,9.989,0,0,1,.841,4.015" transform="translate(-260.316 -192.277)" fill="#12263f"/></g></g><text transform="translate(103.216 64.509)" fill="#12263f" font-size="22" font-family="Roboto-Black, Roboto" font-weight="800"><tspan x="-42.877" y="0">Tipos de</tspan><tspan x="-55.086" y="28">contenidos</tspan><tspan x="-42.824" y="56">digitales</tspan></text></g></g></g><path d="M27.5,0h205a27.5,27.5,0,0,1,0,55H27.5a27.5,27.5,0,0,1,0-55Z" transform="translate(484 7887.032)" fill="#a7e446"/><path d="M21.1,17V4.2h4.482a5.886,5.886,0,0,1,3.533.892,3.05,3.05,0,0,1,1.2,2.615,2.891,2.891,0,0,1-.483,1.657,2.792,2.792,0,0,1-1.345,1.05,2.7,2.7,0,0,1,1.551.993,2.936,2.936,0,0,1,.567,1.828,3.377,3.377,0,0,1-1.178,2.795A5.3,5.3,0,0,1,26.074,17Zm2.637-5.572v3.454h2.259a2.18,2.18,0,0,0,1.455-.444,1.522,1.522,0,0,0,.523-1.226,1.607,1.607,0,0,0-1.819-1.784Zm0-1.863h1.951q2-.035,2-1.591a1.47,1.47,0,0,0-.505-1.252,2.658,2.658,0,0,0-1.6-.382H23.736Zm8.288,2.593a5.64,5.64,0,0,1,.545-2.522,3.989,3.989,0,0,1,1.569-1.714,4.577,4.577,0,0,1,2.377-.606,4.33,4.33,0,0,1,3.142,1.178,4.727,4.727,0,0,1,1.358,3.2l.018.65a4.97,4.97,0,0,1-1.222,3.511,4.247,4.247,0,0,1-3.278,1.323,4.268,4.268,0,0,1-3.283-1.318,5.058,5.058,0,0,1-1.226-3.586Zm2.54.18a3.555,3.555,0,0,0,.51,2.073,1.831,1.831,0,0,0,2.9.009,3.89,3.89,0,0,0,.519-2.267,3.519,3.519,0,0,0-.519-2.06,1.686,1.686,0,0,0-1.459-.731,1.658,1.658,0,0,0-1.441.726A3.955,3.955,0,0,0,34.564,12.338ZM45.278,17H42.729V3.5h2.549Zm6.469.176a4.668,4.668,0,0,1-3.406-1.283,4.561,4.561,0,0,1-1.314-3.419v-.246a5.745,5.745,0,0,1,.554-2.562,4.064,4.064,0,0,1,1.569-1.74,4.4,4.4,0,0,1,2.316-.611,3.947,3.947,0,0,1,3.072,1.23,5,5,0,0,1,1.121,3.489v1.037H49.6a2.36,2.36,0,0,0,.743,1.494,2.245,2.245,0,0,0,1.569.563,2.742,2.742,0,0,0,2.294-1.063l1.248,1.4a3.813,3.813,0,0,1-1.547,1.261A5.075,5.075,0,0,1,51.747,17.176Zm-.29-7.813a1.587,1.587,0,0,0-1.226.512,2.651,2.651,0,0,0-.6,1.466h3.533v-.2A1.891,1.891,0,0,0,52.7,9.826,1.638,1.638,0,0,0,51.457,9.362Zm8.684-4.21V7.49h1.626V9.354H60.14V14.1a1.133,1.133,0,0,0,.2.756,1.015,1.015,0,0,0,.773.229,4.051,4.051,0,0,0,.747-.062v1.925a5.229,5.229,0,0,1-1.538.229,2.425,2.425,0,0,1-2.725-2.7V9.354H56.211V7.49H57.6V5.152ZM65.862,17H63.313V7.49h2.549Zm-2.7-11.971a1.251,1.251,0,0,1,.382-.94,1.648,1.648,0,0,1,2.079,0,1.244,1.244,0,0,1,.387.94,1.247,1.247,0,0,1-.391.949,1.629,1.629,0,0,1-2.065,0A1.247,1.247,0,0,1,63.164,5.029ZM70.292,7.49l.079,1.1A3.32,3.32,0,0,1,73.1,7.314a2.759,2.759,0,0,1,2.25.888,4.142,4.142,0,0,1,.756,2.654V17H73.57V10.9a1.654,1.654,0,0,0-.352-1.176,1.572,1.572,0,0,0-1.169-.366,1.747,1.747,0,0,0-1.608.916V17H67.9V7.49Zm12.12,9.686a4.668,4.668,0,0,1-3.406-1.283,4.561,4.561,0,0,1-1.314-3.419v-.246a5.745,5.745,0,0,1,.554-2.562,4.064,4.064,0,0,1,1.569-1.74,4.4,4.4,0,0,1,2.316-.611A3.947,3.947,0,0,1,85.2,8.545a5,5,0,0,1,1.121,3.489v1.037H80.267a2.36,2.36,0,0,0,.743,1.494,2.245,2.245,0,0,0,1.569.563,2.742,2.742,0,0,0,2.294-1.063l1.248,1.4a3.813,3.813,0,0,1-1.547,1.261A5.075,5.075,0,0,1,82.412,17.176Zm-.29-7.813a1.587,1.587,0,0,0-1.226.512,2.651,2.651,0,0,0-.6,1.466h3.533v-.2a1.891,1.891,0,0,0-.457-1.311A1.638,1.638,0,0,0,82.122,9.362Zm10.793,5.01a.818.818,0,0,0-.461-.734,5.241,5.241,0,0,0-1.481-.479q-3.393-.712-3.393-2.883a2.613,2.613,0,0,1,1.05-2.114,4.237,4.237,0,0,1,2.747-.848,4.56,4.56,0,0,1,2.9.853,2.687,2.687,0,0,1,1.085,2.215h-2.54a1.229,1.229,0,0,0-.352-.9,1.488,1.488,0,0,0-1.1-.356,1.52,1.52,0,0,0-.993.29.916.916,0,0,0-.352.738.783.783,0,0,0,.4.681,4.114,4.114,0,0,0,1.349.448,11.019,11.019,0,0,1,1.6.426,2.628,2.628,0,0,1,2.013,2.558,2.481,2.481,0,0,1-1.116,2.1,4.815,4.815,0,0,1-2.883.8,5.029,5.029,0,0,1-2.123-.426,3.561,3.561,0,0,1-1.455-1.169,2.716,2.716,0,0,1-.527-1.6h2.408a1.326,1.326,0,0,0,.5,1.037,1.987,1.987,0,0,0,1.248.36,1.839,1.839,0,0,0,1.1-.277A.861.861,0,0,0,92.915,14.372Z" transform="translate(557 7904.032)" fill="#12263f"/><path d="M28.088,0H232.1a28.088,28.088,0,0,1,0,56.176H28.088A28.088,28.088,0,0,1,28.088,0Z" transform="translate(946.049 7789.011)" fill="#a7e446"/><g transform="translate(949.816 7690.456)"><rect width="260.183" height="57.161" rx="28.581" transform="translate(0 0)" fill="#a7e446"/></g><g transform="translate(865.504 7594.944)"><rect width="260" height="56" rx="28" transform="translate(0.497 0.088)" fill="#a7e446"/></g><path d="M27.5,0h207a27.5,27.5,0,0,1,0,55H27.5a27.5,27.5,0,0,1,0-55Z" transform="translate(875 7887.032)" fill="#a7e446"/><path d="M46.325,15.282,49.41,6.2h2.628L47.283,19H44.69l-.677-8.525L40.665,19H38.072L37.316,6.2H39.83l.255,9.035L43.53,6.2h2.188Zm9.4,3.894a4.137,4.137,0,0,1-2.21-.611,3.7,3.7,0,0,1-1.437-1.652A4.605,4.605,0,0,1,51.7,14.6l.026-.352a6.148,6.148,0,0,1,.809-2.549,4.884,4.884,0,0,1,1.74-1.789,4.306,4.306,0,0,1,2.355-.593,3.29,3.29,0,0,1,2.782,1.351A4.631,4.631,0,0,1,60.133,14l-.141,1.083H54.165a2.041,2.041,0,0,0,.448,1.477,1.711,1.711,0,0,0,1.318.571A3.041,3.041,0,0,0,58.3,16.073l1.134,1.406a3.527,3.527,0,0,1-1.547,1.261A5.059,5.059,0,0,1,55.721,19.176Zm.791-7.813a1.761,1.761,0,0,0-1.217.431,3.784,3.784,0,0,0-.954,1.556h3.41l.053-.229a2.33,2.33,0,0,0,.009-.668,1.276,1.276,0,0,0-.431-.8A1.35,1.35,0,0,0,56.512,11.362Zm13.359,2.909a6.819,6.819,0,0,1-1.371,3.6,3.412,3.412,0,0,1-2.865,1.31,2.652,2.652,0,0,1-2.285-1.213L62.989,19H60.73L63.068,5.5h2.487L64.6,10.36a2.963,2.963,0,0,1,2.32-1.046,2.683,2.683,0,0,1,2.167.989,4.376,4.376,0,0,1,.839,2.685A10.274,10.274,0,0,1,69.871,14.271Zm-2.461-.185a7.373,7.373,0,0,0,.053-1.164q-.1-1.534-1.266-1.56a2.062,2.062,0,0,0-1.819,1l-.686,3.791a1.415,1.415,0,0,0,1.424.987q1.828.053,2.241-2.662ZM73.264,19h-2.5L72.42,9.49h2.5ZM72.71,7.073A1.238,1.238,0,0,1,73.1,6.1a1.488,1.488,0,0,1,1.951-.044,1.233,1.233,0,0,1,.431.932,1.273,1.273,0,0,1-.365.949,1.367,1.367,0,0,1-1,.422,1.39,1.39,0,0,1-.971-.334A1.227,1.227,0,0,1,72.71,7.073Zm6.574,2.408-.211,1.125a3.422,3.422,0,0,1,2.769-1.292,2.281,2.281,0,0,1,1.986.984,3.966,3.966,0,0,1,.466,2.654l-1,6.047H80.813l1.02-6.073a2.844,2.844,0,0,0,.018-.624,1.007,1.007,0,0,0-1.125-.923,2.133,2.133,0,0,0-1.749.905L77.79,19H75.312l1.652-9.51ZM90.736,19a2.566,2.566,0,0,1-.1-.861,3.221,3.221,0,0,1-2.426,1.037,2.919,2.919,0,0,1-2.07-.813,2.46,2.46,0,0,1-.769-1.964,2.843,2.843,0,0,1,1.305-2.386,5.924,5.924,0,0,1,3.335-.831l1.16.018.123-.571a1.984,1.984,0,0,0,.026-.554.952.952,0,0,0-.312-.646,1.075,1.075,0,0,0-.708-.242,1.514,1.514,0,0,0-.984.286,1.384,1.384,0,0,0-.519.875l-2.487.009a2.764,2.764,0,0,1,1.252-2.21,4.851,4.851,0,0,1,2.94-.831,3.507,3.507,0,0,1,2.531.962,2.816,2.816,0,0,1,.765,2.386l-.729,4.553-.044.563a2.714,2.714,0,0,0,.149,1.055L93.171,19Zm-1.907-1.749a2.27,2.27,0,0,0,1.872-.932l.308-1.644-.861-.009a2.406,2.406,0,0,0-1.978.835,1.454,1.454,0,0,0-.272.712.844.844,0,0,0,.2.751A1,1,0,0,0,88.829,17.251ZM101.2,11.872a5.117,5.117,0,0,0-.835-.088,2.4,2.4,0,0,0-2.1.993L97.161,19H94.683l1.652-9.51,2.329-.009-.229,1.16A2.615,2.615,0,0,1,100.65,9.3a3.615,3.615,0,0,1,.861.123Zm5.458,4.447q.141-.7-.976-1.02l-.8-.2q-2.839-.782-2.76-2.76a2.731,2.731,0,0,1,1.191-2.193,4.434,4.434,0,0,1,2.764-.831,3.978,3.978,0,0,1,2.6.853,2.809,2.809,0,0,1,1.011,2.224l-2.461-.009a1.084,1.084,0,0,0-1.213-1.239,1.745,1.745,0,0,0-1.006.29,1.194,1.194,0,0,0-.523.782q-.132.7,1.063.993l.352.079a7.071,7.071,0,0,1,1.854.664,2.8,2.8,0,0,1,.989.927,2.3,2.3,0,0,1,.321,1.327,2.533,2.533,0,0,1-.584,1.582,3.577,3.577,0,0,1-1.529,1.046,5.328,5.328,0,0,1-2.043.343,4.015,4.015,0,0,1-2.637-.91,2.933,2.933,0,0,1-1.072-2.307l2.338.018a1.285,1.285,0,0,0,1.459,1.38,2.076,2.076,0,0,0,1.129-.281A1.111,1.111,0,0,0,106.653,16.319Z" transform="translate(922 7612.032)" fill="#12263f"/><path d="M14.645,12.491V17H12.008V4.2H17a5.776,5.776,0,0,1,2.536.527,3.886,3.886,0,0,1,1.683,1.5,4.178,4.178,0,0,1,.589,2.21,3.674,3.674,0,0,1-1.288,2.966,5.363,5.363,0,0,1-3.564,1.085Zm0-2.136H17a2.316,2.316,0,0,0,1.6-.492,1.79,1.79,0,0,0,.549-1.406,2.111,2.111,0,0,0-.554-1.521,2.068,2.068,0,0,0-1.529-.6H14.645Zm14.5,5.678a3.185,3.185,0,0,1-2.6,1.143,3,3,0,0,1-2.333-.879,3.752,3.752,0,0,1-.822-2.575V7.49h2.54v6.151q0,1.487,1.354,1.487a1.834,1.834,0,0,0,1.775-.9V7.49h2.549V17H29.217Zm12.946-3.7a5.758,5.758,0,0,1-.976,3.564,3.231,3.231,0,0,1-2.725,1.279,2.969,2.969,0,0,1-2.47-1.187L35.809,17H33.524V3.5h2.54V8.343a2.893,2.893,0,0,1,2.312-1.028A3.258,3.258,0,0,1,41.1,8.593a5.767,5.767,0,0,1,.989,3.6Zm-2.54-.194a3.8,3.8,0,0,0-.457-2.111,1.544,1.544,0,0,0-1.362-.666,1.675,1.675,0,0,0-1.67,1v3.764a1.7,1.7,0,0,0,1.688,1,1.569,1.569,0,0,0,1.617-1.217A6.294,6.294,0,0,0,39.553,12.139ZM46.338,17H43.789V3.5h2.549Zm4.772,0H48.562V7.49h2.549Zm-2.7-11.971a1.251,1.251,0,0,1,.382-.94,1.648,1.648,0,0,1,2.079,0,1.244,1.244,0,0,1,.387.94,1.247,1.247,0,0,1-.391.949,1.629,1.629,0,0,1-2.065,0A1.247,1.247,0,0,1,48.412,5.029Zm8.745,10.1a1.666,1.666,0,0,0,1.143-.387,1.355,1.355,0,0,0,.457-1.028h2.382a3.258,3.258,0,0,1-.527,1.771,3.48,3.48,0,0,1-1.419,1.248,4.442,4.442,0,0,1-1.991.444,4.129,4.129,0,0,1-3.217-1.3A5.13,5.13,0,0,1,52.807,12.3v-.167a5.071,5.071,0,0,1,1.169-3.507,4.08,4.08,0,0,1,3.208-1.31A4,4,0,0,1,60.045,8.33a3.594,3.594,0,0,1,1.094,2.7H58.757A1.745,1.745,0,0,0,58.3,9.826a1.7,1.7,0,0,0-2.5.183,3.749,3.749,0,0,0-.453,2.1v.264a3.8,3.8,0,0,0,.448,2.113A1.549,1.549,0,0,0,57.158,15.128ZM68.1,17a2.821,2.821,0,0,1-.255-.853,3.073,3.073,0,0,1-2.4,1.028,3.376,3.376,0,0,1-2.316-.809,2.6,2.6,0,0,1-.918-2.039,2.687,2.687,0,0,1,1.121-2.32,5.529,5.529,0,0,1,3.239-.817H67.74v-.545A1.567,1.567,0,0,0,67.4,9.591a1.331,1.331,0,0,0-1.068-.4,1.513,1.513,0,0,0-1.006.308,1.045,1.045,0,0,0-.365.844h-2.54a2.551,2.551,0,0,1,.51-1.529,3.37,3.37,0,0,1,1.441-1.1,5.253,5.253,0,0,1,2.092-.4,4.15,4.15,0,0,1,2.791.883,3.09,3.09,0,0,1,1.033,2.483V14.8a4.546,4.546,0,0,0,.378,2.048V17ZM66,15.233a2.188,2.188,0,0,0,1.037-.25,1.645,1.645,0,0,0,.7-.672V12.676H66.79q-1.907,0-2.03,1.318l-.009.149a1.017,1.017,0,0,0,.334.782A1.3,1.3,0,0,0,66,15.233Zm10.2-.105a1.666,1.666,0,0,0,1.143-.387,1.355,1.355,0,0,0,.457-1.028h2.382a3.258,3.258,0,0,1-.527,1.771,3.48,3.48,0,0,1-1.419,1.248,4.442,4.442,0,0,1-1.991.444,4.129,4.129,0,0,1-3.217-1.3A5.13,5.13,0,0,1,71.844,12.3v-.167a5.071,5.071,0,0,1,1.169-3.507,4.08,4.08,0,0,1,3.208-1.31A4,4,0,0,1,79.082,8.33a3.594,3.594,0,0,1,1.094,2.7H77.794a1.745,1.745,0,0,0-.457-1.206,1.7,1.7,0,0,0-2.5.183,3.749,3.749,0,0,0-.453,2.1v.264a3.8,3.8,0,0,0,.448,2.113A1.549,1.549,0,0,0,76.195,15.128ZM84.307,17H81.758V7.49h2.549Zm-2.7-11.971a1.251,1.251,0,0,1,.382-.94,1.648,1.648,0,0,1,2.079,0,1.244,1.244,0,0,1,.387.94,1.247,1.247,0,0,1-.391.949,1.629,1.629,0,0,1-2.065,0A1.247,1.247,0,0,1,81.609,5.029ZM86,12.157a5.64,5.64,0,0,1,.545-2.522,3.989,3.989,0,0,1,1.569-1.714,4.577,4.577,0,0,1,2.377-.606,4.33,4.33,0,0,1,3.142,1.178,4.727,4.727,0,0,1,1.358,3.2l.018.65a4.97,4.97,0,0,1-1.222,3.511,4.735,4.735,0,0,1-6.561,0A5.058,5.058,0,0,1,86,12.271Zm2.54.18a3.555,3.555,0,0,0,.51,2.073,1.831,1.831,0,0,0,2.9.009,3.89,3.89,0,0,0,.519-2.267,3.519,3.519,0,0,0-.519-2.06,1.686,1.686,0,0,0-1.459-.731,1.658,1.658,0,0,0-1.441.726A3.955,3.955,0,0,0,88.543,12.338ZM98.914,7.49l.079,1.1a3.32,3.32,0,0,1,2.733-1.274,2.759,2.759,0,0,1,2.25.888,4.142,4.142,0,0,1,.756,2.654V17h-2.54V10.9a1.654,1.654,0,0,0-.352-1.176,1.572,1.572,0,0,0-1.169-.366,1.747,1.747,0,0,0-1.608.916V17h-2.54V7.49Zm12.12,9.686a4.668,4.668,0,0,1-3.406-1.283,4.561,4.561,0,0,1-1.314-3.419v-.246a5.745,5.745,0,0,1,.554-2.562,4.064,4.064,0,0,1,1.569-1.74,4.4,4.4,0,0,1,2.316-.611,3.947,3.947,0,0,1,3.072,1.23,5,5,0,0,1,1.121,3.489v1.037H108.89a2.36,2.36,0,0,0,.743,1.494,2.245,2.245,0,0,0,1.569.563,2.742,2.742,0,0,0,2.294-1.063l1.248,1.4a3.813,3.813,0,0,1-1.547,1.261A5.075,5.075,0,0,1,111.034,17.176Zm-.29-7.813a1.587,1.587,0,0,0-1.226.512,2.651,2.651,0,0,0-.6,1.466h3.533v-.2a1.891,1.891,0,0,0-.457-1.311A1.638,1.638,0,0,0,110.744,9.362Zm10.793,5.01a.818.818,0,0,0-.461-.734,5.241,5.241,0,0,0-1.481-.479q-3.393-.712-3.393-2.883a2.613,2.613,0,0,1,1.05-2.114A4.237,4.237,0,0,1,120,7.314a4.56,4.56,0,0,1,2.9.853,2.687,2.687,0,0,1,1.085,2.215h-2.54a1.229,1.229,0,0,0-.352-.9,1.488,1.488,0,0,0-1.1-.356,1.52,1.52,0,0,0-.993.29.916.916,0,0,0-.352.738.783.783,0,0,0,.4.681,4.114,4.114,0,0,0,1.349.448,11.019,11.019,0,0,1,1.6.426,2.628,2.628,0,0,1,2.013,2.558,2.481,2.481,0,0,1-1.116,2.1,4.815,4.815,0,0,1-2.883.8,5.029,5.029,0,0,1-2.123-.426,3.561,3.561,0,0,1-1.455-1.169,2.716,2.716,0,0,1-.527-1.6h2.408a1.326,1.326,0,0,0,.5,1.037,1.987,1.987,0,0,0,1.248.36,1.839,1.839,0,0,0,1.1-.277A.861.861,0,0,0,121.537,14.372Zm12.964,2.8a4.668,4.668,0,0,1-3.406-1.283,4.561,4.561,0,0,1-1.314-3.419v-.246a5.745,5.745,0,0,1,.554-2.562,4.064,4.064,0,0,1,1.569-1.74,4.4,4.4,0,0,1,2.316-.611,3.947,3.947,0,0,1,3.072,1.23,5,5,0,0,1,1.121,3.489v1.037h-6.056a2.36,2.36,0,0,0,.743,1.494,2.245,2.245,0,0,0,1.569.563,2.742,2.742,0,0,0,2.294-1.063l1.248,1.4a3.813,3.813,0,0,1-1.547,1.261A5.075,5.075,0,0,1,134.5,17.176Zm-.29-7.813a1.587,1.587,0,0,0-1.226.512,2.651,2.651,0,0,0-.6,1.466h3.533v-.2a1.891,1.891,0,0,0-.457-1.311A1.638,1.638,0,0,0,134.211,9.362Zm7.98-1.872.079,1.1A3.32,3.32,0,0,1,145,7.314a2.759,2.759,0,0,1,2.25.888,4.142,4.142,0,0,1,.756,2.654V17h-2.54V10.9a1.654,1.654,0,0,0-.352-1.176,1.572,1.572,0,0,0-1.169-.366,1.747,1.747,0,0,0-1.608.916V17H139.8V7.49ZM27.864,34.872a6.9,6.9,0,0,0-.914-.07,1.86,1.86,0,0,0-1.89.976V42H22.52V32.49h2.4l.07,1.134a2.354,2.354,0,0,1,2.118-1.31,2.662,2.662,0,0,1,.791.114Zm5.432,7.3a4.668,4.668,0,0,1-3.406-1.283,4.561,4.561,0,0,1-1.314-3.419v-.246a5.745,5.745,0,0,1,.554-2.562,4.064,4.064,0,0,1,1.569-1.74,4.4,4.4,0,0,1,2.316-.611,3.947,3.947,0,0,1,3.072,1.23,5,5,0,0,1,1.121,3.489v1.037H31.151a2.36,2.36,0,0,0,.743,1.494,2.245,2.245,0,0,0,1.569.563,2.742,2.742,0,0,0,2.294-1.063L37,40.462a3.813,3.813,0,0,1-1.547,1.261A5.075,5.075,0,0,1,33.3,42.176Zm-.29-7.813a1.587,1.587,0,0,0-1.226.512,2.651,2.651,0,0,0-.6,1.466H34.71v-.2a1.891,1.891,0,0,0-.457-1.311A1.638,1.638,0,0,0,33.005,34.362Zm5.247,2.813a5.731,5.731,0,0,1,1-3.542,3.237,3.237,0,0,1,2.729-1.318,2.913,2.913,0,0,1,2.294,1.037V28.5h2.549V42H44.528L44.4,40.989a2.989,2.989,0,0,1-2.443,1.187,3.228,3.228,0,0,1-2.694-1.323A5.916,5.916,0,0,1,38.252,37.175Zm2.54.181a3.775,3.775,0,0,0,.466,2.057,1.516,1.516,0,0,0,1.354.715,1.7,1.7,0,0,0,1.661-1V35.36a1.675,1.675,0,0,0-1.644-1Q40.792,34.362,40.792,37.356Zm12.375,4.82a4.668,4.668,0,0,1-3.406-1.283,4.561,4.561,0,0,1-1.314-3.419v-.246A5.745,5.745,0,0,1,49,34.666a4.064,4.064,0,0,1,1.569-1.74,4.4,4.4,0,0,1,2.316-.611,3.947,3.947,0,0,1,3.072,1.23,5,5,0,0,1,1.121,3.489v1.037H51.023a2.36,2.36,0,0,0,.743,1.494,2.245,2.245,0,0,0,1.569.563,2.742,2.742,0,0,0,2.294-1.063l1.248,1.4a3.813,3.813,0,0,1-1.547,1.261A5.075,5.075,0,0,1,53.167,42.176Zm-.29-7.813a1.587,1.587,0,0,0-1.226.512,2.651,2.651,0,0,0-.6,1.466h3.533v-.2a1.891,1.891,0,0,0-.457-1.311A1.638,1.638,0,0,0,52.877,34.362Zm10.793,5.01a.818.818,0,0,0-.461-.734,5.241,5.241,0,0,0-1.481-.479q-3.393-.712-3.393-2.883a2.613,2.613,0,0,1,1.05-2.114,4.237,4.237,0,0,1,2.747-.848,4.56,4.56,0,0,1,2.9.853,2.687,2.687,0,0,1,1.085,2.215h-2.54a1.229,1.229,0,0,0-.352-.9,1.488,1.488,0,0,0-1.1-.356,1.52,1.52,0,0,0-.993.29.916.916,0,0,0-.352.738.783.783,0,0,0,.4.681,4.114,4.114,0,0,0,1.349.448,11.019,11.019,0,0,1,1.6.426,2.628,2.628,0,0,1,2.013,2.558,2.481,2.481,0,0,1-1.116,2.1,4.815,4.815,0,0,1-2.883.8,5.029,5.029,0,0,1-2.123-.426,3.561,3.561,0,0,1-1.455-1.169,2.716,2.716,0,0,1-.527-1.6h2.408a1.326,1.326,0,0,0,.5,1.037,1.987,1.987,0,0,0,1.248.36,1.839,1.839,0,0,0,1.1-.277A.861.861,0,0,0,63.67,39.372Zm13.737,0a.818.818,0,0,0-.461-.734,5.241,5.241,0,0,0-1.481-.479q-3.393-.712-3.393-2.883a2.613,2.613,0,0,1,1.05-2.114,4.237,4.237,0,0,1,2.747-.848,4.56,4.56,0,0,1,2.9.853,2.687,2.687,0,0,1,1.085,2.215h-2.54a1.229,1.229,0,0,0-.352-.9,1.488,1.488,0,0,0-1.1-.356,1.52,1.52,0,0,0-.993.29.916.916,0,0,0-.352.738.783.783,0,0,0,.4.681,4.114,4.114,0,0,0,1.349.448,11.019,11.019,0,0,1,1.6.426,2.628,2.628,0,0,1,2.013,2.558,2.481,2.481,0,0,1-1.116,2.1,4.815,4.815,0,0,1-2.883.8,5.029,5.029,0,0,1-2.123-.426A3.561,3.561,0,0,1,72.3,40.581a2.716,2.716,0,0,1-.527-1.6h2.408a1.326,1.326,0,0,0,.5,1.037,1.987,1.987,0,0,0,1.248.36,1.839,1.839,0,0,0,1.1-.277A.861.861,0,0,0,77.408,39.372Zm3.709-2.215a5.64,5.64,0,0,1,.545-2.522,3.989,3.989,0,0,1,1.569-1.714,4.577,4.577,0,0,1,2.377-.606,4.33,4.33,0,0,1,3.142,1.178,4.727,4.727,0,0,1,1.358,3.2l.018.65A4.97,4.97,0,0,1,88.9,40.853a4.735,4.735,0,0,1-6.561,0,5.058,5.058,0,0,1-1.226-3.586Zm2.54.18a3.555,3.555,0,0,0,.51,2.073,1.831,1.831,0,0,0,2.9.009,3.89,3.89,0,0,0,.519-2.267,3.519,3.519,0,0,0-.519-2.06,1.686,1.686,0,0,0-1.459-.731,1.658,1.658,0,0,0-1.441.726A3.955,3.955,0,0,0,83.657,37.338Zm11.988,2.79a1.666,1.666,0,0,0,1.143-.387,1.355,1.355,0,0,0,.457-1.028h2.382a3.258,3.258,0,0,1-.527,1.771,3.48,3.48,0,0,1-1.419,1.248,4.442,4.442,0,0,1-1.991.444,4.129,4.129,0,0,1-3.217-1.3A5.13,5.13,0,0,1,91.294,37.3v-.167a5.071,5.071,0,0,1,1.169-3.507,4.08,4.08,0,0,1,3.208-1.31,4,4,0,0,1,2.861,1.015,3.594,3.594,0,0,1,1.094,2.7H97.244a1.745,1.745,0,0,0-.457-1.206,1.7,1.7,0,0,0-2.5.183,3.749,3.749,0,0,0-.453,2.1v.264a3.8,3.8,0,0,0,.448,2.113A1.549,1.549,0,0,0,95.645,40.128ZM103.757,42h-2.549V32.49h2.549Zm-2.7-11.971a1.251,1.251,0,0,1,.382-.94,1.648,1.648,0,0,1,2.079,0,1.342,1.342,0,0,1,0,1.89,1.629,1.629,0,0,1-2.065,0A1.247,1.247,0,0,1,101.059,30.029ZM111.36,42a2.821,2.821,0,0,1-.255-.853,3.073,3.073,0,0,1-2.4,1.028,3.376,3.376,0,0,1-2.316-.809,2.6,2.6,0,0,1-.918-2.039,2.687,2.687,0,0,1,1.121-2.32,5.529,5.529,0,0,1,3.239-.817H111v-.545a1.567,1.567,0,0,0-.338-1.055,1.331,1.331,0,0,0-1.068-.4,1.513,1.513,0,0,0-1.006.308,1.045,1.045,0,0,0-.365.844h-2.54a2.551,2.551,0,0,1,.51-1.529,3.37,3.37,0,0,1,1.441-1.1,5.253,5.253,0,0,1,2.092-.4,4.15,4.15,0,0,1,2.791.883,3.09,3.09,0,0,1,1.033,2.483V39.8a4.546,4.546,0,0,0,.378,2.048V42Zm-2.1-1.767a2.188,2.188,0,0,0,1.037-.25,1.645,1.645,0,0,0,.7-.672V37.676h-.949q-1.907,0-2.03,1.318l-.009.149a1.017,1.017,0,0,0,.334.782A1.3,1.3,0,0,0,109.259,40.233ZM118.18,42h-2.549V28.5h2.549Zm6.469.176a4.668,4.668,0,0,1-3.406-1.283,4.561,4.561,0,0,1-1.314-3.419v-.246a5.745,5.745,0,0,1,.554-2.562,4.064,4.064,0,0,1,1.569-1.74,4.4,4.4,0,0,1,2.316-.611,3.947,3.947,0,0,1,3.072,1.23,5,5,0,0,1,1.121,3.489v1.037H122.5a2.36,2.36,0,0,0,.743,1.494,2.245,2.245,0,0,0,1.569.563,2.742,2.742,0,0,0,2.294-1.063l1.248,1.4a3.813,3.813,0,0,1-1.547,1.261A5.075,5.075,0,0,1,124.649,42.176Zm-.29-7.813a1.587,1.587,0,0,0-1.226.512,2.651,2.651,0,0,0-.6,1.466h3.533v-.2a1.891,1.891,0,0,0-.457-1.311A1.638,1.638,0,0,0,124.359,34.362Zm10.793,5.01a.818.818,0,0,0-.461-.734,5.241,5.241,0,0,0-1.481-.479q-3.393-.712-3.393-2.883a2.613,2.613,0,0,1,1.05-2.114,4.237,4.237,0,0,1,2.747-.848,4.56,4.56,0,0,1,2.9.853,2.687,2.687,0,0,1,1.085,2.215h-2.54a1.229,1.229,0,0,0-.352-.9,1.488,1.488,0,0,0-1.1-.356,1.52,1.52,0,0,0-.993.29.916.916,0,0,0-.352.738.783.783,0,0,0,.4.681,4.114,4.114,0,0,0,1.349.448,11.019,11.019,0,0,1,1.6.426,2.628,2.628,0,0,1,2.013,2.558,2.481,2.481,0,0,1-1.116,2.1,4.815,4.815,0,0,1-2.883.8,5.029,5.029,0,0,1-2.123-.426,3.561,3.561,0,0,1-1.455-1.169,2.716,2.716,0,0,1-.527-1.6h2.408a1.326,1.326,0,0,0,.5,1.037,1.987,1.987,0,0,0,1.248.36,1.839,1.839,0,0,0,1.1-.277A.861.861,0,0,0,135.152,39.372Z" transform="translate(996.312 7792.952)" fill="#12263f"/><path d="M29.569,13.827l2.9-9.624H35.4L30.949,17H28.2L23.759,4.2h2.927ZM39.122,17H36.574V7.49h2.549Zm-2.7-11.971a1.251,1.251,0,0,1,.382-.94,1.648,1.648,0,0,1,2.079,0,1.244,1.244,0,0,1,.387.94,1.247,1.247,0,0,1-.391.949,1.629,1.629,0,0,1-2.065,0A1.247,1.247,0,0,1,36.424,5.029Zm4.395,7.146a5.731,5.731,0,0,1,1-3.542,3.237,3.237,0,0,1,2.729-1.318,2.913,2.913,0,0,1,2.294,1.037V3.5h2.549V17H47.094l-.123-1.011a2.989,2.989,0,0,1-2.443,1.187,3.228,3.228,0,0,1-2.694-1.323A5.916,5.916,0,0,1,40.819,12.175Zm2.54.181a3.775,3.775,0,0,0,.466,2.057,1.516,1.516,0,0,0,1.354.715,1.7,1.7,0,0,0,1.661-1V10.36a1.675,1.675,0,0,0-1.644-1Q43.359,9.362,43.359,12.356Zm12.375,4.82a4.668,4.668,0,0,1-3.406-1.283,4.561,4.561,0,0,1-1.314-3.419v-.246a5.745,5.745,0,0,1,.554-2.562,4.064,4.064,0,0,1,1.569-1.74,4.4,4.4,0,0,1,2.316-.611,3.947,3.947,0,0,1,3.072,1.23,5,5,0,0,1,1.121,3.489v1.037H53.589a2.36,2.36,0,0,0,.743,1.494,2.245,2.245,0,0,0,1.569.563,2.742,2.742,0,0,0,2.294-1.063l1.248,1.4A3.813,3.813,0,0,1,57.9,16.723,5.075,5.075,0,0,1,55.734,17.176Zm-.29-7.813a1.587,1.587,0,0,0-1.226.512,2.651,2.651,0,0,0-.6,1.466h3.533v-.2a1.891,1.891,0,0,0-.457-1.311A1.638,1.638,0,0,0,55.444,9.362Zm5.247,2.795a5.64,5.64,0,0,1,.545-2.522A3.989,3.989,0,0,1,62.8,7.921a4.577,4.577,0,0,1,2.377-.606,4.33,4.33,0,0,1,3.142,1.178,4.727,4.727,0,0,1,1.358,3.2l.018.65a4.97,4.97,0,0,1-1.222,3.511,4.735,4.735,0,0,1-6.561,0,5.058,5.058,0,0,1-1.226-3.586Zm2.54.18a3.555,3.555,0,0,0,.51,2.073,1.831,1.831,0,0,0,2.9.009,3.89,3.89,0,0,0,.519-2.267,3.519,3.519,0,0,0-.519-2.06,1.686,1.686,0,0,0-1.459-.731,1.658,1.658,0,0,0-1.441.726A3.955,3.955,0,0,0,63.231,12.338Zm13.184,2.035a.818.818,0,0,0-.461-.734,5.241,5.241,0,0,0-1.481-.479q-3.393-.712-3.393-2.883a2.613,2.613,0,0,1,1.05-2.114,4.237,4.237,0,0,1,2.747-.848,4.56,4.56,0,0,1,2.9.853,2.687,2.687,0,0,1,1.085,2.215h-2.54a1.229,1.229,0,0,0-.352-.9,1.488,1.488,0,0,0-1.1-.356,1.52,1.52,0,0,0-.993.29.916.916,0,0,0-.352.738.783.783,0,0,0,.4.681,4.114,4.114,0,0,0,1.349.448,11.019,11.019,0,0,1,1.6.426,2.628,2.628,0,0,1,2.013,2.558,2.481,2.481,0,0,1-1.116,2.1,4.815,4.815,0,0,1-2.883.8,5.029,5.029,0,0,1-2.123-.426,3.561,3.561,0,0,1-1.455-1.169,2.716,2.716,0,0,1-.527-1.6h2.408a1.326,1.326,0,0,0,.5,1.037,1.987,1.987,0,0,0,1.248.36,1.839,1.839,0,0,0,1.1-.277A.861.861,0,0,0,76.414,14.372Z" transform="translate(1028.66 7707.211)" fill="#12263f"/><path d="M32.65,14.491,31.859,19H29.284L31.507,6.2l4.482.009A4.484,4.484,0,0,1,39.25,7.363a3.57,3.57,0,0,1,1.037,3.006,4.041,4.041,0,0,1-1.569,3.006A5.709,5.709,0,0,1,35.076,14.5Zm.36-2.136,2.145.018a2.711,2.711,0,0,0,1.723-.536,2.157,2.157,0,0,0,.817-1.45A1.852,1.852,0,0,0,37.4,8.928a1.6,1.6,0,0,0-1.261-.58l-2.426-.009ZM45.8,9.314a3.814,3.814,0,0,1,2.167.646A3.638,3.638,0,0,1,49.3,11.692a5.357,5.357,0,0,1,.3,2.448,5.786,5.786,0,0,1-1.578,3.669,4.455,4.455,0,0,1-3.4,1.367,3.8,3.8,0,0,1-2.145-.637,3.624,3.624,0,0,1-1.336-1.718,5.239,5.239,0,0,1-.308-2.426,5.957,5.957,0,0,1,1.6-3.744A4.363,4.363,0,0,1,45.8,9.314Zm-2.5,5.979a2.194,2.194,0,0,0,.4,1.33,1.314,1.314,0,0,0,1.063.5,1.926,1.926,0,0,0,1.793-1.049,5.227,5.227,0,0,0,.606-2.848,2.387,2.387,0,0,0-.409-1.347,1.293,1.293,0,0,0-1.068-.522A1.929,1.929,0,0,0,43.9,12.4,5.173,5.173,0,0,0,43.293,15.294ZM55.036,9.306a2.706,2.706,0,0,1,2.145,1.063L58.112,5.5H60.6L58.261,19H56.046l.141-1.02a3.078,3.078,0,0,1-2.479,1.2,2.738,2.738,0,0,1-1.556-.466A2.933,2.933,0,0,1,51.12,17.4a5.292,5.292,0,0,1-.4-1.912,7.2,7.2,0,0,1,.026-1.072l.053-.4a7.613,7.613,0,0,1,.813-2.566,4.237,4.237,0,0,1,1.477-1.644A3.481,3.481,0,0,1,55.036,9.306Zm-1.8,5.115a7.118,7.118,0,0,0-.044,1.125q.088,1.547,1.248,1.573a2.121,2.121,0,0,0,1.819-.984l.677-3.779a1.4,1.4,0,0,0-1.371-.984,1.806,1.806,0,0,0-1.507.7A4.7,4.7,0,0,0,53.234,14.421ZM64.4,17.137a1.628,1.628,0,0,0,1.143-.374,1.836,1.836,0,0,0,.6-1.042l2.329-.009a3.416,3.416,0,0,1-.628,1.8,3.818,3.818,0,0,1-1.512,1.248,4.327,4.327,0,0,1-1.991.422,3.514,3.514,0,0,1-2.742-1.2,4.461,4.461,0,0,1-.976-3.111l.026-.483.009-.1a5.945,5.945,0,0,1,1.564-3.678A4.231,4.231,0,0,1,65.5,9.314a3.428,3.428,0,0,1,2.553,1.05,3.71,3.71,0,0,1,.927,2.676H66.672a1.947,1.947,0,0,0-.334-1.2,1.269,1.269,0,0,0-1-.475q-1.775-.053-2.153,2.593a8.755,8.755,0,0,0-.1,1.617Q63.174,17.11,64.4,17.137ZM74.934,19a2.566,2.566,0,0,1-.1-.861,3.221,3.221,0,0,1-2.426,1.037,2.919,2.919,0,0,1-2.07-.813,2.46,2.46,0,0,1-.769-1.964,2.843,2.843,0,0,1,1.305-2.386,5.924,5.924,0,0,1,3.335-.831l1.16.018.123-.571a1.984,1.984,0,0,0,.026-.554.952.952,0,0,0-.312-.646,1.075,1.075,0,0,0-.708-.242,1.514,1.514,0,0,0-.984.286,1.384,1.384,0,0,0-.519.875l-2.487.009a2.764,2.764,0,0,1,1.252-2.21,4.851,4.851,0,0,1,2.94-.831,3.507,3.507,0,0,1,2.531.962A2.816,2.816,0,0,1,78,12.663l-.729,4.553-.044.563a2.714,2.714,0,0,0,.149,1.055L77.369,19Zm-1.907-1.749a2.27,2.27,0,0,0,1.872-.932l.308-1.644-.861-.009a2.406,2.406,0,0,0-1.978.835,1.454,1.454,0,0,0-.272.712.844.844,0,0,0,.2.751A1,1,0,0,0,73.027,17.251Zm11.364-.932q.141-.7-.976-1.02l-.8-.2q-2.839-.782-2.76-2.76a2.731,2.731,0,0,1,1.191-2.193,4.434,4.434,0,0,1,2.764-.831,3.978,3.978,0,0,1,2.6.853,2.809,2.809,0,0,1,1.011,2.224l-2.461-.009a1.084,1.084,0,0,0-1.213-1.239,1.745,1.745,0,0,0-1.006.29,1.194,1.194,0,0,0-.523.782q-.132.7,1.063.993l.352.079a7.071,7.071,0,0,1,1.854.664,2.8,2.8,0,0,1,.989.927,2.3,2.3,0,0,1,.321,1.327,2.533,2.533,0,0,1-.584,1.582,3.577,3.577,0,0,1-1.529,1.046,5.328,5.328,0,0,1-2.043.343,4.015,4.015,0,0,1-2.637-.91,2.933,2.933,0,0,1-1.072-2.307l2.338.018a1.285,1.285,0,0,0,1.459,1.38,2.076,2.076,0,0,0,1.129-.281A1.111,1.111,0,0,0,84.391,16.319Zm8.578-9.167L92.556,9.49h1.582l-.325,1.863H92.231l-.809,4.764a1.211,1.211,0,0,0,.07.686q.123.237.6.255.141.009.756-.044l-.176,1.942a4.169,4.169,0,0,1-1.424.2,2.234,2.234,0,0,1-1.819-.765,2.763,2.763,0,0,1-.492-2.021l.817-5.019H88.408l.325-1.863h1.345l.4-2.338Z" transform="translate(945 7904.032)" fill="#12263f"/><g transform="translate(725.533 7638.623)"><circle cx="22" cy="22" r="22" transform="translate(0.467 0.409)" fill="#feca2e" opacity="0.498"/><path d="M15.769,0A15.769,15.769,0,1,1,0,15.769,15.769,15.769,0,0,1,15.769,0Z" transform="translate(6.45 6.496)" fill="#feca2e"/></g><g transform="translate(655.051 7705.135)"><circle cx="23" cy="23" r="23" transform="translate(-0.051 -0.103)" fill="#feca2e" opacity="0.498"/><path d="M15.769,0A15.769,15.769,0,1,1,0,15.769,15.769,15.769,0,0,1,15.769,0Z" transform="translate(6.958 7.003)" fill="#feca2e"/></g><g transform="translate(655.051 7793.484)"><circle cx="23" cy="23" r="23" transform="translate(-0.051 -0.452)" fill="#feca2e" opacity="0.498"/><path d="M15.769,0A15.769,15.769,0,1,1,0,15.769,15.769,15.769,0,0,1,15.769,0Z" transform="translate(6.958 7.352)" fill="#feca2e"/></g><g transform="translate(722.555 7853.047)"><ellipse cx="22" cy="23" rx="22" ry="23" transform="translate(0.445 -0.015)" fill="#feca2e" opacity="0.498"/><path d="M15.769,0A15.769,15.769,0,1,1,0,15.769,15.769,15.769,0,0,1,15.769,0Z" transform="translate(6.472 6.922)" fill="#feca2e"/></g><g transform="translate(832.744 7853.047)"><ellipse cx="22" cy="23" rx="22" ry="23" transform="translate(0.255 -0.015)" fill="#feca2e" opacity="0.498"/><path d="M15.769,0A15.769,15.769,0,1,1,0,15.769,15.769,15.769,0,0,1,15.769,0Z" transform="translate(6.663 6.922)" fill="#feca2e"/></g><g transform="translate(887.343 7793.484)"><circle cx="23" cy="23" r="23" transform="translate(-0.343 -0.452)" fill="#feca2e" opacity="0.498"/><path d="M15.769,0A15.769,15.769,0,1,1,0,15.769,15.769,15.769,0,0,1,15.769,0Z" transform="translate(7.255 7.352)" fill="#feca2e"/></g><g transform="translate(821.825 7638.623)"><ellipse cx="22.5" cy="22" rx="22.5" ry="22" transform="translate(0.175 0.409)" fill="#feca2e" opacity="0.498"/><path d="M15.769,0A15.769,15.769,0,1,1,0,15.769,15.769,15.769,0,0,1,15.769,0Z" transform="translate(6.741 6.496)" fill="#feca2e"/></g><g transform="translate(887.343 7705.135)"><circle cx="23" cy="23" r="23" transform="translate(-0.343 -0.103)" fill="#feca2e" opacity="0.498"/><path d="M15.769,0A15.769,15.769,0,1,1,0,15.769,15.769,15.769,0,0,1,15.769,0Z" transform="translate(7.255 7.003)" fill="#feca2e"/></g></g></svg>